{"glyphs":{"0":{"ha":1063,"x_min":54,"x_max":1008,"o":"m 531 -25 q 283 39 392 -25 q 115 219 175 103 q 54 490 54 336 q 115 762 54 644 q 283 943 175 879 q 531 1007 392 1007 q 778 943 669 1007 q 947 762 886 879 q 1008 490 1008 644 q 947 219 1008 336 q 778 39 886 103 q 531 -25 669 -25 m 531 210 q 686 490 686 210 q 531 772 686 772 q 414 699 450 772 q 378 490 378 626 q 414 282 378 354 q 531 210 450 210 z "},"1":{"ha":669,"x_min":67,"x_max":529,"o":"m 529 986 l 529 0 l 224 0 l 224 697 l 67 640 l 67 875 l 343 986 l 529 986 z "},"2":{"ha":917,"x_min":54,"x_max":832,"o":"m 832 235 l 832 0 l 78 0 l 78 235 l 228 349 q 392 476 336 429 q 481 572 447 522 q 515 674 515 621 q 491 744 515 718 q 421 771 467 771 q 342 738 369 771 q 292 636 314 706 l 54 711 q 189 935 83 860 q 450 1011 294 1011 q 710 931 611 1011 q 810 701 810 850 q 744 491 810 581 q 602 351 678 401 q 406 235 526 300 l 832 235 z "},"3":{"ha":839,"x_min":25,"x_max":778,"o":"m 549 511 q 714 438 650 494 q 778 274 778 382 q 725 110 778 178 q 583 9 672 43 q 386 -24 494 -25 q 175 -2 272 -25 q 25 50 78 21 l 85 274 q 224 230 169 244 q 332 215 278 215 q 424 241 393 215 q 454 306 454 267 q 401 383 454 358 q 258 408 349 408 l 196 408 l 196 585 l 238 585 q 395 613 344 585 q 446 692 446 642 q 417 752 446 731 q 336 774 388 774 q 226 758 289 774 q 114 718 163 742 l 58 935 q 201 989 104 967 q 399 1011 299 1011 q 649 946 557 1011 q 742 757 742 881 q 689 602 742 665 q 549 511 636 539 z "},"4":{"ha":951,"x_min":33,"x_max":914,"o":"m 914 256 l 778 256 l 778 0 l 472 0 l 472 256 l 33 256 l 33 461 l 483 986 l 778 986 l 778 424 l 914 424 l 914 256 m 472 424 l 472 696 l 224 424 l 472 424 z "},"5":{"ha":929,"x_min":54,"x_max":878,"o":"m 571 640 q 797 562 717 640 q 878 335 878 483 q 819 131 878 211 q 665 13 761 50 q 450 -25 568 -25 q 235 4 326 -25 q 54 78 144 33 l 140 286 q 407 208 306 208 q 515 243 475 208 q 556 343 556 278 q 520 438 556 407 q 431 468 485 468 q 353 447 388 468 q 279 389 318 425 l 110 450 l 161 986 l 810 986 l 810 761 l 374 761 l 354 579 q 571 640 433 640 z "},"6":{"ha":950,"x_min":54,"x_max":915,"o":"m 607 619 q 826 547 738 619 q 915 325 915 474 q 804 66 915 157 q 497 -25 693 -25 q 265 27 365 -25 q 110 184 165 79 q 54 442 54 289 q 178 853 54 699 q 567 1007 301 1007 q 824 964 701 1007 l 781 746 q 600 776 676 776 q 438 719 494 776 q 374 539 381 663 q 607 619 475 619 m 489 182 q 576 217 546 182 q 607 319 607 251 q 489 447 607 447 q 425 434 453 447 q 372 389 397 421 l 372 347 q 401 221 372 260 q 489 182 431 182 z "},"7":{"ha":822,"x_min":40,"x_max":782,"o":"m 782 986 l 782 808 q 583 447 668 650 q 474 0 497 243 l 138 0 q 266 419 176 228 q 465 758 356 611 l 40 758 l 40 986 l 782 986 z "},"8":{"ha":919,"x_min":25,"x_max":894,"o":"m 667 556 q 834 443 774 504 q 894 289 894 382 q 778 59 894 139 q 460 -21 663 -21 q 140 53 256 -21 q 25 272 25 128 q 84 406 25 353 q 233 489 143 460 q 126 592 165 532 q 88 740 88 651 q 132 880 88 819 q 260 974 176 940 q 460 1007 344 1007 q 658 975 575 1007 q 785 887 742 943 q 829 756 829 831 q 785 633 829 683 q 667 556 740 583 m 464 838 q 399 815 422 838 q 375 754 375 793 q 408 685 375 715 q 506 626 442 656 q 556 742 556 686 q 531 813 556 788 q 464 838 507 838 m 450 165 q 530 191 499 165 q 561 254 561 217 q 521 340 561 307 q 399 408 481 372 q 353 353 369 386 q 338 285 338 319 q 369 198 338 231 q 450 165 400 165 z "},"9":{"ha":950,"x_min":35,"x_max":896,"o":"m 453 1011 q 685 959 585 1011 q 840 802 785 907 q 896 544 896 697 q 772 133 896 288 q 383 -21 649 -21 q 126 22 249 -21 l 169 240 q 350 210 274 210 q 513 267 456 210 q 576 447 569 324 q 343 367 475 367 q 124 440 213 367 q 35 661 35 513 q 146 920 35 829 q 453 1011 257 1011 m 461 539 q 525 552 497 539 q 578 597 553 565 l 578 639 q 549 765 578 726 q 461 804 519 804 q 374 769 404 804 q 343 667 343 735 q 461 539 343 539 z "},"̉":{"ha":636,"x_min":118,"x_max":521,"o":"m 118 -229 l 118 1042 l 521 1042 l 521 -229 l 118 -229 m 214 915 l 296 915 l 296 868 l 213 868 l 213 825 l 424 825 l 424 868 l 339 868 l 339 915 l 424 915 l 424 957 l 214 957 l 214 915 m 213 661 l 424 661 l 424 704 l 339 704 l 339 793 l 213 793 l 213 661 m 254 704 l 254 750 l 296 750 l 296 704 l 254 704 m 213 585 l 296 585 l 296 538 l 213 538 l 213 496 l 339 496 l 339 585 l 424 585 l 424 626 l 213 626 l 213 585 m 382 467 l 213 467 l 213 422 l 424 422 l 424 550 l 382 550 l 382 467 m 296 324 l 339 324 l 339 353 l 382 353 l 382 293 l 254 293 l 254 394 l 213 394 l 213 251 l 424 251 l 424 394 l 296 394 l 296 324 m 213 32 l 424 32 l 424 175 l 213 175 l 213 32 m 254 74 l 254 133 l 382 133 l 382 74 l 254 74 m 213 -40 l 301 -40 l 213 -100 l 213 -142 l 424 -142 l 424 -100 l 293 -100 l 382 -40 l 424 -40 l 424 3 l 213 3 l 213 -40 z "},"―":{"ha":636,"x_min":118,"x_max":521,"o":"m 118 -229 l 118 1042 l 521 1042 l 521 -229 l 118 -229 m 214 915 l 296 915 l 296 868 l 213 868 l 213 825 l 424 825 l 424 868 l 339 868 l 339 915 l 424 915 l 424 957 l 214 957 l 214 915 m 213 661 l 424 661 l 424 704 l 339 704 l 339 793 l 213 793 l 213 661 m 254 704 l 254 750 l 296 750 l 296 704 l 254 704 m 213 585 l 296 585 l 296 538 l 213 538 l 213 496 l 339 496 l 339 585 l 424 585 l 424 626 l 213 626 l 213 585 m 382 467 l 213 467 l 213 422 l 424 422 l 424 550 l 382 550 l 382 467 m 296 324 l 339 324 l 339 353 l 382 353 l 382 293 l 254 293 l 254 394 l 213 394 l 213 251 l 424 251 l 424 394 l 296 394 l 296 324 m 213 32 l 424 32 l 424 175 l 213 175 l 213 32 m 254 74 l 254 133 l 382 133 l 382 74 l 254 74 m 213 -40 l 301 -40 l 213 -100 l 213 -142 l 424 -142 l 424 -100 l 293 -100 l 382 -40 l 424 -40 l 424 3 l 213 3 l 213 -40 z "},"‖":{"ha":636,"x_min":118,"x_max":521,"o":"m 118 -229 l 118 1042 l 521 1042 l 521 -229 l 118 -229 m 214 915 l 296 915 l 296 868 l 213 868 l 213 825 l 424 825 l 424 868 l 339 868 l 339 915 l 424 915 l 424 957 l 214 957 l 214 915 m 213 661 l 424 661 l 424 704 l 339 704 l 339 793 l 213 793 l 213 661 m 254 704 l 254 750 l 296 750 l 296 704 l 254 704 m 213 585 l 296 585 l 296 538 l 213 538 l 213 496 l 339 496 l 339 585 l 424 585 l 424 626 l 213 626 l 213 585 m 382 467 l 213 467 l 213 422 l 424 422 l 424 550 l 382 550 l 382 467 m 296 324 l 339 324 l 339 353 l 382 353 l 382 293 l 254 293 l 254 394 l 213 394 l 213 251 l 424 251 l 424 394 l 296 394 l 296 324 m 213 32 l 424 32 l 424 175 l 213 175 l 213 32 m 254 74 l 254 133 l 382 133 l 382 74 l 254 74 m 213 -40 l 301 -40 l 213 -100 l 213 -142 l 424 -142 l 424 -100 l 293 -100 l 382 -40 l 424 -40 l 424 3 l 213 3 l 213 -40 z "},"‗":{"ha":636,"x_min":118,"x_max":521,"o":"m 118 -229 l 118 1042 l 521 1042 l 521 -229 l 118 -229 m 214 915 l 296 915 l 296 868 l 213 868 l 213 825 l 424 825 l 424 868 l 339 868 l 339 915 l 424 915 l 424 957 l 214 957 l 214 915 m 213 661 l 424 661 l 424 704 l 339 704 l 339 793 l 213 793 l 213 661 m 254 704 l 254 750 l 296 750 l 296 704 l 254 704 m 213 585 l 296 585 l 296 538 l 213 538 l 213 496 l 339 496 l 339 585 l 424 585 l 424 626 l 213 626 l 213 585 m 382 467 l 213 467 l 213 422 l 424 422 l 424 550 l 382 550 l 382 467 m 296 324 l 339 324 l 339 353 l 382 353 l 382 293 l 254 293 l 254 394 l 213 394 l 213 251 l 424 251 l 424 394 l 296 394 l 296 324 m 213 32 l 424 32 l 424 175 l 213 175 l 213 32 m 254 74 l 254 133 l 382 133 l 382 74 l 254 74 m 213 -40 l 301 -40 l 213 -100 l 213 -142 l 424 -142 l 424 -100 l 293 -100 l 382 -40 l 424 -40 l 424 3 l 213 3 l 213 -40 z "},"‛":{"ha":636,"x_min":118,"x_max":521,"o":"m 118 -229 l 118 1042 l 521 1042 l 521 -229 l 118 -229 m 214 915 l 296 915 l 296 868 l 213 868 l 213 825 l 424 825 l 424 868 l 339 868 l 339 915 l 424 915 l 424 957 l 214 957 l 214 915 m 213 661 l 424 661 l 424 704 l 339 704 l 339 793 l 213 793 l 213 661 m 254 704 l 254 750 l 296 750 l 296 704 l 254 704 m 213 585 l 296 585 l 296 538 l 213 538 l 213 496 l 339 496 l 339 585 l 424 585 l 424 626 l 213 626 l 213 585 m 382 467 l 213 467 l 213 422 l 424 422 l 424 550 l 382 550 l 382 467 m 296 324 l 339 324 l 339 353 l 382 353 l 382 293 l 254 293 l 254 394 l 213 394 l 213 251 l 424 251 l 424 394 l 296 394 l 296 324 m 213 32 l 424 32 l 424 175 l 213 175 l 213 32 m 254 74 l 254 133 l 382 133 l 382 74 l 254 74 m 213 -40 l 301 -40 l 213 -100 l 213 -142 l 424 -142 l 424 -100 l 293 -100 l 382 -40 l 424 -40 l 424 3 l 213 3 l 213 -40 z "},"‟":{"ha":636,"x_min":118,"x_max":521,"o":"m 118 -229 l 118 1042 l 521 1042 l 521 -229 l 118 -229 m 214 915 l 296 915 l 296 868 l 213 868 l 213 825 l 424 825 l 424 868 l 339 868 l 339 915 l 424 915 l 424 957 l 214 957 l 214 915 m 213 661 l 424 661 l 424 704 l 339 704 l 339 793 l 213 793 l 213 661 m 254 704 l 254 750 l 296 750 l 296 704 l 254 704 m 213 585 l 296 585 l 296 538 l 213 538 l 213 496 l 339 496 l 339 585 l 424 585 l 424 626 l 213 626 l 213 585 m 382 467 l 213 467 l 213 422 l 424 422 l 424 550 l 382 550 l 382 467 m 296 324 l 339 324 l 339 353 l 382 353 l 382 293 l 254 293 l 254 394 l 213 394 l 213 251 l 424 251 l 424 394 l 296 394 l 296 324 m 213 32 l 424 32 l 424 175 l 213 175 l 213 32 m 254 74 l 254 133 l 382 133 l 382 74 l 254 74 m 213 -40 l 301 -40 l 213 -100 l 213 -142 l 424 -142 l 424 -100 l 293 -100 l 382 -40 l 424 -40 l 424 3 l 213 3 l 213 -40 z "},"‣":{"ha":636,"x_min":118,"x_max":521,"o":"m 118 -229 l 118 1042 l 521 1042 l 521 -229 l 118 -229 m 214 915 l 296 915 l 296 868 l 213 868 l 213 825 l 424 825 l 424 868 l 339 868 l 339 915 l 424 915 l 424 957 l 214 957 l 214 915 m 213 661 l 424 661 l 424 704 l 339 704 l 339 793 l 213 793 l 213 661 m 254 704 l 254 750 l 296 750 l 296 704 l 254 704 m 213 585 l 296 585 l 296 538 l 213 538 l 213 496 l 339 496 l 339 585 l 424 585 l 424 626 l 213 626 l 213 585 m 382 467 l 213 467 l 213 422 l 424 422 l 424 550 l 382 550 l 382 467 m 296 324 l 339 324 l 339 353 l 382 353 l 382 293 l 254 293 l 254 394 l 213 394 l 213 251 l 424 251 l 424 394 l 296 394 l 296 324 m 213 32 l 424 32 l 424 175 l 213 175 l 213 32 m 254 74 l 254 133 l 382 133 l 382 74 l 254 74 m 213 -40 l 301 -40 l 213 -100 l 213 -142 l 424 -142 l 424 -100 l 293 -100 l 382 -40 l 424 -40 l 424 3 l 213 3 l 213 -40 z "},"․":{"ha":636,"x_min":118,"x_max":521,"o":"m 118 -229 l 118 1042 l 521 1042 l 521 -229 l 118 -229 m 214 915 l 296 915 l 296 868 l 213 868 l 213 825 l 424 825 l 424 868 l 339 868 l 339 915 l 424 915 l 424 957 l 214 957 l 214 915 m 213 661 l 424 661 l 424 704 l 339 704 l 339 793 l 213 793 l 213 661 m 254 704 l 254 750 l 296 750 l 296 704 l 254 704 m 213 585 l 296 585 l 296 538 l 213 538 l 213 496 l 339 496 l 339 585 l 424 585 l 424 626 l 213 626 l 213 585 m 382 467 l 213 467 l 213 422 l 424 422 l 424 550 l 382 550 l 382 467 m 296 324 l 339 324 l 339 353 l 382 353 l 382 293 l 254 293 l 254 394 l 213 394 l 213 251 l 424 251 l 424 394 l 296 394 l 296 324 m 213 32 l 424 32 l 424 175 l 213 175 l 213 32 m 254 74 l 254 133 l 382 133 l 382 74 l 254 74 m 213 -40 l 301 -40 l 213 -100 l 213 -142 l 424 -142 l 424 -100 l 293 -100 l 382 -40 l 424 -40 l 424 3 l 213 3 l 213 -40 z "},"‥":{"ha":636,"x_min":118,"x_max":521,"o":"m 118 -229 l 118 1042 l 521 1042 l 521 -229 l 118 -229 m 214 915 l 296 915 l 296 868 l 213 868 l 213 825 l 424 825 l 424 868 l 339 868 l 339 915 l 424 915 l 424 957 l 214 957 l 214 915 m 213 661 l 424 661 l 424 704 l 339 704 l 339 793 l 213 793 l 213 661 m 254 704 l 254 750 l 296 750 l 296 704 l 254 704 m 213 585 l 296 585 l 296 538 l 213 538 l 213 496 l 339 496 l 339 585 l 424 585 l 424 626 l 213 626 l 213 585 m 382 467 l 213 467 l 213 422 l 424 422 l 424 550 l 382 550 l 382 467 m 296 324 l 339 324 l 339 353 l 382 353 l 382 293 l 254 293 l 254 394 l 213 394 l 213 251 l 424 251 l 424 394 l 296 394 l 296 324 m 213 32 l 424 32 l 424 175 l 213 175 l 213 32 m 254 74 l 254 133 l 382 133 l 382 74 l 254 74 m 213 -40 l 301 -40 l 213 -100 l 213 -142 l 424 -142 l 424 -100 l 293 -100 l 382 -40 l 424 -40 l 424 3 l 213 3 l 213 -40 z "},"‱":{"ha":636,"x_min":118,"x_max":521,"o":"m 118 -229 l 118 1042 l 521 1042 l 521 -229 l 118 -229 m 214 915 l 296 915 l 296 868 l 213 868 l 213 825 l 424 825 l 424 868 l 339 868 l 339 915 l 424 915 l 424 957 l 214 957 l 214 915 m 213 661 l 424 661 l 424 704 l 339 704 l 339 793 l 213 793 l 213 661 m 254 704 l 254 750 l 296 750 l 296 704 l 254 704 m 213 585 l 296 585 l 296 538 l 213 538 l 213 496 l 339 496 l 339 585 l 424 585 l 424 626 l 213 626 l 213 585 m 382 467 l 213 467 l 213 422 l 424 422 l 424 550 l 382 550 l 382 467 m 296 324 l 339 324 l 339 353 l 382 353 l 382 293 l 254 293 l 254 394 l 213 394 l 213 251 l 424 251 l 424 394 l 296 394 l 296 324 m 213 32 l 424 32 l 424 175 l 213 175 l 213 32 m 254 74 l 254 133 l 382 133 l 382 74 l 254 74 m 213 -40 l 301 -40 l 213 -100 l 213 -142 l 424 -142 l 424 -100 l 293 -100 l 382 -40 l 424 -40 l 424 3 l 213 3 l 213 -40 z "},"₪":{"ha":636,"x_min":118,"x_max":521,"o":"m 118 -229 l 118 1042 l 521 1042 l 521 -229 l 118 -229 m 214 915 l 296 915 l 296 868 l 213 868 l 213 825 l 424 825 l 424 868 l 339 868 l 339 915 l 424 915 l 424 957 l 214 957 l 214 915 m 213 661 l 424 661 l 424 704 l 339 704 l 339 793 l 213 793 l 213 661 m 254 704 l 254 750 l 296 750 l 296 704 l 254 704 m 213 585 l 296 585 l 296 538 l 213 538 l 213 496 l 339 496 l 339 585 l 424 585 l 424 626 l 213 626 l 213 585 m 382 467 l 213 467 l 213 422 l 424 422 l 424 550 l 382 550 l 382 467 m 296 324 l 339 324 l 339 353 l 382 353 l 382 293 l 254 293 l 254 394 l 213 394 l 213 251 l 424 251 l 424 394 l 296 394 l 296 324 m 213 32 l 424 32 l 424 175 l 213 175 l 213 32 m 254 74 l 254 133 l 382 133 l 382 74 l 254 74 m 213 -40 l 301 -40 l 213 -100 l 213 -142 l 424 -142 l 424 -100 l 293 -100 l 382 -40 l 424 -40 l 424 3 l 213 3 l 213 -40 z "},"₫":{"ha":636,"x_min":118,"x_max":521,"o":"m 118 -229 l 118 1042 l 521 1042 l 521 -229 l 118 -229 m 214 915 l 296 915 l 296 868 l 213 868 l 213 825 l 424 825 l 424 868 l 339 868 l 339 915 l 424 915 l 424 957 l 214 957 l 214 915 m 213 661 l 424 661 l 424 704 l 339 704 l 339 793 l 213 793 l 213 661 m 254 704 l 254 750 l 296 750 l 296 704 l 254 704 m 213 585 l 296 585 l 296 538 l 213 538 l 213 496 l 339 496 l 339 585 l 424 585 l 424 626 l 213 626 l 213 585 m 382 467 l 213 467 l 213 422 l 424 422 l 424 550 l 382 550 l 382 467 m 296 324 l 339 324 l 339 353 l 382 353 l 382 293 l 254 293 l 254 394 l 213 394 l 213 251 l 424 251 l 424 394 l 296 394 l 296 324 m 213 32 l 424 32 l 424 175 l 213 175 l 213 32 m 254 74 l 254 133 l 382 133 l 382 74 l 254 74 m 213 -40 l 301 -40 l 213 -100 l 213 -142 l 424 -142 l 424 -100 l 293 -100 l 382 -40 l 424 -40 l 424 3 l 213 3 l 213 -40 z "},"≡":{"ha":636,"x_min":118,"x_max":521,"o":"m 118 -229 l 118 1042 l 521 1042 l 521 -229 l 118 -229 m 214 915 l 296 915 l 296 868 l 213 868 l 213 825 l 424 825 l 424 868 l 339 868 l 339 915 l 424 915 l 424 957 l 214 957 l 214 915 m 213 661 l 424 661 l 424 704 l 339 704 l 339 793 l 213 793 l 213 661 m 254 704 l 254 750 l 296 750 l 296 704 l 254 704 m 213 585 l 296 585 l 296 538 l 213 538 l 213 496 l 339 496 l 339 585 l 424 585 l 424 626 l 213 626 l 213 585 m 382 467 l 213 467 l 213 422 l 424 422 l 424 550 l 382 550 l 382 467 m 296 324 l 339 324 l 339 353 l 382 353 l 382 293 l 254 293 l 254 394 l 213 394 l 213 251 l 424 251 l 424 394 l 296 394 l 296 324 m 213 32 l 424 32 l 424 175 l 213 175 l 213 32 m 254 74 l 254 133 l 382 133 l 382 74 l 254 74 m 213 -40 l 301 -40 l 213 -100 l 213 -142 l 424 -142 l 424 -100 l 293 -100 l 382 -40 l 424 -40 l 424 3 l 213 3 l 213 -40 z "},"≢":{"ha":636,"x_min":118,"x_max":521,"o":"m 118 -229 l 118 1042 l 521 1042 l 521 -229 l 118 -229 m 214 915 l 296 915 l 296 868 l 213 868 l 213 825 l 424 825 l 424 868 l 339 868 l 339 915 l 424 915 l 424 957 l 214 957 l 214 915 m 213 661 l 424 661 l 424 704 l 339 704 l 339 793 l 213 793 l 213 661 m 254 704 l 254 750 l 296 750 l 296 704 l 254 704 m 213 585 l 296 585 l 296 538 l 213 538 l 213 496 l 339 496 l 339 585 l 424 585 l 424 626 l 213 626 l 213 585 m 382 467 l 213 467 l 213 422 l 424 422 l 424 550 l 382 550 l 382 467 m 296 324 l 339 324 l 339 353 l 382 353 l 382 293 l 254 293 l 254 394 l 213 394 l 213 251 l 424 251 l 424 394 l 296 394 l 296 324 m 213 32 l 424 32 l 424 175 l 213 175 l 213 32 m 254 74 l 254 133 l 382 133 l 382 74 l 254 74 m 213 -40 l 301 -40 l 213 -100 l 213 -142 l 424 -142 l 424 -100 l 293 -100 l 382 -40 l 424 -40 l 424 3 l 213 3 l 213 -40 z "},"≣":{"ha":636,"x_min":118,"x_max":521,"o":"m 118 -229 l 118 1042 l 521 1042 l 521 -229 l 118 -229 m 214 915 l 296 915 l 296 868 l 213 868 l 213 825 l 424 825 l 424 868 l 339 868 l 339 915 l 424 915 l 424 957 l 214 957 l 214 915 m 213 661 l 424 661 l 424 704 l 339 704 l 339 793 l 213 793 l 213 661 m 254 704 l 254 750 l 296 750 l 296 704 l 254 704 m 213 585 l 296 585 l 296 538 l 213 538 l 213 496 l 339 496 l 339 585 l 424 585 l 424 626 l 213 626 l 213 585 m 382 467 l 213 467 l 213 422 l 424 422 l 424 550 l 382 550 l 382 467 m 296 324 l 339 324 l 339 353 l 382 353 l 382 293 l 254 293 l 254 394 l 213 394 l 213 251 l 424 251 l 424 394 l 296 394 l 296 324 m 213 32 l 424 32 l 424 175 l 213 175 l 213 32 m 254 74 l 254 133 l 382 133 l 382 74 l 254 74 m 213 -40 l 301 -40 l 213 -100 l 213 -142 l 424 -142 l 424 -100 l 293 -100 l 382 -40 l 424 -40 l 424 3 l 213 3 l 213 -40 z "}," ":{"ha":260,"x_min":0,"x_max":0,"o":""},"!":{"ha":471,"x_min":53,"x_max":418,"o":"m 157 399 q 135 515 149 464 q 96 644 121 565 q 63 751 74 710 q 53 835 53 793 q 106 956 53 910 q 236 1003 158 1003 q 367 957 315 1003 q 418 835 418 911 q 408 752 418 793 q 376 646 397 711 q 338 515 351 567 q 315 399 324 464 l 313 376 l 160 376 l 157 399 m 235 -11 q 107 32 156 -11 q 58 150 58 75 q 108 272 58 225 q 235 319 157 319 q 363 272 314 319 q 413 150 413 225 q 364 32 413 75 q 235 -11 315 -11 z "},"\"":{"ha":833,"x_min":53,"x_max":781,"o":"m 335 461 l 82 461 l 53 986 l 364 986 l 335 461 m 751 461 l 499 461 l 469 986 l 781 986 l 751 461 z "},"#":{"ha":997,"x_min":0,"x_max":1013,"o":"m 818 599 l 767 414 l 942 414 l 942 233 l 718 233 l 653 -1 l 443 -1 l 508 233 l 335 233 l 269 -1 l 61 -1 l 125 233 l 0 233 l 0 414 l 175 414 l 225 599 l 71 599 l 71 779 l 275 779 l 332 986 l 543 986 l 486 779 l 658 779 l 715 986 l 925 986 l 868 779 l 1013 779 l 1013 599 l 818 599 m 608 599 l 436 599 l 385 414 l 557 414 l 608 599 z "},"$":{"ha":810,"x_min":8,"x_max":804,"o":"m 804 325 q 732 97 804 182 q 536 -14 660 11 l 536 -151 l 283 -151 l 283 -12 q 128 36 194 3 q 8 115 63 69 l 108 326 q 260 245 201 271 q 385 219 318 219 q 456 235 432 219 q 481 276 481 250 q 455 320 481 304 q 374 351 429 336 q 207 409 271 381 q 92 503 143 438 q 40 683 40 569 q 108 886 40 808 q 283 993 175 964 l 283 1138 l 536 1138 l 536 1003 q 779 886 686 979 l 675 688 q 545 750 596 731 q 442 769 494 769 q 373 756 399 769 q 347 717 347 742 q 374 676 347 692 q 458 644 401 661 q 633 584 569 611 q 751 494 697 557 q 804 325 804 431 z "},"%":{"ha":1450,"x_min":28,"x_max":1421,"o":"m 438 0 l 261 0 l 971 1007 l 1147 1007 l 438 0 m 301 447 q 160 481 222 447 q 63 578 97 515 q 28 722 28 640 q 63 867 28 804 q 159 963 97 929 q 300 997 221 997 q 441 963 379 997 q 538 867 503 929 q 572 722 572 804 q 538 578 572 640 q 441 481 503 515 q 301 447 379 447 m 300 585 q 358 619 340 585 q 375 722 375 654 q 358 825 375 790 q 300 860 340 860 q 243 825 260 860 q 226 722 226 790 q 243 619 226 654 q 300 585 260 585 m 1150 -11 q 1008 23 1071 -11 q 911 119 946 57 q 876 264 876 182 q 911 408 876 346 q 1008 505 946 471 q 1149 539 1069 539 q 1290 505 1228 539 q 1386 408 1351 471 q 1421 264 1421 346 q 1386 119 1421 182 q 1290 23 1351 57 q 1150 -11 1228 -11 m 1149 126 q 1206 161 1189 126 q 1224 264 1224 196 q 1206 367 1224 332 q 1149 401 1189 401 q 1092 367 1108 401 q 1075 264 1075 332 q 1092 161 1075 196 q 1149 126 1108 126 z "},"&":{"ha":1124,"x_min":36,"x_max":1144,"o":"m 771 0 l 665 107 q 515 11 596 47 q 321 -25 433 -25 q 112 42 188 -25 q 36 226 36 110 q 103 401 36 340 q 288 497 169 463 q 215 608 239 553 q 190 731 190 663 q 233 873 190 808 q 355 974 276 938 q 535 1011 433 1011 q 762 944 674 1011 q 850 764 850 878 q 799 614 850 678 q 657 508 747 550 l 746 414 q 826 489 786 450 q 894 561 867 528 l 1046 428 l 878 278 l 1144 0 l 771 0 m 551 825 q 494 801 517 825 q 472 743 472 778 q 490 676 472 704 q 544 615 508 647 q 605 678 585 640 q 625 751 625 715 q 605 803 625 782 q 551 825 585 825 m 433 199 q 535 239 485 199 l 404 371 q 343 278 343 329 q 369 221 343 243 q 433 199 394 199 z "},"'":{"ha":417,"x_min":53,"x_max":364,"o":"m 335 461 l 82 461 l 53 986 l 364 986 l 335 461 z "},"(":{"ha":586,"x_min":51,"x_max":535,"o":"m 285 -328 q 183 -182 236 -276 q 91 51 131 -87 q 51 351 51 189 q 91 652 51 514 q 183 885 131 790 q 285 1031 236 979 l 535 926 q 402 640 444 767 q 360 351 360 514 q 402 63 360 189 q 535 -224 444 -64 l 285 -328 z "},")":{"ha":586,"x_min":51,"x_max":535,"o":"m 51 -224 q 184 63 142 -64 q 226 351 226 189 q 184 640 226 514 q 51 926 142 767 l 301 1031 q 403 885 350 979 q 495 652 456 790 q 535 351 535 514 q 495 51 535 189 q 403 -182 456 -87 q 301 -328 350 -276 l 51 -224 z "},"*":{"ha":765,"x_min":53,"x_max":713,"o":"m 106 557 l 235 685 l 53 714 l 128 943 l 290 857 l 264 1042 l 501 1042 l 475 857 l 639 946 l 713 715 l 531 685 l 661 557 l 468 417 l 383 579 l 299 417 l 106 557 z "},"+":{"ha":925,"x_min":103,"x_max":822,"o":"m 822 339 l 572 339 l 572 86 l 354 86 l 354 339 l 103 339 l 103 551 l 354 551 l 354 806 l 572 806 l 572 551 l 822 551 l 822 339 z "},",":{"ha":488,"x_min":53,"x_max":435,"o":"m 275 289 q 390 247 344 289 q 435 125 435 204 q 390 -33 435 47 q 277 -181 346 -114 q 135 -290 208 -249 l 53 -189 q 153 -101 103 -150 q 233 -4 204 -51 q 143 40 178 3 q 108 136 108 78 q 156 247 108 204 q 275 289 203 289 z "},"-":{"ha":836,"x_min":103,"x_max":733,"o":"m 733 283 l 103 283 l 103 531 l 733 531 l 733 283 z "},".":{"ha":460,"x_min":53,"x_max":407,"o":"m 229 -11 q 101 32 150 -11 q 53 150 53 75 q 102 272 53 225 q 229 319 151 319 q 358 272 308 319 q 407 150 407 225 q 358 32 407 75 q 229 -11 310 -11 z "},"/":{"ha":832,"x_min":0,"x_max":846,"o":"m 846 1007 l 306 -150 l 0 -150 l 540 1007 l 846 1007 z "},":":{"ha":460,"x_min":53,"x_max":407,"o":"m 229 -11 q 101 32 150 -11 q 53 150 53 75 q 102 272 53 225 q 229 319 151 319 q 358 272 308 319 q 407 150 407 225 q 358 32 407 75 q 229 -11 310 -11 m 229 429 q 101 472 150 429 q 53 590 53 515 q 102 713 53 665 q 229 760 151 760 q 358 713 308 760 q 407 590 407 665 q 358 472 407 515 q 229 429 310 429 z "},";":{"ha":488,"x_min":15,"x_max":407,"o":"m 238 289 q 352 247 307 289 q 397 125 397 204 q 353 -33 397 47 q 240 -181 308 -114 q 97 -290 171 -249 l 15 -189 q 116 -101 65 -150 q 196 -4 167 -51 q 106 40 140 3 q 71 136 71 78 q 118 247 71 204 q 238 289 165 289 m 229 404 q 101 447 150 404 q 53 565 53 490 q 102 688 53 640 q 229 735 151 735 q 358 688 308 735 q 407 565 407 640 q 358 447 407 490 q 229 404 310 404 z "},"<":{"ha":874,"x_min":51,"x_max":771,"o":"m 771 872 l 771 657 l 249 476 l 771 296 l 771 81 l 51 346 l 51 607 l 771 872 z "},"=":{"ha":925,"x_min":103,"x_max":822,"o":"m 822 513 l 103 513 l 103 725 l 822 725 l 822 513 m 822 167 l 103 167 l 103 379 l 822 379 l 822 167 z "},">":{"ha":858,"x_min":85,"x_max":804,"o":"m 85 81 l 85 296 l 607 476 l 85 657 l 85 872 l 804 607 l 804 346 l 85 81 z "},"?":{"ha":672,"x_min":0,"x_max":676,"o":"m 197 351 q 208 469 193 421 q 247 547 224 518 q 306 610 269 575 q 354 662 339 640 q 369 713 369 683 q 347 763 369 746 q 281 781 324 781 q 186 758 235 781 q 94 700 138 736 l 0 872 q 131 970 46 929 q 335 1011 215 1011 q 575 956 474 1011 q 676 765 676 900 q 658 663 676 704 q 614 594 640 621 q 544 536 588 568 q 458 455 488 493 q 424 351 428 417 l 197 351 m 311 -11 q 183 32 232 -11 q 135 150 135 75 q 184 272 135 225 q 311 319 233 319 q 440 272 390 319 q 489 150 489 225 q 440 32 489 75 q 311 -11 392 -11 z "},"@":{"ha":1435,"x_min":63,"x_max":1379,"o":"m 988 328 q 982 285 982 306 q 1050 218 982 218 q 1124 244 1088 218 q 1184 327 1160 271 q 1208 468 1208 383 q 1147 676 1208 589 q 985 808 1086 763 q 764 853 883 853 q 509 787 624 853 q 328 604 394 721 q 261 342 261 488 q 318 88 261 193 q 481 -74 375 -18 q 733 -129 588 -129 q 930 -101 840 -129 q 1083 -24 1019 -74 l 1158 -149 q 964 -250 1074 -214 q 729 -286 854 -286 q 369 -213 519 -286 q 141 0 219 -140 q 63 339 63 140 q 157 686 63 533 q 413 923 251 839 q 768 1007 575 1007 q 1073 942 933 1007 q 1296 755 1213 876 q 1379 472 1379 633 q 1326 244 1379 336 q 1192 108 1274 151 q 1024 64 1111 64 q 886 99 939 64 q 821 192 833 133 q 621 63 756 63 q 476 128 532 63 q 419 311 419 193 q 421 356 419 340 q 469 517 429 450 q 567 617 510 583 q 688 651 625 651 q 865 553 824 651 l 888 636 l 1064 636 l 988 328 m 715 253 q 781 281 754 253 q 819 356 808 310 q 824 388 824 372 q 803 445 824 424 q 747 467 782 467 q 679 437 706 467 q 644 356 653 407 q 642 329 642 336 q 661 273 642 293 q 715 253 681 253 z "},"A":{"ha":1033,"x_min":0,"x_max":1033,"o":"m 642 175 l 351 175 l 297 0 l 0 0 l 344 986 l 690 986 l 1033 0 l 694 0 l 642 175 m 583 363 l 496 650 l 408 363 l 583 363 z "},"B":{"ha":1001,"x_min":103,"x_max":960,"o":"m 769 503 q 911 427 863 481 q 960 279 960 374 q 858 72 960 143 q 564 0 757 0 l 103 0 l 103 986 l 536 986 q 827 915 729 986 q 925 707 925 844 q 886 572 925 619 q 769 503 847 524 m 408 758 l 408 575 l 517 575 q 588 601 565 575 q 611 671 611 628 q 588 735 611 713 q 517 758 564 758 l 408 758 m 536 228 q 611 256 583 228 q 639 325 639 283 q 613 388 639 365 q 536 411 586 411 l 408 411 l 408 228 l 536 228 z "},"C":{"ha":885,"x_min":51,"x_max":839,"o":"m 560 -25 q 285 39 399 -25 q 111 219 171 103 q 51 493 51 336 q 113 766 51 649 q 288 947 174 883 q 560 1011 403 1011 q 825 949 692 1011 l 774 672 q 596 713 688 713 q 438 654 501 713 q 375 493 375 596 q 433 331 375 388 q 597 274 490 274 q 692 284 656 274 q 786 317 729 294 l 839 42 q 710 -6 776 13 q 560 -25 644 -25 z "},"D":{"ha":1063,"x_min":103,"x_max":1011,"o":"m 499 986 q 875 865 739 986 q 1011 493 1011 743 q 875 122 1011 243 q 499 0 739 0 l 103 0 l 103 986 l 499 986 m 499 261 q 638 319 586 261 q 689 493 689 378 q 638 667 689 608 q 499 725 586 725 l 408 725 l 408 261 l 499 261 z "},"E":{"ha":804,"x_min":103,"x_max":724,"o":"m 408 731 l 408 617 l 679 617 l 679 392 l 408 392 l 408 256 l 724 256 l 724 0 l 103 0 l 103 986 l 724 986 l 724 731 l 408 731 z "},"F":{"ha":794,"x_min":103,"x_max":724,"o":"m 408 725 l 408 560 l 686 560 l 686 326 l 408 326 l 408 0 l 103 0 l 103 986 l 724 986 l 724 725 l 408 725 z "},"G":{"ha":1079,"x_min":51,"x_max":1033,"o":"m 1033 574 l 1033 457 q 902 94 1033 213 q 556 -25 771 -25 q 303 37 418 -25 q 120 216 189 99 q 51 493 51 333 q 119 770 51 653 q 301 949 188 888 q 549 1011 415 1011 q 809 950 703 1011 q 983 771 915 889 l 736 646 q 666 717 710 692 q 572 743 622 743 q 429 674 485 743 q 374 493 374 604 q 429 306 374 376 q 576 235 485 235 q 697 269 649 235 q 756 367 746 304 l 567 367 l 567 574 l 1033 574 z "},"H":{"ha":1065,"x_min":103,"x_max":963,"o":"m 963 986 l 963 0 l 657 0 l 657 376 l 408 376 l 408 0 l 103 0 l 103 986 l 408 986 l 408 624 l 657 624 l 657 986 l 963 986 z "},"I":{"ha":511,"x_min":103,"x_max":408,"o":"m 408 0 l 103 0 l 103 986 l 408 986 l 408 0 z "},"J":{"ha":651,"x_min":19,"x_max":560,"o":"m 219 -12 q 19 14 133 -12 l 42 263 q 79 256 50 261 q 136 250 108 250 q 226 288 199 250 q 254 397 254 325 l 254 986 l 560 986 l 560 333 q 467 67 560 147 q 219 -12 375 -12 z "},"K":{"ha":1035,"x_min":103,"x_max":1032,"o":"m 454 300 l 408 242 l 408 0 l 103 0 l 103 986 l 408 986 l 408 613 l 665 986 l 1000 986 l 669 540 l 1032 0 l 654 0 l 454 300 z "},"L":{"ha":738,"x_min":103,"x_max":675,"o":"m 675 261 l 675 0 l 103 0 l 103 986 l 408 986 l 408 261 l 675 261 z "},"M":{"ha":1414,"x_min":68,"x_max":1346,"o":"m 1054 0 l 978 565 l 794 0 l 585 0 l 403 567 l 339 0 l 68 0 l 175 986 l 521 986 l 703 438 l 885 986 l 1239 986 l 1346 0 l 1054 0 z "},"N":{"ha":1065,"x_min":103,"x_max":963,"o":"m 963 986 l 963 0 l 661 0 l 367 501 l 367 0 l 103 0 l 103 986 l 417 986 l 699 554 l 699 986 l 963 986 z "},"O":{"ha":1113,"x_min":51,"x_max":1061,"o":"m 556 -25 q 301 40 417 -25 q 119 222 186 104 q 51 493 51 340 q 119 764 51 646 q 301 947 186 882 q 556 1011 417 1011 q 810 947 694 1011 q 994 764 926 882 q 1061 493 1061 646 q 994 222 1061 340 q 810 40 926 104 q 556 -25 694 -25 m 556 261 q 686 320 633 261 q 739 493 739 379 q 686 666 739 607 q 556 725 633 725 q 426 666 478 725 q 375 493 375 607 q 426 320 375 379 q 556 261 478 261 z "},"P":{"ha":967,"x_min":103,"x_max":939,"o":"m 543 986 q 838 897 736 986 q 939 638 939 807 q 894 434 939 522 q 759 296 849 346 q 543 246 669 246 l 408 246 l 408 0 l 103 0 l 103 986 l 543 986 m 474 478 q 583 515 547 478 q 618 613 618 553 q 583 700 618 669 q 474 731 547 731 l 408 731 l 408 478 l 474 478 z "},"Q":{"ha":1113,"x_min":51,"x_max":1074,"o":"m 839 -147 l 722 1 q 556 -25 640 -25 q 301 40 417 -25 q 119 222 186 104 q 51 493 51 340 q 119 764 51 646 q 301 947 186 882 q 556 1011 417 1011 q 810 947 694 1011 q 994 764 926 882 q 1061 493 1061 646 q 1034 313 1061 397 q 956 164 1007 229 l 1074 13 l 839 -147 m 375 493 q 426 320 375 379 q 556 261 478 261 q 686 320 633 261 q 739 493 739 379 q 686 666 739 607 q 556 725 633 725 q 426 666 478 725 q 375 493 375 607 z "},"R":{"ha":1014,"x_min":103,"x_max":983,"o":"m 450 308 l 408 308 l 408 0 l 103 0 l 103 986 l 563 986 q 857 901 756 986 q 958 658 958 815 q 906 462 958 544 q 753 340 854 379 l 983 0 l 632 0 l 450 308 m 408 506 l 490 506 q 635 626 635 506 q 600 706 635 682 q 490 731 565 731 l 408 731 l 408 506 z "},"S":{"ha":850,"x_min":21,"x_max":817,"o":"m 440 -25 q 194 13 293 -25 q 21 115 96 51 l 121 326 q 272 245 214 271 q 397 219 331 219 q 469 235 444 219 q 493 276 493 250 q 467 320 493 304 q 386 351 442 336 q 219 409 283 381 q 104 503 156 438 q 53 683 53 569 q 106 868 53 794 q 246 976 160 942 q 431 1011 332 1011 q 645 978 560 1011 q 792 886 731 946 l 688 688 q 558 750 608 731 q 454 769 507 769 q 385 756 411 769 q 360 717 360 742 q 387 676 360 692 q 471 644 414 661 q 646 584 582 611 q 763 494 710 557 q 817 325 817 431 q 713 64 817 153 q 440 -25 608 -25 z "},"T":{"ha":836,"x_min":40,"x_max":796,"o":"m 796 725 l 571 725 l 571 0 l 265 0 l 265 725 l 40 725 l 40 986 l 796 986 l 796 725 z "},"U":{"ha":1026,"x_min":92,"x_max":935,"o":"m 511 -25 q 208 67 325 -25 q 92 346 92 158 l 92 986 l 397 986 l 397 400 q 422 290 396 328 q 511 253 449 253 q 601 290 574 253 q 629 400 629 328 l 629 986 l 935 986 l 935 346 q 818 67 935 158 q 511 -25 701 -25 z "},"V":{"ha":964,"x_min":7,"x_max":957,"o":"m 957 986 l 654 0 l 308 0 l 7 986 l 343 986 l 500 390 l 657 986 l 957 986 z "},"W":{"ha":1600,"x_min":7,"x_max":1593,"o":"m 1593 986 l 1258 0 l 982 0 l 800 565 l 617 0 l 340 0 l 7 986 l 343 986 l 511 429 l 685 986 l 951 986 l 1125 429 l 1293 986 l 1593 986 z "},"X":{"ha":968,"x_min":-4,"x_max":963,"o":"m 661 486 l 961 0 l 621 0 l 460 263 l 306 0 l -4 0 l 307 510 l 14 986 l 353 986 l 514 725 l 650 986 l 963 986 l 661 486 z "},"Y":{"ha":915,"x_min":-21,"x_max":929,"o":"m 607 364 l 607 0 l 301 0 l 301 361 l -21 986 l 315 986 l 472 664 l 629 986 l 929 986 l 607 364 z "},"Z":{"ha":840,"x_min":54,"x_max":800,"o":"m 75 731 l 75 986 l 776 986 l 776 731 l 396 256 l 800 256 l 800 0 l 54 0 l 54 256 l 421 731 l 75 731 z "},"[":{"ha":651,"x_min":103,"x_max":600,"o":"m 600 725 l 408 725 l 408 -24 l 600 -24 l 600 -276 l 103 -276 l 103 986 l 600 986 l 600 725 z "},"\\":{"ha":790,"x_min":0,"x_max":846,"o":"m 846 -150 l 540 -150 l 0 1007 l 306 1007 l 846 -150 z "},"]":{"ha":651,"x_min":51,"x_max":549,"o":"m 549 -276 l 51 -276 l 51 -24 l 243 -24 l 243 725 l 51 725 l 51 986 l 549 986 l 549 -276 z "},"_":{"ha":746,"x_min":0,"x_max":746,"o":"m 746 -364 l 0 -364 l 0 -117 l 746 -117 l 746 -364 z "},"`":{"ha":833,"x_min":69,"x_max":492,"o":"m 492 819 l 269 819 l 69 1042 l 333 1042 l 492 819 z "},"a":{"ha":860,"x_min":35,"x_max":794,"o":"m 506 0 q 486 81 490 38 q 390 3 450 32 q 267 -25 331 -25 q 98 33 161 -25 q 35 194 35 92 q 140 384 35 324 q 485 446 244 444 l 485 457 q 456 514 485 497 q 371 531 426 531 q 174 482 263 531 l 79 665 q 433 760 200 760 q 684 694 589 760 q 779 453 779 629 l 779 99 q 794 0 779 32 l 506 0 m 408 183 q 485 217 447 183 l 485 325 q 379 300 410 321 q 349 240 349 279 q 365 199 349 214 q 408 183 381 183 z "},"b":{"ha":938,"x_min":79,"x_max":903,"o":"m 575 760 q 744 715 669 760 q 860 583 818 671 q 903 368 903 494 q 860 154 903 243 q 742 20 817 65 q 575 -25 668 -25 q 351 88 428 -25 l 351 0 l 79 0 l 79 1042 l 376 1042 l 376 679 q 575 760 450 760 m 472 224 q 556 263 526 224 q 586 368 586 301 q 556 473 586 435 q 472 511 526 511 q 385 472 418 511 q 351 368 351 432 q 385 266 351 308 q 472 224 418 224 z "},"c":{"ha":733,"x_min":35,"x_max":708,"o":"m 35 368 q 84 575 35 486 q 224 712 133 664 q 439 760 315 760 q 590 742 522 760 q 694 699 657 724 l 636 458 q 489 488 568 488 q 390 455 429 488 q 351 368 351 422 q 390 281 351 313 q 501 249 429 249 q 573 256 543 249 q 646 275 603 263 l 708 40 q 656 17 700 36 q 556 -13 613 -1 q 439 -25 500 -25 q 222 24 313 -25 q 83 160 131 72 q 35 368 35 249 z "},"d":{"ha":938,"x_min":35,"x_max":858,"o":"m 858 1042 l 858 0 l 586 0 l 581 82 q 363 -24 507 -24 q 195 22 269 -24 q 78 156 121 67 q 35 369 35 244 q 77 584 35 496 q 194 717 119 672 q 363 761 268 761 q 561 681 488 761 l 561 1042 l 858 1042 m 465 225 q 553 267 519 225 q 586 369 586 310 q 553 473 586 433 q 465 513 519 513 q 381 474 411 513 q 351 369 351 436 q 381 264 351 303 q 465 225 411 225 z "},"e":{"ha":851,"x_min":35,"x_max":814,"o":"m 814 315 l 353 315 q 420 242 374 260 q 536 225 467 225 q 714 253 631 225 l 779 31 q 485 -25 660 -25 q 151 76 268 -25 q 35 360 35 178 q 87 573 35 482 q 231 712 139 664 q 443 760 324 760 q 638 719 554 760 q 767 600 721 678 q 814 414 814 522 l 814 315 m 436 546 q 378 519 401 546 q 346 444 354 493 l 521 444 q 493 521 515 496 q 436 546 471 546 z "},"f":{"ha":636,"x_min":43,"x_max":590,"o":"m 506 836 q 448 823 465 836 q 431 779 431 810 l 431 735 l 575 735 l 575 508 l 431 508 l 431 0 l 136 0 l 136 508 l 43 508 l 43 735 l 136 735 l 136 808 q 208 1002 136 938 q 447 1067 281 1067 q 590 1057 542 1067 l 590 832 q 506 836 549 836 z "},"g":{"ha":869,"x_min":-8,"x_max":914,"o":"m 622 179 q 803 121 749 179 q 858 -21 858 63 q 753 -205 858 -129 q 374 -281 647 -281 q 95 -245 199 -281 q -8 -136 -8 -210 q 36 -62 -8 -85 q 153 -29 81 -39 q 57 19 94 -14 q 19 108 19 53 q 59 208 19 168 q 175 288 99 249 q 72 375 108 321 q 36 503 36 429 q 83 642 36 583 q 213 733 129 701 q 408 764 297 764 q 639 722 540 764 l 761 843 l 914 692 l 776 603 q 800 503 800 556 q 694 309 800 378 q 411 240 589 240 q 293 250 343 240 q 276 218 276 238 q 297 188 276 197 q 367 179 317 179 l 622 179 m 419 593 q 360 569 383 593 q 338 503 338 544 q 360 434 338 460 q 419 408 383 408 q 476 434 456 408 q 497 503 497 460 q 476 569 497 544 q 419 593 456 593 m 414 -143 q 524 -129 486 -143 q 563 -89 563 -115 q 485 -43 563 -43 l 276 -43 q 264 -76 264 -61 q 299 -124 264 -106 q 414 -143 333 -143 z "},"h":{"ha":932,"x_min":79,"x_max":853,"o":"m 625 760 q 853 494 853 760 l 853 0 l 558 0 l 558 392 q 540 479 558 451 q 478 507 522 507 q 422 490 449 507 q 374 443 394 472 l 374 0 l 79 0 l 79 1042 l 374 1042 l 374 617 q 625 760 451 760 z "},"i":{"ha":503,"x_min":79,"x_max":424,"o":"m 399 0 l 104 0 l 104 735 l 399 735 l 399 0 m 251 807 q 127 846 175 807 q 79 950 79 885 q 127 1056 79 1017 q 251 1096 175 1096 q 376 1056 329 1096 q 424 950 424 1017 q 376 846 424 885 q 251 807 329 807 z "},"j":{"ha":503,"x_min":-56,"x_max":424,"o":"m -56 -53 q 21 -57 -14 -57 q 84 -34 64 -57 q 104 28 104 -11 l 104 735 l 399 735 l 399 -1 q 325 -211 399 -135 q 88 -287 251 -287 q -56 -278 -7 -287 l -56 -53 m 251 807 q 127 846 175 807 q 79 950 79 885 q 127 1056 79 1017 q 251 1096 175 1096 q 376 1056 329 1096 q 424 950 424 1017 q 376 846 424 885 q 251 807 329 807 z "},"k":{"ha":896,"x_min":79,"x_max":924,"o":"m 418 222 l 374 172 l 374 0 l 79 0 l 79 1042 l 374 1042 l 374 497 l 561 735 l 888 735 l 613 435 l 924 0 l 574 0 l 418 222 z "},"l":{"ha":453,"x_min":79,"x_max":374,"o":"m 374 0 l 79 0 l 79 1042 l 374 1042 l 374 0 z "},"m":{"ha":1390,"x_min":79,"x_max":1311,"o":"m 1083 760 q 1311 494 1311 760 l 1311 0 l 1017 0 l 1017 392 q 999 479 1017 451 q 936 507 981 507 q 840 440 879 507 l 840 0 l 546 0 l 546 392 q 528 479 546 451 q 465 507 510 507 q 374 447 413 507 l 374 0 l 79 0 l 79 735 l 374 735 l 374 624 q 613 760 444 760 q 831 594 793 760 q 1083 760 899 760 z "},"n":{"ha":932,"x_min":79,"x_max":853,"o":"m 625 760 q 853 494 853 760 l 853 0 l 558 0 l 558 392 q 540 479 558 451 q 478 507 522 507 q 422 488 449 507 q 374 436 394 469 l 374 0 l 79 0 l 79 735 l 374 735 l 374 617 q 625 760 451 760 z "},"o":{"ha":907,"x_min":35,"x_max":872,"o":"m 453 -25 q 242 22 338 -25 q 91 158 147 69 q 35 368 35 247 q 91 578 35 490 q 243 713 147 667 q 454 760 339 760 q 665 713 569 760 q 816 578 760 667 q 872 368 872 490 q 815 158 872 247 q 663 22 758 69 q 453 -25 568 -25 m 453 235 q 528 272 500 235 q 556 368 556 310 q 528 464 556 428 q 453 500 500 500 q 378 464 406 500 q 351 368 351 428 q 378 272 351 308 q 453 235 406 235 z "},"p":{"ha":960,"x_min":79,"x_max":925,"o":"m 597 763 q 765 717 690 763 q 882 583 839 672 q 925 369 925 494 q 883 155 925 243 q 766 22 840 67 q 597 -22 692 -22 q 374 89 451 -22 l 374 -229 l 79 -229 l 79 721 l 351 721 l 351 613 q 447 723 386 683 q 597 763 508 763 m 494 226 q 578 265 549 226 q 608 369 608 303 q 578 475 608 436 q 494 514 549 514 q 407 472 440 514 q 374 369 374 429 q 407 266 374 306 q 494 226 440 226 z "},"q":{"ha":960,"x_min":35,"x_max":881,"o":"m 881 721 l 881 -229 l 585 -229 l 585 89 q 363 -21 507 -21 q 194 24 268 -21 q 77 156 119 68 q 35 371 35 244 q 78 585 35 496 q 195 719 121 674 q 363 764 269 764 q 604 622 529 764 l 610 721 l 881 721 m 465 228 q 553 267 519 228 q 586 371 586 307 q 553 473 586 431 q 465 515 519 515 q 381 476 411 515 q 351 371 351 438 q 381 266 351 304 q 465 228 411 228 z "},"r":{"ha":675,"x_min":79,"x_max":619,"o":"m 374 547 q 468 692 403 636 q 619 747 533 747 l 619 431 q 439 390 504 435 q 374 222 374 346 l 374 0 l 79 0 l 79 735 l 374 735 l 374 547 z "},"s":{"ha":738,"x_min":21,"x_max":708,"o":"m 369 -25 q 167 1 256 -25 q 21 75 78 28 l 107 251 l 133 240 q 247 196 199 211 q 351 181 296 181 q 408 213 408 181 q 389 240 408 232 q 340 254 369 249 q 299 263 310 260 q 116 337 188 285 q 44 507 44 389 q 138 700 44 640 q 376 760 231 760 q 555 736 472 760 q 688 672 638 713 l 599 507 q 486 549 533 536 q 392 563 439 563 q 329 532 329 563 q 349 506 329 514 q 429 485 368 499 q 572 444 515 465 q 668 376 628 424 q 708 249 708 329 q 621 42 708 110 q 369 -25 533 -25 z "},"t":{"ha":674,"x_min":19,"x_max":621,"o":"m 621 -4 q 530 -17 597 -10 q 408 -25 463 -25 q 222 10 283 -25 q 141 103 160 44 q 122 260 122 161 l 122 508 l 19 508 l 19 735 l 122 735 l 122 888 l 417 938 l 417 735 l 594 735 l 594 508 l 417 508 l 417 311 q 435 244 417 263 q 500 226 453 226 q 617 235 569 226 l 621 -4 z "},"u":{"ha":875,"x_min":65,"x_max":810,"o":"m 436 -25 q 160 48 256 -25 q 65 294 65 121 l 65 735 l 360 735 l 360 292 q 378 233 360 256 q 436 211 396 211 q 497 233 478 211 q 515 292 515 256 l 515 735 l 810 735 l 810 294 q 713 48 810 121 q 436 -25 617 -25 z "},"v":{"ha":819,"x_min":-14,"x_max":826,"o":"m 826 735 l 560 0 l 247 0 l -14 735 l 283 735 l 408 296 l 535 735 l 826 735 z "},"w":{"ha":1218,"x_min":-14,"x_max":1225,"o":"m 1225 735 l 979 0 l 715 0 l 585 411 l 469 0 l 206 0 l -14 735 l 281 735 l 375 342 l 481 735 l 733 735 l 847 331 l 954 735 l 1225 735 z "},"x":{"ha":821,"x_min":-21,"x_max":842,"o":"m 578 356 l 828 0 l 510 0 l 388 174 l 269 0 l -21 0 l 242 381 l -7 735 l 311 735 l 436 558 l 551 735 l 842 735 l 578 356 z "},"y":{"ha":799,"x_min":-21,"x_max":819,"o":"m 819 735 l 494 -28 q 192 -262 394 -262 q 53 -247 124 -262 l 69 -28 q 157 -33 113 -33 q 276 13 242 -33 l -21 735 l 276 735 l 413 372 l 542 735 l 819 735 z "},"z":{"ha":721,"x_min":31,"x_max":689,"o":"m 689 206 l 689 0 l 31 0 l 31 206 l 325 529 l 51 529 l 51 735 l 676 735 l 676 529 l 385 206 l 689 206 z "},"{":{"ha":729,"x_min":51,"x_max":678,"o":"m 488 568 q 444 438 488 485 q 322 379 400 390 q 444 325 401 368 q 488 203 488 282 l 488 99 q 504 47 488 63 q 557 31 521 31 l 678 31 l 678 -231 l 376 -231 q 233 -184 283 -231 q 182 -47 182 -137 l 182 168 q 165 229 182 208 q 115 257 149 250 l 51 271 l 51 486 l 115 500 q 165 528 149 507 q 182 589 182 549 l 182 803 q 233 940 182 893 q 376 986 283 986 l 678 986 l 678 725 l 550 725 q 503 709 518 725 q 488 657 488 693 l 488 568 z "},"|":{"ha":500,"x_min":103,"x_max":397,"o":"m 397 -347 l 103 -347 l 103 1250 l 397 1250 l 397 -347 z "},"}":{"ha":726,"x_min":49,"x_max":675,"o":"m 675 486 l 675 271 l 611 257 q 561 229 578 250 q 544 168 544 208 l 544 -47 q 494 -184 544 -137 q 350 -231 443 -231 l 49 -231 l 49 31 l 169 31 q 222 47 206 31 q 239 99 239 63 l 239 203 q 282 325 239 282 q 404 379 325 368 q 283 438 326 390 q 239 568 239 485 l 239 657 q 224 709 239 693 q 176 725 208 725 l 49 725 l 49 986 l 350 986 q 494 940 443 986 q 544 803 544 893 l 544 589 q 561 528 544 549 q 611 500 578 507 l 675 486 z "},"¡":{"ha":471,"x_min":53,"x_max":418,"o":"m 236 760 q 364 717 315 760 q 413 599 413 674 q 363 476 413 524 q 236 429 314 429 q 108 476 157 429 q 58 599 58 524 q 107 717 58 674 q 236 760 156 760 m 314 350 q 336 234 322 285 q 375 104 350 183 q 408 -3 397 39 q 418 -86 418 -44 q 365 -208 418 -161 q 235 -254 313 -254 q 104 -208 156 -254 q 53 -86 53 -162 q 63 -3 53 -44 q 94 103 74 38 q 133 233 119 182 q 156 350 147 285 l 158 372 l 311 372 l 314 350 z "},"¢":{"ha":724,"x_min":35,"x_max":708,"o":"m 708 42 q 627 9 661 21 q 546 -11 593 -3 l 546 -144 l 321 -144 l 321 -8 q 110 124 185 22 q 35 375 35 225 q 110 619 35 522 q 321 747 186 717 l 321 883 l 546 883 l 546 751 q 694 699 640 736 l 636 464 q 489 493 568 493 q 390 461 429 493 q 351 375 351 429 q 390 288 351 319 q 501 256 429 256 q 573 263 543 256 q 646 282 603 269 l 708 42 z "},"£":{"ha":672,"x_min":0,"x_max":676,"o":"m 414 313 q 332 213 393 247 l 671 213 l 671 0 l 0 0 l 0 213 l 22 213 q 144 239 99 213 q 204 313 190 265 l 1 313 l 1 453 l 179 453 q 114 521 154 488 q 29 618 58 572 q 0 738 0 664 q 51 892 0 832 q 181 980 103 953 q 342 1007 260 1007 q 547 967 463 1007 q 676 872 632 928 l 582 700 q 497 766 543 744 q 407 788 450 788 q 324 760 356 788 q 293 683 293 732 q 307 620 293 649 q 350 550 321 592 q 406 453 390 493 l 600 453 l 600 313 l 414 313 z "},"¤":{"ha":907,"x_min":10,"x_max":896,"o":"m 831 368 q 778 178 831 260 l 896 86 l 736 -74 l 639 53 l 649 63 q 453 18 563 18 q 256 64 343 18 l 267 53 l 169 -74 l 10 86 l 129 178 q 76 368 76 260 q 129 561 76 478 l 10 653 l 169 813 l 267 686 l 256 675 q 454 721 343 721 q 649 676 563 721 l 639 686 l 736 813 l 896 653 l 778 561 q 831 368 831 479 m 453 238 q 528 274 500 238 q 556 368 556 310 q 528 465 556 428 q 453 503 500 503 q 378 465 406 503 q 351 368 351 428 q 378 274 351 310 q 453 238 406 238 z "},"¥":{"ha":922,"x_min":-14,"x_max":936,"o":"m 667 465 l 821 465 l 821 367 l 615 367 l 614 364 l 614 260 l 821 260 l 821 161 l 614 161 l 614 0 l 308 0 l 308 161 l 101 161 l 101 260 l 308 260 l 308 361 l 306 367 l 101 367 l 101 465 l 254 465 l -14 986 l 322 986 l 479 664 l 636 986 l 936 986 l 667 465 z "},"¦":{"ha":453,"x_min":79,"x_max":374,"o":"m 374 538 l 79 538 l 79 1250 l 374 1250 l 374 538 m 374 -347 l 79 -347 l 79 367 l 374 367 l 374 -347 z "},"§":{"ha":865,"x_min":8,"x_max":857,"o":"m 747 219 q 857 40 857 154 q 803 -126 857 -58 q 660 -228 750 -194 q 460 -262 569 -262 q 193 -224 308 -262 q 8 -126 78 -186 l 122 64 q 269 -3 193 22 q 417 -28 346 -28 q 500 -12 467 -28 q 533 31 533 3 q 497 70 533 56 q 379 103 461 85 q 209 149 276 125 q 91 224 142 174 q 40 358 40 275 q 144 540 40 476 q 63 704 63 604 q 117 874 63 806 q 257 974 171 942 q 440 1007 343 1007 q 655 978 572 1007 q 796 893 738 950 l 676 719 q 566 772 615 756 q 458 789 517 789 q 393 775 417 789 q 369 733 369 761 q 403 692 369 707 q 515 656 436 678 q 671 606 608 632 q 780 530 733 581 q 826 399 826 479 q 747 219 826 294 m 304 392 q 344 351 304 367 q 472 314 383 335 q 544 297 506 308 q 579 346 579 311 q 541 388 579 371 q 419 426 503 404 l 351 446 q 317 424 331 439 q 304 392 304 410 z "},"¨":{"ha":833,"x_min":69,"x_max":696,"o":"m 208 811 q 108 847 146 811 q 69 944 69 883 q 108 1047 69 1008 q 208 1086 147 1086 q 309 1047 271 1086 q 347 944 347 1008 q 309 847 347 882 q 208 811 271 811 m 557 811 q 456 847 494 811 q 418 944 418 883 q 457 1047 418 1008 q 557 1086 496 1086 q 658 1047 619 1086 q 696 944 696 1008 q 658 847 696 882 q 557 811 619 811 z "},"©":{"ha":1115,"x_min":0,"x_max":1024,"o":"m 511 -21 q 262 41 379 -21 q 72 220 144 103 q 0 493 0 338 q 72 766 0 649 q 262 945 144 883 q 511 1007 379 1007 q 761 945 643 1007 q 951 766 879 883 q 1024 493 1024 649 q 951 220 1024 338 q 761 41 879 103 q 511 -21 643 -21 m 511 35 q 728 88 625 35 q 894 244 831 140 q 958 493 958 347 q 894 742 958 639 q 728 899 831 846 q 511 951 625 951 q 295 899 397 951 q 129 742 193 846 q 65 493 65 639 q 129 244 65 347 q 295 88 193 140 q 511 35 397 35 m 531 186 q 385 222 450 186 q 283 330 321 258 q 246 501 246 401 q 283 674 246 603 q 385 782 321 746 q 531 818 450 818 q 624 805 585 818 q 701 765 664 792 l 682 692 q 618 726 650 715 q 536 736 586 736 q 395 678 454 736 q 336 503 336 619 q 394 327 336 386 q 536 268 451 268 q 630 283 593 268 q 700 331 667 299 l 724 256 q 640 204 685 222 q 531 186 594 186 z "},"«":{"ha":1075,"x_min":51,"x_max":1036,"o":"m 571 735 l 346 368 l 571 0 l 276 0 l 51 368 l 276 735 l 571 735 m 1036 735 l 811 368 l 1036 0 l 742 0 l 517 368 l 742 735 l 1036 735 z "},"¬":{"ha":858,"x_min":69,"x_max":789,"o":"m 789 551 l 789 86 l 571 86 l 571 339 l 69 339 l 69 551 l 789 551 z "},"®":{"ha":1157,"x_min":67,"x_max":1090,"o":"m 578 -21 q 328 41 446 -21 q 139 220 211 103 q 67 493 67 338 q 139 766 67 649 q 328 945 211 883 q 578 1007 446 1007 q 828 945 710 1007 q 1018 766 946 883 q 1090 493 1090 649 q 1018 220 1090 338 q 828 41 946 103 q 578 -21 710 -21 m 578 53 q 786 103 688 53 q 947 253 885 154 q 1008 493 1008 353 q 947 733 1008 633 q 786 883 885 832 q 578 933 688 933 q 370 883 468 933 q 210 733 272 833 q 149 493 149 633 q 210 253 149 353 q 370 103 272 153 q 578 53 468 53 m 582 785 q 735 744 678 785 q 792 615 792 703 q 753 497 792 542 q 646 439 714 453 l 804 203 l 717 203 l 564 433 l 479 433 l 479 203 l 407 203 l 407 785 l 582 785 m 581 493 q 676 522 642 492 q 711 610 711 551 q 676 695 711 667 q 581 724 642 724 l 479 724 l 479 493 l 581 493 z "},"¯":{"ha":833,"x_min":69,"x_max":486,"o":"m 486 819 l 69 819 l 69 986 l 486 986 l 486 819 z "},"°":{"ha":601,"x_min":28,"x_max":572,"o":"m 300 447 q 159 481 221 447 q 63 578 97 515 q 28 722 28 640 q 63 867 28 804 q 159 963 97 929 q 300 997 221 997 q 441 963 379 997 q 538 867 503 929 q 572 722 572 804 q 538 578 572 640 q 441 481 503 515 q 300 447 379 447 m 300 556 q 392 600 357 556 q 426 722 426 644 q 392 844 426 800 q 300 889 357 889 q 209 844 243 889 q 175 722 175 800 q 209 600 175 644 q 300 556 243 556 z "},"±":{"ha":892,"x_min":86,"x_max":806,"o":"m 806 663 l 806 450 l 556 450 l 556 274 l 338 274 l 338 450 l 86 450 l 86 663 l 338 663 l 338 840 l 556 840 l 556 663 l 806 663 m 86 213 l 806 213 l 806 0 l 86 0 l 86 213 z "},"²":{"ha":504,"x_min":28,"x_max":458,"o":"m 458 601 l 458 458 l 43 458 l 43 601 q 143 675 78 628 q 242 752 214 724 q 271 813 271 781 q 260 842 271 831 q 231 853 250 853 q 197 838 208 853 q 174 788 185 824 l 28 832 q 103 958 44 917 q 250 1000 163 1000 q 394 956 339 1000 q 450 831 450 913 q 417 722 450 767 q 343 653 383 678 q 244 601 303 628 l 458 601 z "},"³":{"ha":461,"x_min":10,"x_max":428,"o":"m 307 733 q 428 607 428 714 q 364 488 428 529 q 201 447 300 447 q 89 458 142 447 q 10 483 36 469 l 44 621 q 176 593 133 593 q 217 603 204 593 q 229 628 229 614 q 203 661 229 650 q 136 672 178 672 l 103 672 l 103 779 l 124 779 q 203 790 179 779 q 228 824 228 801 q 215 848 228 839 q 178 857 201 857 q 121 849 156 857 q 60 831 86 842 l 29 964 q 108 990 53 979 q 218 1001 163 1001 q 358 967 307 1001 q 410 864 410 932 q 382 782 410 815 q 307 733 354 749 z "},"´":{"ha":833,"x_min":69,"x_max":492,"o":"m 492 1042 l 292 819 l 69 819 l 228 1042 l 492 1042 z "},"¶":{"ha":1296,"x_min":51,"x_max":1244,"o":"m 471 206 q 260 252 356 206 q 108 386 164 299 q 51 594 51 474 q 108 805 51 717 q 260 940 164 893 q 471 986 356 986 l 1244 986 l 1244 -229 l 950 -229 l 950 739 l 765 739 l 765 -229 l 471 -229 l 471 206 z "},"·":{"ha":560,"x_min":103,"x_max":457,"o":"m 279 339 q 151 382 200 339 q 103 500 103 425 q 152 622 103 575 q 279 669 201 669 q 408 622 358 669 q 457 500 457 575 q 408 382 457 425 q 279 339 360 339 z "},"¸":{"ha":833,"x_min":69,"x_max":485,"o":"m 260 -329 q 160 -315 204 -329 q 69 -269 115 -300 l 129 -176 q 194 -210 168 -200 q 246 -219 219 -219 q 294 -187 294 -219 q 250 -156 294 -156 q 204 -162 235 -156 l 138 -122 l 232 0 l 371 0 l 321 -68 q 342 -67 329 -67 q 447 -100 410 -67 q 485 -193 485 -133 q 424 -293 485 -257 q 260 -329 363 -329 z "},"¹":{"ha":383,"x_min":32,"x_max":307,"o":"m 307 986 l 307 458 l 119 458 l 119 818 l 32 789 l 32 925 l 193 986 l 307 986 z "},"»":{"ha":1075,"x_min":39,"x_max":1024,"o":"m 333 0 l 39 0 l 264 368 l 39 735 l 333 735 l 558 368 l 333 0 m 799 0 l 504 0 l 729 368 l 504 735 l 799 735 l 1024 368 l 799 0 z "},"¼":{"ha":1142,"x_min":32,"x_max":1119,"o":"m 307 986 l 307 458 l 119 458 l 119 818 l 32 789 l 32 925 l 193 986 l 307 986 m 275 0 l 99 0 l 808 1007 l 985 1007 l 275 0 z "},"½":{"ha":1163,"x_min":32,"x_max":1117,"o":"m 307 986 l 307 458 l 119 458 l 119 818 l 32 789 l 32 925 l 193 986 l 307 986 m 275 0 l 99 0 l 808 1007 l 985 1007 l 275 0 z "},"¾":{"ha":1206,"x_min":10,"x_max":1183,"o":"m 307 733 q 428 607 428 714 q 364 488 428 529 q 201 447 300 447 q 89 458 142 447 q 10 483 36 469 l 44 621 q 176 593 133 593 q 217 603 204 593 q 229 628 229 614 q 203 661 229 650 q 136 672 178 672 l 103 672 l 103 779 l 124 779 q 203 790 179 779 q 228 824 228 801 q 215 848 228 839 q 178 857 201 857 q 121 849 156 857 q 60 831 86 842 l 29 964 q 108 990 53 979 q 218 1001 163 1001 q 358 967 307 1001 q 410 864 410 932 q 382 782 410 815 q 307 733 354 749 m 339 0 l 163 0 l 872 1007 l 1049 1007 l 339 0 z "},"¿":{"ha":672,"x_min":0,"x_max":676,"o":"m 365 760 q 493 717 444 760 q 542 599 542 674 q 492 476 542 524 q 365 429 443 429 q 237 476 286 429 q 188 599 188 524 q 236 717 188 674 q 365 760 285 760 m 479 397 q 468 279 483 328 q 430 202 453 231 q 371 139 407 174 q 322 87 338 108 q 307 36 307 65 q 330 -15 307 3 q 396 -32 353 -32 q 490 -10 442 -32 q 582 49 539 13 l 676 -124 q 546 -222 631 -181 q 342 -262 461 -262 q 101 -207 203 -262 q 0 -17 0 -151 q 18 86 0 44 q 63 154 36 128 q 132 213 89 181 q 219 294 189 256 q 253 397 249 332 l 479 397 z "},"À":{"ha":1033,"x_min":0,"x_max":1033,"o":"m 642 175 l 351 175 l 297 0 l 0 0 l 344 986 l 690 986 l 1033 0 l 694 0 l 642 175 m 583 363 l 496 650 l 408 363 l 583 363 m 428 1267 l 628 1067 l 406 1067 l 164 1267 l 428 1267 z "},"Á":{"ha":1033,"x_min":0,"x_max":1033,"o":"m 642 175 l 351 175 l 297 0 l 0 0 l 344 986 l 690 986 l 1033 0 l 694 0 l 642 175 m 583 363 l 496 650 l 408 363 l 583 363 m 628 1067 l 406 1067 l 606 1267 l 869 1267 l 628 1067 z "},"Â":{"ha":1033,"x_min":0,"x_max":1033,"o":"m 642 175 l 351 175 l 297 0 l 0 0 l 344 986 l 690 986 l 1033 0 l 694 0 l 642 175 m 583 363 l 496 650 l 408 363 l 583 363 m 592 1067 l 517 1164 l 442 1067 l 217 1067 l 406 1267 l 628 1267 l 817 1067 l 592 1067 z "},"Ã":{"ha":1033,"x_min":0,"x_max":1033,"o":"m 642 175 l 351 175 l 297 0 l 0 0 l 344 986 l 690 986 l 1033 0 l 694 0 l 642 175 m 583 363 l 496 650 l 408 363 l 583 363 m 635 1057 q 572 1064 603 1057 q 516 1078 542 1071 q 483 1089 490 1086 q 396 1111 422 1111 q 363 1101 374 1111 q 350 1067 353 1090 l 231 1067 q 275 1221 233 1165 q 397 1276 317 1276 q 463 1268 431 1276 q 546 1243 496 1260 q 596 1228 571 1235 q 636 1221 621 1221 q 682 1267 675 1221 l 801 1267 q 757 1112 799 1167 q 635 1057 715 1057 z "},"Ä":{"ha":1033,"x_min":0,"x_max":1033,"o":"m 642 175 l 351 175 l 297 0 l 0 0 l 344 986 l 690 986 l 1033 0 l 694 0 l 642 175 m 583 363 l 496 650 l 408 363 l 583 363 m 356 1056 q 267 1087 300 1056 q 235 1175 235 1118 q 268 1265 235 1231 q 356 1299 301 1299 q 445 1265 411 1299 q 479 1175 479 1232 q 446 1087 479 1118 q 356 1056 413 1056 m 679 1056 q 590 1087 624 1056 q 556 1175 556 1118 q 590 1265 556 1231 q 679 1299 624 1299 q 767 1265 733 1299 q 800 1175 800 1231 q 767 1087 800 1118 q 679 1056 735 1056 z "},"Å":{"ha":1033,"x_min":0,"x_max":1033,"o":"m 642 175 l 351 175 l 297 0 l 0 0 l 344 986 l 690 986 l 1033 0 l 694 0 l 642 175 m 583 363 l 496 650 l 408 363 l 583 363 m 517 1069 q 405 1106 446 1069 q 364 1207 364 1143 q 405 1313 364 1274 q 517 1351 446 1351 q 628 1313 588 1351 q 669 1207 669 1274 q 628 1106 669 1143 q 517 1069 588 1069 m 517 1146 q 568 1163 549 1146 q 588 1208 588 1179 q 568 1257 588 1239 q 517 1275 549 1275 q 465 1257 485 1275 q 446 1208 446 1239 q 465 1163 446 1179 q 517 1146 485 1146 z "},"Æ":{"ha":1376,"x_min":0,"x_max":1296,"o":"m 981 731 l 981 617 l 1251 617 l 1251 392 l 981 392 l 981 256 l 1296 256 l 1296 0 l 675 0 l 675 175 l 386 175 l 297 0 l 0 0 l 501 986 l 1296 986 l 1296 731 l 981 731 m 675 363 l 675 744 l 482 363 l 675 363 z "},"Ç":{"ha":885,"x_min":51,"x_max":839,"o":"m 578 -67 q 683 -100 646 -67 q 721 -193 721 -133 q 660 -293 721 -257 q 496 -329 599 -329 q 396 -315 440 -329 q 306 -269 351 -300 l 365 -176 q 430 -210 404 -200 q 482 -219 456 -219 q 531 -187 531 -219 q 486 -156 531 -156 q 440 -162 471 -156 l 374 -122 l 454 -17 q 156 147 261 13 q 51 493 51 282 q 113 766 51 649 q 288 947 174 883 q 560 1011 403 1011 q 825 949 692 1011 l 774 672 q 596 713 688 713 q 438 654 501 713 q 375 493 375 596 q 433 331 375 388 q 597 274 490 274 q 692 284 656 274 q 786 317 729 294 l 839 42 q 721 -3 778 14 q 589 -25 664 -21 l 557 -68 q 578 -67 565 -67 z "},"È":{"ha":804,"x_min":63,"x_max":724,"o":"m 408 731 l 408 617 l 679 617 l 679 392 l 408 392 l 408 256 l 724 256 l 724 0 l 103 0 l 103 986 l 724 986 l 724 731 l 408 731 m 326 1267 l 526 1067 l 304 1067 l 63 1267 l 326 1267 z "},"É":{"ha":804,"x_min":103,"x_max":768,"o":"m 408 731 l 408 617 l 679 617 l 679 392 l 408 392 l 408 256 l 724 256 l 724 0 l 103 0 l 103 986 l 724 986 l 724 731 l 408 731 m 526 1067 l 304 1067 l 504 1267 l 768 1267 l 526 1067 z "},"Ê":{"ha":804,"x_min":103,"x_max":724,"o":"m 408 731 l 408 617 l 679 617 l 679 392 l 408 392 l 408 256 l 724 256 l 724 0 l 103 0 l 103 986 l 724 986 l 724 731 l 408 731 m 490 1067 l 415 1164 l 340 1067 l 115 1067 l 304 1267 l 526 1267 l 715 1067 l 490 1067 z "},"Ë":{"ha":804,"x_min":103,"x_max":724,"o":"m 408 731 l 408 617 l 679 617 l 679 392 l 408 392 l 408 256 l 724 256 l 724 0 l 103 0 l 103 986 l 724 986 l 724 731 l 408 731 m 254 1056 q 166 1087 199 1056 q 133 1175 133 1118 q 167 1265 133 1231 q 254 1299 200 1299 q 344 1265 310 1299 q 378 1175 378 1232 q 344 1087 378 1118 q 254 1056 311 1056 m 578 1056 q 488 1087 522 1056 q 454 1175 454 1118 q 488 1265 454 1231 q 578 1299 522 1299 q 665 1265 632 1299 q 699 1175 699 1231 q 666 1087 699 1118 q 578 1056 633 1056 z "},"Ì":{"ha":511,"x_min":-97,"x_max":408,"o":"m 408 0 l 103 0 l 103 986 l 408 986 l 408 0 m 167 1267 l 367 1067 l 144 1067 l -97 1267 l 167 1267 z "},"Í":{"ha":511,"x_min":103,"x_max":608,"o":"m 408 0 l 103 0 l 103 986 l 408 986 l 408 0 m 367 1067 l 144 1067 l 344 1267 l 608 1267 l 367 1067 z "},"Î":{"ha":511,"x_min":-44,"x_max":556,"o":"m 408 0 l 103 0 l 103 986 l 408 986 l 408 0 m 331 1067 l 256 1164 l 181 1067 l -44 1067 l 144 1267 l 367 1267 l 556 1067 l 331 1067 z "},"Ï":{"ha":511,"x_min":-26,"x_max":539,"o":"m 408 0 l 103 0 l 103 986 l 408 986 l 408 0 m 94 1056 q 6 1087 39 1056 q -26 1175 -26 1118 q 7 1265 -26 1231 q 94 1299 40 1299 q 184 1265 150 1299 q 218 1175 218 1232 q 185 1087 218 1118 q 94 1056 151 1056 m 418 1056 q 328 1087 363 1056 q 294 1175 294 1118 q 328 1265 294 1231 q 418 1299 363 1299 q 506 1265 472 1299 q 539 1175 539 1231 q 506 1087 539 1118 q 418 1056 474 1056 z "},"Ð":{"ha":1063,"x_min":0,"x_max":1011,"o":"m 499 986 q 875 865 739 986 q 1011 493 1011 743 q 875 122 1011 243 q 499 0 739 0 l 103 0 l 103 393 l 0 393 l 0 590 l 103 590 l 103 986 l 499 986 m 499 261 q 638 319 586 261 q 689 493 689 378 q 638 667 689 608 q 499 725 586 725 l 408 725 l 408 590 l 550 590 l 550 393 l 408 393 l 408 261 l 499 261 z "},"Ñ":{"ha":1065,"x_min":103,"x_max":963,"o":"m 963 986 l 963 0 l 661 0 l 367 501 l 367 0 l 103 0 l 103 986 l 417 986 l 699 554 l 699 986 l 963 986 m 651 1057 q 589 1064 619 1057 q 533 1078 558 1071 q 500 1089 507 1086 q 413 1111 439 1111 q 380 1101 390 1111 q 367 1067 369 1090 l 247 1067 q 292 1221 250 1165 q 414 1276 333 1276 q 480 1268 447 1276 q 563 1243 513 1260 q 613 1228 588 1235 q 653 1221 638 1221 q 699 1267 692 1221 l 818 1267 q 774 1112 815 1167 q 651 1057 732 1057 z "},"Ò":{"ha":1113,"x_min":51,"x_max":1061,"o":"m 556 -25 q 301 40 417 -25 q 119 222 186 104 q 51 493 51 340 q 119 764 51 646 q 301 947 186 882 q 556 1011 417 1011 q 810 947 694 1011 q 994 764 926 882 q 1061 493 1061 646 q 994 222 1061 340 q 810 40 926 104 q 556 -25 694 -25 m 556 261 q 686 320 633 261 q 739 493 739 379 q 686 666 739 607 q 556 725 633 725 q 426 666 478 725 q 375 493 375 607 q 426 320 375 379 q 556 261 478 261 m 468 1267 l 668 1067 l 446 1067 l 204 1267 l 468 1267 z "},"Ó":{"ha":1113,"x_min":51,"x_max":1061,"o":"m 556 -25 q 301 40 417 -25 q 119 222 186 104 q 51 493 51 340 q 119 764 51 646 q 301 947 186 882 q 556 1011 417 1011 q 810 947 694 1011 q 994 764 926 882 q 1061 493 1061 646 q 994 222 1061 340 q 810 40 926 104 q 556 -25 694 -25 m 556 261 q 686 320 633 261 q 739 493 739 379 q 686 666 739 607 q 556 725 633 725 q 426 666 478 725 q 375 493 375 607 q 426 320 375 379 q 556 261 478 261 m 668 1067 l 446 1067 l 646 1267 l 910 1267 l 668 1067 z "},"Ô":{"ha":1113,"x_min":51,"x_max":1061,"o":"m 556 -25 q 301 40 417 -25 q 119 222 186 104 q 51 493 51 340 q 119 764 51 646 q 301 947 186 882 q 556 1011 417 1011 q 810 947 694 1011 q 994 764 926 882 q 1061 493 1061 646 q 994 222 1061 340 q 810 40 926 104 q 556 -25 694 -25 m 556 261 q 686 320 633 261 q 739 493 739 379 q 686 666 739 607 q 556 725 633 725 q 426 666 478 725 q 375 493 375 607 q 426 320 375 379 q 556 261 478 261 m 632 1067 l 557 1164 l 482 1067 l 257 1067 l 446 1267 l 668 1267 l 857 1067 l 632 1067 z "},"Õ":{"ha":1113,"x_min":51,"x_max":1061,"o":"m 556 -25 q 301 40 417 -25 q 119 222 186 104 q 51 493 51 340 q 119 764 51 646 q 301 947 186 882 q 556 1011 417 1011 q 810 947 694 1011 q 994 764 926 882 q 1061 493 1061 646 q 994 222 1061 340 q 810 40 926 104 q 556 -25 694 -25 m 556 261 q 686 320 633 261 q 739 493 739 379 q 686 666 739 607 q 556 725 633 725 q 426 666 478 725 q 375 493 375 607 q 426 320 375 379 q 556 261 478 261 m 675 1057 q 613 1064 643 1057 q 556 1078 582 1071 q 524 1089 531 1086 q 436 1111 463 1111 q 403 1101 414 1111 q 390 1067 393 1090 l 271 1067 q 315 1221 274 1165 q 438 1276 357 1276 q 503 1268 471 1276 q 586 1243 536 1260 q 636 1228 611 1235 q 676 1221 661 1221 q 722 1267 715 1221 l 842 1267 q 797 1112 839 1167 q 675 1057 756 1057 z "},"Ö":{"ha":1113,"x_min":51,"x_max":1061,"o":"m 556 -25 q 301 40 417 -25 q 119 222 186 104 q 51 493 51 340 q 119 764 51 646 q 301 947 186 882 q 556 1011 417 1011 q 810 947 694 1011 q 994 764 926 882 q 1061 493 1061 646 q 994 222 1061 340 q 810 40 926 104 q 556 -25 694 -25 m 556 261 q 686 320 633 261 q 739 493 739 379 q 686 666 739 607 q 556 725 633 725 q 426 666 478 725 q 375 493 375 607 q 426 320 375 379 q 556 261 478 261 m 396 1056 q 308 1087 340 1056 q 275 1175 275 1118 q 308 1265 275 1231 q 396 1299 342 1299 q 485 1265 451 1299 q 519 1175 519 1232 q 486 1087 519 1118 q 396 1056 453 1056 m 719 1056 q 630 1087 664 1056 q 596 1175 596 1118 q 630 1265 596 1231 q 719 1299 664 1299 q 807 1265 774 1299 q 840 1175 840 1231 q 808 1087 840 1118 q 719 1056 775 1056 z "},"×":{"ha":828,"x_min":83,"x_max":744,"o":"m 565 446 l 743 267 l 593 115 l 414 294 l 235 115 l 85 267 l 264 446 l 83 625 l 235 775 l 414 596 l 593 775 l 744 625 l 565 446 z "},"Ø":{"ha":1113,"x_min":51,"x_max":1061,"o":"m 968 803 q 1061 493 1061 672 q 994 224 1061 340 q 811 43 926 107 q 556 -21 696 -21 q 393 3 471 -21 q 253 74 315 28 l 160 -21 l 51 88 l 144 182 q 51 493 51 315 q 119 763 51 646 q 301 943 186 879 q 556 1007 415 1007 q 718 983 640 1007 q 860 913 796 958 l 953 1007 l 1061 899 l 968 803 m 357 493 q 365 408 357 446 l 665 714 q 556 747 617 747 q 413 683 469 747 q 357 493 357 618 m 757 493 q 749 579 757 542 l 447 272 q 556 239 496 239 q 699 303 642 239 q 757 493 757 368 z "},"Ù":{"ha":1026,"x_min":92,"x_max":935,"o":"m 511 -25 q 208 67 325 -25 q 92 346 92 158 l 92 986 l 397 986 l 397 400 q 422 290 396 328 q 511 253 449 253 q 601 290 574 253 q 629 400 629 328 l 629 986 l 935 986 l 935 346 q 818 67 935 158 q 511 -25 701 -25 m 425 1267 l 625 1067 l 403 1067 l 161 1267 l 425 1267 z "},"Ú":{"ha":1026,"x_min":92,"x_max":935,"o":"m 511 -25 q 208 67 325 -25 q 92 346 92 158 l 92 986 l 397 986 l 397 400 q 422 290 396 328 q 511 253 449 253 q 601 290 574 253 q 629 400 629 328 l 629 986 l 935 986 l 935 346 q 818 67 935 158 q 511 -25 701 -25 m 625 1067 l 403 1067 l 603 1267 l 867 1267 l 625 1067 z "},"Û":{"ha":1026,"x_min":92,"x_max":935,"o":"m 511 -25 q 208 67 325 -25 q 92 346 92 158 l 92 986 l 397 986 l 397 400 q 422 290 396 328 q 511 253 449 253 q 601 290 574 253 q 629 400 629 328 l 629 986 l 935 986 l 935 346 q 818 67 935 158 q 511 -25 701 -25 m 589 1067 l 514 1164 l 439 1067 l 214 1067 l 403 1267 l 625 1267 l 814 1067 l 589 1067 z "},"Ü":{"ha":1026,"x_min":92,"x_max":935,"o":"m 511 -25 q 208 67 325 -25 q 92 346 92 158 l 92 986 l 397 986 l 397 400 q 422 290 396 328 q 511 253 449 253 q 601 290 574 253 q 629 400 629 328 l 629 986 l 935 986 l 935 346 q 818 67 935 158 q 511 -25 701 -25 m 353 1056 q 265 1087 297 1056 q 232 1175 232 1118 q 265 1265 232 1231 q 353 1299 299 1299 q 442 1265 408 1299 q 476 1175 476 1232 q 443 1087 476 1118 q 353 1056 410 1056 m 676 1056 q 587 1087 621 1056 q 553 1175 553 1118 q 587 1265 553 1231 q 676 1299 621 1299 q 764 1265 731 1299 q 797 1175 797 1231 q 765 1087 797 1118 q 676 1056 732 1056 z "},"Ý":{"ha":915,"x_min":-21,"x_max":929,"o":"m 607 364 l 607 0 l 301 0 l 301 361 l -21 986 l 315 986 l 472 664 l 629 986 l 929 986 l 607 364 m 569 1067 l 347 1067 l 547 1267 l 811 1267 l 569 1067 z "},"Þ":{"ha":967,"x_min":103,"x_max":939,"o":"m 543 874 q 838 784 736 874 q 939 525 939 694 q 894 322 939 410 q 759 183 849 233 q 543 133 669 133 l 408 133 l 408 0 l 103 0 l 103 986 l 408 986 l 408 874 l 543 874 m 474 365 q 583 403 547 365 q 618 500 618 440 q 583 588 618 557 q 474 618 547 618 l 408 618 l 408 365 l 474 365 z "},"ß":{"ha":929,"x_min":78,"x_max":894,"o":"m 718 572 q 850 473 806 542 q 894 313 894 404 q 517 -12 894 -12 q 460 -8 497 -12 l 460 249 q 489 246 468 246 q 566 271 538 246 q 594 339 594 296 q 566 407 594 383 q 489 431 538 431 l 460 431 l 458 668 l 467 668 q 517 687 499 668 q 536 739 536 706 q 518 791 536 772 q 469 810 500 810 q 399 769 426 810 q 372 658 372 728 l 372 0 l 78 0 l 78 622 q 180 951 78 836 q 483 1067 282 1067 q 665 1028 586 1067 q 785 921 743 989 q 828 768 828 853 q 798 656 828 708 q 718 572 768 604 z "},"à":{"ha":860,"x_min":35,"x_max":794,"o":"m 506 0 q 486 81 490 38 q 390 3 450 32 q 267 -25 331 -25 q 98 33 161 -25 q 35 194 35 92 q 140 384 35 324 q 485 446 244 444 l 485 457 q 456 514 485 497 q 371 531 426 531 q 174 482 263 531 l 79 665 q 433 760 200 760 q 684 694 589 760 q 779 453 779 629 l 779 99 q 794 0 779 32 l 506 0 m 408 183 q 485 217 447 183 l 485 325 q 379 300 410 321 q 349 240 349 279 q 365 199 349 214 q 408 183 381 183 m 542 819 l 319 819 l 119 1042 l 383 1042 l 542 819 z "},"á":{"ha":860,"x_min":35,"x_max":794,"o":"m 506 0 q 486 81 490 38 q 390 3 450 32 q 267 -25 331 -25 q 98 33 161 -25 q 35 194 35 92 q 140 384 35 324 q 485 446 244 444 l 485 457 q 456 514 485 497 q 371 531 426 531 q 174 482 263 531 l 79 665 q 433 760 200 760 q 684 694 589 760 q 779 453 779 629 l 779 99 q 794 0 779 32 l 506 0 m 408 183 q 485 217 447 183 l 485 325 q 379 300 410 321 q 349 240 349 279 q 365 199 349 214 q 408 183 381 183 m 742 1042 l 542 819 l 319 819 l 478 1042 l 742 1042 z "},"â":{"ha":860,"x_min":35,"x_max":794,"o":"m 506 0 q 486 81 490 38 q 390 3 450 32 q 267 -25 331 -25 q 98 33 161 -25 q 35 194 35 92 q 140 384 35 324 q 485 446 244 444 l 485 457 q 456 514 485 497 q 371 531 426 531 q 174 482 263 531 l 79 665 q 433 760 200 760 q 684 694 589 760 q 779 453 779 629 l 779 99 q 794 0 779 32 l 506 0 m 408 183 q 485 217 447 183 l 485 325 q 379 300 410 321 q 349 240 349 279 q 365 199 349 214 q 408 183 381 183 m 504 819 l 431 914 l 357 819 l 135 819 l 293 1042 l 568 1042 l 726 819 l 504 819 z "},"ã":{"ha":860,"x_min":35,"x_max":794,"o":"m 506 0 q 486 81 490 38 q 390 3 450 32 q 267 -25 331 -25 q 98 33 161 -25 q 35 194 35 92 q 140 384 35 324 q 485 446 244 444 l 485 457 q 456 514 485 497 q 371 531 426 531 q 174 482 263 531 l 79 665 q 433 760 200 760 q 684 694 589 760 q 779 453 779 629 l 779 99 q 794 0 779 32 l 506 0 m 408 183 q 485 217 447 183 l 485 325 q 379 300 410 321 q 349 240 349 279 q 365 199 349 214 q 408 183 381 183 m 550 819 q 481 828 515 819 q 399 853 447 836 q 311 875 338 875 q 278 864 289 875 q 265 829 268 853 l 146 829 q 190 986 149 931 q 313 1042 232 1042 q 378 1033 346 1042 q 461 1008 411 1025 q 511 993 486 1000 q 551 986 536 986 q 597 1032 590 986 l 717 1032 q 672 875 714 931 q 550 819 631 819 z "},"ä":{"ha":860,"x_min":35,"x_max":794,"o":"m 506 0 q 486 81 490 38 q 390 3 450 32 q 267 -25 331 -25 q 98 33 161 -25 q 35 194 35 92 q 140 384 35 324 q 485 446 244 444 l 485 457 q 456 514 485 497 q 371 531 426 531 q 174 482 263 531 l 79 665 q 433 760 200 760 q 684 694 589 760 q 779 453 779 629 l 779 99 q 794 0 779 32 l 506 0 m 408 183 q 485 217 447 183 l 485 325 q 379 300 410 321 q 349 240 349 279 q 365 199 349 214 q 408 183 381 183 m 256 811 q 155 847 193 811 q 117 944 117 883 q 156 1047 117 1008 q 256 1086 194 1086 q 356 1047 318 1086 q 394 944 394 1008 q 356 847 394 882 q 256 811 318 811 m 604 811 q 503 847 542 811 q 465 944 465 883 q 504 1047 465 1008 q 604 1086 543 1086 q 705 1047 667 1086 q 743 944 743 1008 q 705 847 743 882 q 604 811 667 811 z "},"å":{"ha":860,"x_min":35,"x_max":794,"o":"m 506 0 q 486 81 490 38 q 390 3 450 32 q 267 -25 331 -25 q 98 33 161 -25 q 35 194 35 92 q 140 384 35 324 q 485 446 244 444 l 485 457 q 456 514 485 497 q 371 531 426 531 q 174 482 263 531 l 79 665 q 433 760 200 760 q 684 694 589 760 q 779 453 779 629 l 779 99 q 794 0 779 32 l 506 0 m 408 183 q 485 217 447 183 l 485 325 q 379 300 410 321 q 349 240 349 279 q 365 199 349 214 q 408 183 381 183 m 431 819 q 305 861 351 819 q 258 974 258 903 q 305 1092 258 1049 q 431 1136 351 1136 q 556 1092 510 1136 q 603 974 603 1049 q 556 861 603 903 q 431 819 510 819 m 431 915 q 481 932 463 915 q 499 976 499 949 q 480 1023 499 1006 q 431 1040 461 1040 q 381 1023 400 1040 q 363 976 363 1006 q 381 932 363 949 q 431 915 399 915 z "},"æ":{"ha":1301,"x_min":35,"x_max":1264,"o":"m 1264 315 l 803 315 q 871 243 824 261 q 990 225 918 225 q 1164 253 1086 225 l 1229 31 q 1099 -8 1169 3 q 938 -19 1028 -19 q 563 115 676 -19 q 439 14 517 49 q 267 -21 361 -21 q 98 35 161 -21 q 35 194 35 92 q 140 384 35 324 q 485 446 244 444 l 485 457 q 456 514 485 497 q 371 531 426 531 q 174 482 263 531 l 79 665 q 433 761 201 761 q 671 704 588 761 q 889 760 767 760 q 1163 669 1063 760 q 1264 414 1264 578 l 1264 315 m 886 546 q 828 520 851 546 q 796 444 804 494 l 971 444 q 886 546 958 546 m 417 183 q 506 219 472 183 q 486 325 490 263 q 379 300 410 321 q 349 240 349 279 q 366 199 349 214 q 417 183 383 183 z "},"ç":{"ha":733,"x_min":35,"x_max":708,"o":"m 442 -69 q 547 -103 510 -69 q 585 -196 585 -136 q 524 -296 585 -260 q 360 -332 463 -332 q 260 -317 304 -332 q 169 -272 215 -303 l 229 -179 q 294 -212 268 -203 q 346 -222 319 -222 q 394 -190 394 -222 q 350 -158 394 -158 q 304 -165 335 -158 l 238 -125 l 324 -14 q 110 117 186 17 q 35 368 35 217 q 84 575 35 486 q 224 712 133 664 q 439 760 315 760 q 590 742 522 760 q 694 699 657 724 l 636 458 q 489 488 568 488 q 390 455 429 488 q 351 368 351 422 q 390 281 351 313 q 501 249 429 249 q 573 256 543 249 q 646 275 603 263 l 708 40 q 658 18 699 36 q 564 -12 617 0 q 454 -25 511 -24 l 421 -71 q 442 -69 429 -69 z "},"è":{"ha":851,"x_min":35,"x_max":814,"o":"m 814 315 l 353 315 q 420 242 374 260 q 536 225 467 225 q 714 253 631 225 l 779 31 q 485 -25 660 -25 q 151 76 268 -25 q 35 360 35 178 q 87 573 35 482 q 231 712 139 664 q 443 760 324 760 q 638 719 554 760 q 767 600 721 678 q 814 414 814 522 l 814 315 m 436 546 q 378 519 401 546 q 346 444 354 493 l 521 444 q 493 521 515 496 q 436 546 471 546 m 551 819 l 329 819 l 129 1042 l 393 1042 l 551 819 z "},"é":{"ha":851,"x_min":35,"x_max":814,"o":"m 814 315 l 353 315 q 420 242 374 260 q 536 225 467 225 q 714 253 631 225 l 779 31 q 485 -25 660 -25 q 151 76 268 -25 q 35 360 35 178 q 87 573 35 482 q 231 712 139 664 q 443 760 324 760 q 638 719 554 760 q 767 600 721 678 q 814 414 814 522 l 814 315 m 436 546 q 378 519 401 546 q 346 444 354 493 l 521 444 q 493 521 515 496 q 436 546 471 546 m 751 1042 l 551 819 l 329 819 l 488 1042 l 751 1042 z "},"ê":{"ha":851,"x_min":35,"x_max":814,"o":"m 814 315 l 353 315 q 420 242 374 260 q 536 225 467 225 q 714 253 631 225 l 779 31 q 485 -25 660 -25 q 151 76 268 -25 q 35 360 35 178 q 87 573 35 482 q 231 712 139 664 q 443 760 324 760 q 638 719 554 760 q 767 600 721 678 q 814 414 814 522 l 814 315 m 436 546 q 378 519 401 546 q 346 444 354 493 l 521 444 q 493 521 515 496 q 436 546 471 546 m 514 819 l 440 914 l 367 819 l 144 819 l 303 1042 l 578 1042 l 736 819 l 514 819 z "},"ë":{"ha":851,"x_min":35,"x_max":814,"o":"m 814 315 l 353 315 q 420 242 374 260 q 536 225 467 225 q 714 253 631 225 l 779 31 q 485 -25 660 -25 q 151 76 268 -25 q 35 360 35 178 q 87 573 35 482 q 231 712 139 664 q 443 760 324 760 q 638 719 554 760 q 767 600 721 678 q 814 414 814 522 l 814 315 m 436 546 q 378 519 401 546 q 346 444 354 493 l 521 444 q 493 521 515 496 q 436 546 471 546 m 265 811 q 165 847 203 811 q 126 944 126 883 q 165 1047 126 1008 q 265 1086 204 1086 q 366 1047 328 1086 q 404 944 404 1008 q 366 847 404 882 q 265 811 328 811 m 614 811 q 513 847 551 811 q 475 944 475 883 q 514 1047 475 1008 q 614 1086 553 1086 q 715 1047 676 1086 q 753 944 753 1008 q 715 847 753 882 q 614 811 676 811 z "},"ì":{"ha":503,"x_min":-60,"x_max":399,"o":"m 399 0 l 104 0 l 104 735 l 399 735 l 399 0 m 363 819 l 140 819 l -60 1042 l 204 1042 l 363 819 z "},"í":{"ha":503,"x_min":104,"x_max":563,"o":"m 399 0 l 104 0 l 104 735 l 399 735 l 399 0 m 563 1042 l 363 819 l 140 819 l 299 1042 l 563 1042 z "},"î":{"ha":503,"x_min":-44,"x_max":547,"o":"m 399 0 l 104 0 l 104 735 l 399 735 l 399 0 m 325 819 l 251 914 l 178 819 l -44 819 l 114 1042 l 389 1042 l 547 819 l 325 819 z "},"ï":{"ha":503,"x_min":-62,"x_max":564,"o":"m 399 0 l 104 0 l 104 735 l 399 735 l 399 0 m 76 811 q -24 847 14 811 q -62 944 -62 883 q -24 1047 -62 1008 q 76 1086 15 1086 q 177 1047 139 1086 q 215 944 215 1008 q 177 847 215 882 q 76 811 139 811 m 425 811 q 324 847 363 811 q 286 944 286 883 q 325 1047 286 1008 q 425 1086 364 1086 q 526 1047 488 1086 q 564 944 564 1008 q 526 847 564 882 q 425 811 488 811 z "},"ð":{"ha":907,"x_min":35,"x_max":865,"o":"m 574 983 q 791 747 717 888 q 865 424 865 606 q 815 188 865 288 q 672 33 765 88 q 453 -21 578 -21 q 242 22 338 -21 q 91 150 147 65 q 35 354 35 235 q 88 549 35 472 q 221 662 142 626 q 379 697 300 697 q 497 675 449 697 q 363 835 450 775 l 186 711 l 121 804 l 250 894 q 126 929 188 918 l 160 1133 q 463 1044 326 1107 l 590 1133 l 656 1040 l 574 983 m 453 238 q 528 274 500 238 q 556 368 556 310 q 528 456 556 424 q 453 489 500 489 q 378 451 406 489 q 351 354 351 414 q 378 267 351 297 q 453 238 404 238 z "},"ñ":{"ha":932,"x_min":79,"x_max":853,"o":"m 625 760 q 853 494 853 760 l 853 0 l 558 0 l 558 392 q 540 479 558 451 q 478 507 522 507 q 422 488 449 507 q 374 436 394 469 l 374 0 l 79 0 l 79 735 l 374 735 l 374 617 q 625 760 451 760 m 582 819 q 513 828 547 819 q 431 853 479 836 q 343 875 369 875 q 310 864 321 875 q 297 829 300 853 l 178 829 q 222 986 181 931 q 344 1042 264 1042 q 410 1033 378 1042 q 493 1008 443 1025 q 543 993 518 1000 q 583 986 568 986 q 629 1032 622 986 l 749 1032 q 704 875 746 931 q 582 819 663 819 z "},"ò":{"ha":907,"x_min":35,"x_max":872,"o":"m 453 -25 q 242 22 338 -25 q 91 158 147 69 q 35 368 35 247 q 91 578 35 490 q 243 713 147 667 q 454 760 339 760 q 665 713 569 760 q 816 578 760 667 q 872 368 872 490 q 815 158 872 247 q 663 22 758 69 q 453 -25 568 -25 m 453 235 q 528 272 500 235 q 556 368 556 310 q 528 464 556 428 q 453 500 500 500 q 378 464 406 500 q 351 368 351 428 q 378 272 351 308 q 453 235 406 235 m 565 819 l 343 819 l 143 1042 l 407 1042 l 565 819 z "},"ó":{"ha":907,"x_min":35,"x_max":872,"o":"m 453 -25 q 242 22 338 -25 q 91 158 147 69 q 35 368 35 247 q 91 578 35 490 q 243 713 147 667 q 454 760 339 760 q 665 713 569 760 q 816 578 760 667 q 872 368 872 490 q 815 158 872 247 q 663 22 758 69 q 453 -25 568 -25 m 453 235 q 528 272 500 235 q 556 368 556 310 q 528 464 556 428 q 453 500 500 500 q 378 464 406 500 q 351 368 351 428 q 378 272 351 308 q 453 235 406 235 m 765 1042 l 565 819 l 343 819 l 501 1042 l 765 1042 z "},"ô":{"ha":907,"x_min":35,"x_max":872,"o":"m 453 -25 q 242 22 338 -25 q 91 158 147 69 q 35 368 35 247 q 91 578 35 490 q 243 713 147 667 q 454 760 339 760 q 665 713 569 760 q 816 578 760 667 q 872 368 872 490 q 815 158 872 247 q 663 22 758 69 q 453 -25 568 -25 m 453 235 q 528 272 500 235 q 556 368 556 310 q 528 464 556 428 q 453 500 500 500 q 378 464 406 500 q 351 368 351 428 q 378 272 351 308 q 453 235 406 235 m 528 819 l 454 914 l 381 819 l 158 819 l 317 1042 l 592 1042 l 750 819 l 528 819 z "},"õ":{"ha":907,"x_min":35,"x_max":872,"o":"m 453 -25 q 242 22 338 -25 q 91 158 147 69 q 35 368 35 247 q 91 578 35 490 q 243 713 147 667 q 454 760 339 760 q 665 713 569 760 q 816 578 760 667 q 872 368 872 490 q 815 158 872 247 q 663 22 758 69 q 453 -25 568 -25 m 453 235 q 528 272 500 235 q 556 368 556 310 q 528 464 556 428 q 453 500 500 500 q 378 464 406 500 q 351 368 351 428 q 378 272 351 308 q 453 235 406 235 m 574 819 q 505 828 539 819 q 422 853 471 836 q 335 875 361 875 q 302 864 313 875 q 289 829 292 853 l 169 829 q 214 986 172 931 q 336 1042 256 1042 q 402 1033 369 1042 q 485 1008 435 1025 q 535 993 510 1000 q 575 986 560 986 q 621 1032 614 986 l 740 1032 q 696 875 738 931 q 574 819 654 819 z "},"ö":{"ha":907,"x_min":35,"x_max":872,"o":"m 453 -25 q 242 22 338 -25 q 91 158 147 69 q 35 368 35 247 q 91 578 35 490 q 243 713 147 667 q 454 760 339 760 q 665 713 569 760 q 816 578 760 667 q 872 368 872 490 q 815 158 872 247 q 663 22 758 69 q 453 -25 568 -25 m 453 235 q 528 272 500 235 q 556 368 556 310 q 528 464 556 428 q 453 500 500 500 q 378 464 406 500 q 351 368 351 428 q 378 272 351 308 q 453 235 406 235 m 279 811 q 178 847 217 811 q 140 944 140 883 q 179 1047 140 1008 q 279 1086 218 1086 q 380 1047 342 1086 q 418 944 418 1008 q 380 847 418 882 q 279 811 342 811 m 628 811 q 527 847 565 811 q 489 944 489 883 q 528 1047 489 1008 q 628 1086 567 1086 q 728 1047 690 1086 q 767 944 767 1008 q 728 847 767 882 q 628 811 690 811 z "},"÷":{"ha":892,"x_min":86,"x_max":806,"o":"m 446 596 q 348 628 385 596 q 311 719 311 661 q 349 813 311 776 q 446 849 386 849 q 544 813 506 849 q 582 719 582 776 q 544 629 582 663 q 446 596 507 596 m 806 339 l 86 339 l 86 551 l 806 551 l 806 339 m 446 42 q 348 74 385 42 q 311 165 311 107 q 349 258 311 222 q 446 294 386 294 q 544 258 506 294 q 582 165 582 222 q 544 75 582 108 q 446 42 507 42 z "},"ø":{"ha":907,"x_min":35,"x_max":872,"o":"m 788 617 q 872 368 872 517 q 816 160 872 247 q 664 26 760 72 q 453 -21 568 -21 q 188 57 299 -21 l 104 -21 l 35 43 l 118 121 q 35 368 35 225 q 91 578 35 490 q 243 713 147 667 q 454 760 339 760 q 597 740 529 760 q 718 682 664 721 l 803 760 l 872 696 l 788 617 m 317 368 q 322 311 317 335 l 539 514 q 453 547 503 547 q 353 497 390 547 q 317 368 317 447 m 590 368 q 585 426 590 390 l 368 225 q 453 193 400 193 q 553 242 515 193 q 590 368 590 290 z "},"ù":{"ha":875,"x_min":65,"x_max":810,"o":"m 436 -25 q 160 48 256 -25 q 65 294 65 121 l 65 735 l 360 735 l 360 292 q 378 233 360 256 q 436 211 396 211 q 497 233 478 211 q 515 292 515 256 l 515 735 l 810 735 l 810 294 q 713 48 810 121 q 436 -25 617 -25 m 547 819 l 325 819 l 125 1042 l 389 1042 l 547 819 z "},"ú":{"ha":875,"x_min":65,"x_max":810,"o":"m 436 -25 q 160 48 256 -25 q 65 294 65 121 l 65 735 l 360 735 l 360 292 q 378 233 360 256 q 436 211 396 211 q 497 233 478 211 q 515 292 515 256 l 515 735 l 810 735 l 810 294 q 713 48 810 121 q 436 -25 617 -25 m 747 1042 l 547 819 l 325 819 l 483 1042 l 747 1042 z "},"û":{"ha":875,"x_min":65,"x_max":810,"o":"m 436 -25 q 160 48 256 -25 q 65 294 65 121 l 65 735 l 360 735 l 360 292 q 378 233 360 256 q 436 211 396 211 q 497 233 478 211 q 515 292 515 256 l 515 735 l 810 735 l 810 294 q 713 48 810 121 q 436 -25 617 -25 m 510 819 l 436 914 l 363 819 l 140 819 l 299 1042 l 574 1042 l 732 819 l 510 819 z "},"ü":{"ha":875,"x_min":65,"x_max":810,"o":"m 436 -25 q 160 48 256 -25 q 65 294 65 121 l 65 735 l 360 735 l 360 292 q 378 233 360 256 q 436 211 396 211 q 497 233 478 211 q 515 292 515 256 l 515 735 l 810 735 l 810 294 q 713 48 810 121 q 436 -25 617 -25 m 261 811 q 160 847 199 811 q 122 944 122 883 q 161 1047 122 1008 q 261 1086 200 1086 q 362 1047 324 1086 q 400 944 400 1008 q 362 847 400 882 q 261 811 324 811 m 610 811 q 509 847 547 811 q 471 944 471 883 q 510 1047 471 1008 q 610 1086 549 1086 q 710 1047 672 1086 q 749 944 749 1008 q 710 847 749 882 q 610 811 672 811 z "},"ý":{"ha":799,"x_min":-21,"x_max":819,"o":"m 819 735 l 494 -28 q 192 -262 394 -262 q 53 -247 124 -262 l 69 -28 q 157 -33 113 -33 q 276 13 242 -33 l -21 735 l 276 735 l 413 372 l 542 735 l 819 735 m 714 1042 l 514 819 l 292 819 l 450 1042 l 714 1042 z "},"þ":{"ha":960,"x_min":79,"x_max":925,"o":"m 597 758 q 765 714 690 758 q 882 581 839 669 q 925 368 925 493 q 883 153 925 242 q 766 21 840 65 q 597 -24 692 -24 q 374 88 451 -24 l 374 -229 l 79 -229 l 79 1042 l 374 1042 l 374 647 q 597 758 451 758 m 494 221 q 578 260 549 221 q 608 368 608 300 q 578 472 608 435 q 494 508 549 508 q 407 468 440 508 q 374 368 374 428 q 407 263 374 304 q 494 221 440 221 z "},"ÿ":{"ha":799,"x_min":-21,"x_max":819,"o":"m 819 735 l 494 -28 q 192 -262 394 -262 q 53 -247 124 -262 l 69 -28 q 157 -33 113 -33 q 276 13 242 -33 l -21 735 l 276 735 l 413 372 l 542 735 l 819 735 m 228 811 q 127 847 165 811 q 89 944 89 883 q 128 1047 89 1008 q 228 1086 167 1086 q 328 1047 290 1086 q 367 944 367 1008 q 328 847 367 882 q 228 811 290 811 m 576 811 q 476 847 514 811 q 438 944 438 883 q 476 1047 438 1008 q 576 1086 515 1086 q 677 1047 639 1086 q 715 944 715 1008 q 677 847 715 882 q 576 811 639 811 z "},"Ā":{"ha":1033,"x_min":0,"x_max":1033,"o":"m 642 175 l 351 175 l 297 0 l 0 0 l 344 986 l 690 986 l 1033 0 l 694 0 l 642 175 m 583 363 l 496 650 l 408 363 l 583 363 m 725 1085 l 308 1085 l 308 1251 l 725 1251 l 725 1085 z "},"ā":{"ha":860,"x_min":35,"x_max":794,"o":"m 506 0 q 486 81 490 38 q 390 3 450 32 q 267 -25 331 -25 q 98 33 161 -25 q 35 194 35 92 q 140 384 35 324 q 485 446 244 444 l 485 457 q 456 514 485 497 q 371 531 426 531 q 174 482 263 531 l 79 665 q 433 760 200 760 q 684 694 589 760 q 779 453 779 629 l 779 99 q 794 0 779 32 l 506 0 m 408 183 q 485 217 447 183 l 485 325 q 379 300 410 321 q 349 240 349 279 q 365 199 349 214 q 408 183 381 183 m 639 819 l 222 819 l 222 986 l 639 986 l 639 819 z "},"Ă":{"ha":1033,"x_min":0,"x_max":1033,"o":"m 642 175 l 351 175 l 297 0 l 0 0 l 344 986 l 690 986 l 1033 0 l 694 0 l 642 175 m 583 363 l 496 650 l 408 363 l 583 363 m 517 1060 q 330 1113 397 1060 q 261 1267 263 1165 l 439 1267 q 517 1196 444 1196 q 594 1267 590 1196 l 772 1267 q 699 1112 764 1164 q 517 1060 633 1060 z "},"ă":{"ha":860,"x_min":35,"x_max":794,"o":"m 506 0 q 486 81 490 38 q 390 3 450 32 q 267 -25 331 -25 q 98 33 161 -25 q 35 194 35 92 q 140 384 35 324 q 485 446 244 444 l 485 457 q 456 514 485 497 q 371 531 426 531 q 174 482 263 531 l 79 665 q 433 760 200 760 q 684 694 589 760 q 779 453 779 629 l 779 99 q 794 0 779 32 l 506 0 m 408 183 q 485 217 447 183 l 485 325 q 379 300 410 321 q 349 240 349 279 q 365 199 349 214 q 408 183 381 183 m 431 813 q 244 871 311 813 q 175 1042 176 929 l 353 1042 q 376 981 356 1000 q 431 963 397 963 q 485 981 464 963 q 508 1042 507 1000 l 686 1042 q 613 870 678 928 q 431 813 547 813 z "},"Ą":{"ha":1033,"x_min":0,"x_max":1082,"o":"m 642 175 l 351 175 l 297 0 l 0 0 l 344 986 l 690 986 l 1033 0 l 694 0 l 642 175 m 583 363 l 496 650 l 408 363 l 583 363 z "},"ą":{"ha":860,"x_min":35,"x_max":843,"o":"m 843 -287 q 776 -327 813 -312 q 669 -342 739 -342 q 524 -301 578 -342 q 471 -182 471 -260 q 504 -78 471 -122 q 608 0 538 -33 l 506 0 q 486 81 490 38 q 390 3 450 32 q 267 -25 331 -25 q 98 33 161 -25 q 35 194 35 92 q 140 384 35 324 q 485 446 244 444 l 485 457 q 456 514 485 497 q 371 531 426 531 q 174 482 263 531 l 79 665 q 433 760 200 760 q 684 694 589 760 q 779 453 779 629 l 779 99 q 794 0 779 32 q 697 -62 736 -26 q 657 -139 657 -99 q 672 -178 657 -165 q 713 -192 688 -192 q 752 -186 735 -192 q 790 -167 769 -181 l 843 -287 m 408 183 q 485 217 447 183 l 485 325 q 379 300 410 321 q 349 240 349 279 q 365 199 349 214 q 408 183 381 183 z "},"Ć":{"ha":885,"x_min":51,"x_max":865,"o":"m 560 -25 q 285 39 399 -25 q 111 219 171 103 q 51 493 51 336 q 113 766 51 649 q 288 947 174 883 q 560 1011 403 1011 q 825 949 692 1011 l 774 672 q 596 713 688 713 q 438 654 501 713 q 375 493 375 596 q 433 331 375 388 q 597 274 490 274 q 692 284 656 274 q 786 317 729 294 l 839 42 q 710 -6 776 13 q 560 -25 644 -25 m 624 1067 l 401 1067 l 601 1267 l 865 1267 l 624 1067 z "},"ć":{"ha":733,"x_min":35,"x_max":729,"o":"m 35 368 q 84 575 35 486 q 224 712 133 664 q 439 760 315 760 q 590 742 522 760 q 694 699 657 724 l 636 458 q 489 488 568 488 q 390 455 429 488 q 351 368 351 422 q 390 281 351 313 q 501 249 429 249 q 573 256 543 249 q 646 275 603 263 l 708 40 q 656 17 700 36 q 556 -13 613 -1 q 439 -25 500 -25 q 222 24 313 -25 q 83 160 131 72 q 35 368 35 249 m 729 1042 l 529 819 l 307 819 l 465 1042 l 729 1042 z "},"Ĉ":{"ha":885,"x_min":51,"x_max":839,"o":"m 560 -25 q 285 39 399 -25 q 111 219 171 103 q 51 493 51 336 q 113 766 51 649 q 288 947 174 883 q 560 1011 403 1011 q 825 949 692 1011 l 774 672 q 596 713 688 713 q 438 654 501 713 q 375 493 375 596 q 433 331 375 388 q 597 274 490 274 q 692 284 656 274 q 786 317 729 294 l 839 42 q 710 -6 776 13 q 560 -25 644 -25 m 588 1067 l 513 1164 l 438 1067 l 213 1067 l 401 1267 l 624 1267 l 813 1067 l 588 1067 z "},"ĉ":{"ha":733,"x_min":35,"x_max":714,"o":"m 35 368 q 84 575 35 486 q 224 712 133 664 q 439 760 315 760 q 590 742 522 760 q 694 699 657 724 l 636 458 q 489 488 568 488 q 390 455 429 488 q 351 368 351 422 q 390 281 351 313 q 501 249 429 249 q 573 256 543 249 q 646 275 603 263 l 708 40 q 656 17 700 36 q 556 -13 613 -1 q 439 -25 500 -25 q 222 24 313 -25 q 83 160 131 72 q 35 368 35 249 m 492 819 l 418 914 l 344 819 l 122 819 l 281 1042 l 556 1042 l 714 819 l 492 819 z "},"Ċ":{"ha":885,"x_min":51,"x_max":839,"o":"m 560 -25 q 285 39 399 -25 q 111 219 171 103 q 51 493 51 336 q 113 766 51 649 q 288 947 174 883 q 560 1011 403 1011 q 825 949 692 1011 l 774 672 q 596 713 688 713 q 438 654 501 713 q 375 493 375 596 q 433 331 375 388 q 597 274 490 274 q 692 284 656 274 q 786 317 729 294 l 839 42 q 710 -6 776 13 q 560 -25 644 -25 m 513 1054 q 406 1086 447 1054 q 365 1174 365 1118 q 406 1266 365 1231 q 513 1301 447 1301 q 619 1266 578 1301 q 660 1174 660 1231 q 619 1086 660 1118 q 513 1054 579 1054 z "},"ċ":{"ha":733,"x_min":35,"x_max":708,"o":"m 35 368 q 84 575 35 486 q 224 712 133 664 q 439 760 315 760 q 590 742 522 760 q 694 699 657 724 l 636 458 q 489 488 568 488 q 390 455 429 488 q 351 368 351 422 q 390 281 351 313 q 501 249 429 249 q 573 256 543 249 q 646 275 603 263 l 708 40 q 656 17 700 36 q 556 -13 613 -1 q 439 -25 500 -25 q 222 24 313 -25 q 83 160 131 72 q 35 368 35 249 m 418 807 q 294 846 342 807 q 246 950 246 885 q 294 1056 246 1017 q 418 1096 342 1096 q 543 1056 496 1096 q 590 950 590 1017 q 543 846 590 885 q 418 807 496 807 z "},"Č":{"ha":885,"x_min":51,"x_max":839,"o":"m 560 -25 q 285 39 399 -25 q 111 219 171 103 q 51 493 51 336 q 113 766 51 649 q 288 947 174 883 q 560 1011 403 1011 q 825 949 692 1011 l 774 672 q 596 713 688 713 q 438 654 501 713 q 375 493 375 596 q 433 331 375 388 q 597 274 490 274 q 692 284 656 274 q 786 317 729 294 l 839 42 q 710 -6 776 13 q 560 -25 644 -25 m 813 1267 l 624 1067 l 401 1067 l 213 1267 l 438 1267 l 513 1169 l 588 1267 l 813 1267 z "},"č":{"ha":733,"x_min":35,"x_max":714,"o":"m 35 368 q 84 575 35 486 q 224 712 133 664 q 439 760 315 760 q 590 742 522 760 q 694 699 657 724 l 636 458 q 489 488 568 488 q 390 455 429 488 q 351 368 351 422 q 390 281 351 313 q 501 249 429 249 q 573 256 543 249 q 646 275 603 263 l 708 40 q 656 17 700 36 q 556 -13 613 -1 q 439 -25 500 -25 q 222 24 313 -25 q 83 160 131 72 q 35 368 35 249 m 714 1042 l 556 819 l 281 819 l 122 1042 l 344 1042 l 418 947 l 492 1042 l 714 1042 z "},"Ď":{"ha":1063,"x_min":103,"x_max":1011,"o":"m 499 986 q 875 865 739 986 q 1011 493 1011 743 q 875 122 1011 243 q 499 0 739 0 l 103 0 l 103 986 l 499 986 m 499 261 q 638 319 586 261 q 689 493 689 378 q 638 667 689 608 q 499 725 586 725 l 408 725 l 408 261 l 499 261 m 832 1267 l 643 1067 l 421 1067 l 232 1267 l 457 1267 l 532 1169 l 607 1267 l 832 1267 z "},"ď":{"ha":1040,"x_min":35,"x_max":1186,"o":"m 858 1042 l 858 0 l 586 0 l 581 82 q 363 -24 507 -24 q 195 22 269 -24 q 78 156 121 67 q 35 369 35 244 q 77 584 35 496 q 194 717 119 672 q 363 761 268 761 q 561 681 488 761 l 561 1042 l 858 1042 m 465 225 q 553 267 519 225 q 586 369 586 310 q 553 473 586 433 q 465 513 519 513 q 381 474 411 513 q 351 369 351 436 q 381 264 351 303 q 465 225 411 225 m 1121 789 l 940 789 l 964 1042 l 1186 1042 l 1121 789 z "},"Đ":{"ha":1063,"x_min":0,"x_max":1011,"o":"m 499 986 q 875 865 739 986 q 1011 493 1011 743 q 875 122 1011 243 q 499 0 739 0 l 103 0 l 103 393 l 0 393 l 0 590 l 103 590 l 103 986 l 499 986 m 499 261 q 638 319 586 261 q 689 493 689 378 q 638 667 689 608 q 499 725 586 725 l 408 725 l 408 590 l 550 590 l 550 393 l 408 393 l 408 261 l 499 261 z "},"đ":{"ha":938,"x_min":35,"x_max":911,"o":"m 911 819 l 858 819 l 858 0 l 586 0 l 581 82 q 363 -24 507 -24 q 195 22 269 -24 q 78 156 121 67 q 35 369 35 244 q 77 584 35 496 q 194 717 119 672 q 363 761 268 761 q 561 681 488 761 l 561 819 l 338 819 l 338 933 l 561 933 l 561 1042 l 858 1042 l 858 933 l 911 933 l 911 819 m 465 225 q 553 267 519 225 q 586 369 586 310 q 553 473 586 433 q 465 513 519 513 q 381 474 411 513 q 351 369 351 436 q 381 264 351 303 q 465 225 411 225 z "},"Ē":{"ha":804,"x_min":103,"x_max":724,"o":"m 408 731 l 408 617 l 679 617 l 679 392 l 408 392 l 408 256 l 724 256 l 724 0 l 103 0 l 103 986 l 724 986 l 724 731 l 408 731 m 624 1085 l 207 1085 l 207 1251 l 624 1251 l 624 1085 z "},"ē":{"ha":851,"x_min":35,"x_max":814,"o":"m 814 315 l 353 315 q 420 242 374 260 q 536 225 467 225 q 714 253 631 225 l 779 31 q 485 -25 660 -25 q 151 76 268 -25 q 35 360 35 178 q 87 573 35 482 q 231 712 139 664 q 443 760 324 760 q 638 719 554 760 q 767 600 721 678 q 814 414 814 522 l 814 315 m 436 546 q 378 519 401 546 q 346 444 354 493 l 521 444 q 493 521 515 496 q 436 546 471 546 m 649 819 l 232 819 l 232 986 l 649 986 l 649 819 z "},"Ĕ":{"ha":804,"x_min":103,"x_max":724,"o":"m 408 731 l 408 617 l 679 617 l 679 392 l 408 392 l 408 256 l 724 256 l 724 0 l 103 0 l 103 986 l 724 986 l 724 731 l 408 731 m 415 1060 q 228 1113 296 1060 q 160 1267 161 1165 l 338 1267 q 415 1196 343 1196 q 493 1267 489 1196 l 671 1267 q 597 1112 663 1164 q 415 1060 532 1060 z "},"ĕ":{"ha":851,"x_min":35,"x_max":814,"o":"m 814 315 l 353 315 q 420 242 374 260 q 536 225 467 225 q 714 253 631 225 l 779 31 q 485 -25 660 -25 q 151 76 268 -25 q 35 360 35 178 q 87 573 35 482 q 231 712 139 664 q 443 760 324 760 q 638 719 554 760 q 767 600 721 678 q 814 414 814 522 l 814 315 m 436 546 q 378 519 401 546 q 346 444 354 493 l 521 444 q 493 521 515 496 q 436 546 471 546 m 440 813 q 253 871 321 813 q 185 1042 186 929 l 363 1042 q 386 981 365 1000 q 440 963 407 963 q 495 981 474 963 q 518 1042 517 1000 l 696 1042 q 622 870 688 928 q 440 813 557 813 z "},"Ė":{"ha":804,"x_min":103,"x_max":724,"o":"m 408 731 l 408 617 l 679 617 l 679 392 l 408 392 l 408 256 l 724 256 l 724 0 l 103 0 l 103 986 l 724 986 l 724 731 l 408 731 m 415 1054 q 309 1086 350 1054 q 268 1174 268 1118 q 309 1266 268 1231 q 415 1301 350 1301 q 522 1266 481 1301 q 563 1174 563 1231 q 522 1086 563 1118 q 415 1054 482 1054 z "},"ė":{"ha":851,"x_min":35,"x_max":814,"o":"m 814 315 l 353 315 q 420 242 374 260 q 536 225 467 225 q 714 253 631 225 l 779 31 q 485 -25 660 -25 q 151 76 268 -25 q 35 360 35 178 q 87 573 35 482 q 231 712 139 664 q 443 760 324 760 q 638 719 554 760 q 767 600 721 678 q 814 414 814 522 l 814 315 m 436 546 q 378 519 401 546 q 346 444 354 493 l 521 444 q 493 521 515 496 q 436 546 471 546 m 440 807 q 316 846 364 807 q 268 950 268 885 q 316 1056 268 1017 q 440 1096 364 1096 q 565 1056 518 1096 q 613 950 613 1017 q 565 846 613 885 q 440 807 518 807 z "},"Ę":{"ha":804,"x_min":103,"x_max":772,"o":"m 408 731 l 408 617 l 679 617 l 679 392 l 408 392 l 408 256 l 724 256 l 724 0 l 103 0 l 103 986 l 724 986 l 724 731 l 408 731 z "},"ę":{"ha":851,"x_min":35,"x_max":814,"o":"m 814 315 l 353 315 q 420 242 374 260 q 536 225 467 225 q 714 253 631 225 l 779 31 q 769 26 775 29 q 757 21 764 24 q 635 -56 681 -14 q 590 -139 590 -99 q 606 -178 590 -165 q 646 -192 621 -192 q 685 -186 668 -192 q 724 -167 703 -181 l 776 -287 q 709 -327 746 -312 q 603 -342 672 -342 q 457 -302 510 -342 q 404 -186 404 -262 q 497 -25 404 -86 l 485 -25 q 151 76 268 -25 q 35 360 35 178 q 87 573 35 482 q 231 712 139 664 q 443 760 324 760 q 638 719 554 760 q 767 600 721 678 q 814 414 814 522 l 814 315 m 436 546 q 378 519 401 546 q 346 444 354 493 l 521 444 q 493 521 515 496 q 436 546 471 546 z "},"Ě":{"ha":804,"x_min":103,"x_max":724,"o":"m 408 731 l 408 617 l 679 617 l 679 392 l 408 392 l 408 256 l 724 256 l 724 0 l 103 0 l 103 986 l 724 986 l 724 731 l 408 731 m 715 1267 l 526 1067 l 304 1067 l 115 1267 l 340 1267 l 415 1169 l 490 1267 l 715 1267 z "},"ě":{"ha":851,"x_min":35,"x_max":814,"o":"m 814 315 l 353 315 q 420 242 374 260 q 536 225 467 225 q 714 253 631 225 l 779 31 q 485 -25 660 -25 q 151 76 268 -25 q 35 360 35 178 q 87 573 35 482 q 231 712 139 664 q 443 760 324 760 q 638 719 554 760 q 767 600 721 678 q 814 414 814 522 l 814 315 m 436 546 q 378 519 401 546 q 346 444 354 493 l 521 444 q 493 521 515 496 q 436 546 471 546 m 736 1042 l 578 819 l 303 819 l 144 1042 l 367 1042 l 440 947 l 514 1042 l 736 1042 z "},"Ĝ":{"ha":1079,"x_min":51,"x_max":1033,"o":"m 1033 574 l 1033 457 q 902 94 1033 213 q 556 -25 771 -25 q 303 37 418 -25 q 120 216 189 99 q 51 493 51 333 q 119 770 51 653 q 301 949 188 888 q 549 1011 415 1011 q 809 950 703 1011 q 983 771 915 889 l 736 646 q 666 717 710 692 q 572 743 622 743 q 429 674 485 743 q 374 493 374 604 q 429 306 374 376 q 576 235 485 235 q 697 269 649 235 q 756 367 746 304 l 567 367 l 567 574 l 1033 574 m 615 1067 l 540 1164 l 465 1067 l 240 1067 l 429 1267 l 651 1267 l 840 1067 l 615 1067 z "},"ĝ":{"ha":869,"x_min":-8,"x_max":914,"o":"m 622 179 q 803 121 749 179 q 858 -21 858 63 q 753 -205 858 -129 q 374 -281 647 -281 q 95 -245 199 -281 q -8 -136 -8 -210 q 36 -62 -8 -85 q 153 -29 81 -39 q 57 19 94 -14 q 19 108 19 53 q 59 208 19 168 q 175 288 99 249 q 72 375 108 321 q 36 503 36 429 q 83 642 36 583 q 213 733 129 701 q 408 764 297 764 q 639 722 540 764 l 761 843 l 914 692 l 776 603 q 800 503 800 556 q 694 309 800 378 q 411 240 589 240 q 293 250 343 240 q 276 218 276 238 q 297 188 276 197 q 367 179 317 179 l 622 179 m 419 593 q 360 569 383 593 q 338 503 338 544 q 360 434 338 460 q 419 408 383 408 q 476 434 456 408 q 497 503 497 460 q 476 569 497 544 q 419 593 456 593 m 414 -143 q 524 -129 486 -143 q 563 -89 563 -115 q 485 -43 563 -43 l 276 -43 q 264 -76 264 -61 q 299 -124 264 -106 q 414 -143 333 -143 m 483 819 l 410 914 l 336 819 l 114 819 l 272 1042 l 547 1042 l 706 819 l 483 819 z "},"Ğ":{"ha":1079,"x_min":51,"x_max":1033,"o":"m 1033 574 l 1033 457 q 902 94 1033 213 q 556 -25 771 -25 q 303 37 418 -25 q 120 216 189 99 q 51 493 51 333 q 119 770 51 653 q 301 949 188 888 q 549 1011 415 1011 q 809 950 703 1011 q 983 771 915 889 l 736 646 q 666 717 710 692 q 572 743 622 743 q 429 674 485 743 q 374 493 374 604 q 429 306 374 376 q 576 235 485 235 q 697 269 649 235 q 756 367 746 304 l 567 367 l 567 574 l 1033 574 m 540 1060 q 353 1113 421 1060 q 285 1267 286 1165 l 463 1267 q 540 1196 468 1196 q 618 1267 614 1196 l 796 1267 q 722 1112 788 1164 q 540 1060 657 1060 z "},"ğ":{"ha":869,"x_min":-8,"x_max":914,"o":"m 622 179 q 803 121 749 179 q 858 -21 858 63 q 753 -205 858 -129 q 374 -281 647 -281 q 95 -245 199 -281 q -8 -136 -8 -210 q 36 -62 -8 -85 q 153 -29 81 -39 q 57 19 94 -14 q 19 108 19 53 q 59 208 19 168 q 175 288 99 249 q 72 375 108 321 q 36 503 36 429 q 83 642 36 583 q 213 733 129 701 q 408 764 297 764 q 639 722 540 764 l 761 843 l 914 692 l 776 603 q 800 503 800 556 q 694 309 800 378 q 411 240 589 240 q 293 250 343 240 q 276 218 276 238 q 297 188 276 197 q 367 179 317 179 l 622 179 m 419 593 q 360 569 383 593 q 338 503 338 544 q 360 434 338 460 q 419 408 383 408 q 476 434 456 408 q 497 503 497 460 q 476 569 497 544 q 419 593 456 593 m 414 -143 q 524 -129 486 -143 q 563 -89 563 -115 q 485 -43 563 -43 l 276 -43 q 264 -76 264 -61 q 299 -124 264 -106 q 414 -143 333 -143 m 410 813 q 223 871 290 813 q 154 1042 156 929 l 332 1042 q 356 981 335 1000 q 410 963 376 963 q 465 981 443 963 q 488 1042 486 1000 l 665 1042 q 592 870 657 928 q 410 813 526 813 z "},"Ġ":{"ha":1079,"x_min":51,"x_max":1033,"o":"m 1033 574 l 1033 457 q 902 94 1033 213 q 556 -25 771 -25 q 303 37 418 -25 q 120 216 189 99 q 51 493 51 333 q 119 770 51 653 q 301 949 188 888 q 549 1011 415 1011 q 809 950 703 1011 q 983 771 915 889 l 736 646 q 666 717 710 692 q 572 743 622 743 q 429 674 485 743 q 374 493 374 604 q 429 306 374 376 q 576 235 485 235 q 697 269 649 235 q 756 367 746 304 l 567 367 l 567 574 l 1033 574 m 540 1054 q 434 1086 475 1054 q 393 1174 393 1118 q 434 1266 393 1231 q 540 1301 475 1301 q 647 1266 606 1301 q 688 1174 688 1231 q 647 1086 688 1118 q 540 1054 607 1054 z "},"ġ":{"ha":869,"x_min":-8,"x_max":914,"o":"m 622 179 q 803 121 749 179 q 858 -21 858 63 q 753 -205 858 -129 q 374 -281 647 -281 q 95 -245 199 -281 q -8 -136 -8 -210 q 36 -62 -8 -85 q 153 -29 81 -39 q 57 19 94 -14 q 19 108 19 53 q 59 208 19 168 q 175 288 99 249 q 72 375 108 321 q 36 503 36 429 q 83 642 36 583 q 213 733 129 701 q 408 764 297 764 q 639 722 540 764 l 761 843 l 914 692 l 776 603 q 800 503 800 556 q 694 309 800 378 q 411 240 589 240 q 293 250 343 240 q 276 218 276 238 q 297 188 276 197 q 367 179 317 179 l 622 179 m 419 593 q 360 569 383 593 q 338 503 338 544 q 360 434 338 460 q 419 408 383 408 q 476 434 456 408 q 497 503 497 460 q 476 569 497 544 q 419 593 456 593 m 414 -143 q 524 -129 486 -143 q 563 -89 563 -115 q 485 -43 563 -43 l 276 -43 q 264 -76 264 -61 q 299 -124 264 -106 q 414 -143 333 -143 m 410 807 q 285 846 333 807 q 238 950 238 885 q 285 1056 238 1017 q 410 1096 333 1096 q 535 1056 488 1096 q 582 950 582 1017 q 535 846 582 885 q 410 807 488 807 z "},"Ģ":{"ha":1079,"x_min":51,"x_max":1033,"o":"m 1033 574 l 1033 457 q 902 94 1033 213 q 556 -25 771 -25 q 303 37 418 -25 q 120 216 189 99 q 51 493 51 333 q 119 770 51 653 q 301 949 188 888 q 549 1011 415 1011 q 809 950 703 1011 q 983 771 915 889 l 736 646 q 666 717 710 692 q 572 743 622 743 q 429 674 485 743 q 374 493 374 604 q 429 306 374 376 q 576 235 485 235 q 697 269 649 235 q 756 367 746 304 l 567 367 l 567 574 l 1033 574 m 539 -82 q 619 -110 589 -82 q 650 -197 650 -139 q 609 -326 650 -258 q 504 -444 568 -393 l 428 -374 q 504 -281 476 -329 q 449 -248 471 -274 q 428 -186 428 -222 q 460 -111 428 -140 q 539 -82 492 -82 z "},"ģ":{"ha":869,"x_min":-8,"x_max":914,"o":"m 622 179 q 803 121 749 179 q 858 -21 858 63 q 753 -205 858 -129 q 374 -281 647 -281 q 95 -245 199 -281 q -8 -136 -8 -210 q 36 -62 -8 -85 q 153 -29 81 -39 q 57 19 94 -14 q 19 108 19 53 q 59 208 19 168 q 175 288 99 249 q 72 375 108 321 q 36 503 36 429 q 83 642 36 583 q 213 733 129 701 q 408 764 297 764 q 639 722 540 764 l 761 843 l 914 692 l 776 603 q 800 503 800 556 q 694 309 800 378 q 411 240 589 240 q 293 250 343 240 q 276 218 276 238 q 297 188 276 197 q 367 179 317 179 l 622 179 m 419 593 q 360 569 383 593 q 338 503 338 544 q 360 434 338 460 q 419 408 383 408 q 476 434 456 408 q 497 503 497 460 q 476 569 497 544 q 419 593 456 593 m 414 -143 q 524 -129 486 -143 q 563 -89 563 -115 q 485 -43 563 -43 l 276 -43 q 264 -76 264 -61 q 299 -124 264 -106 q 414 -143 333 -143 m 460 1015 q 516 982 494 1007 q 538 921 538 957 q 505 846 538 875 q 425 817 472 817 q 344 845 375 817 q 314 932 314 874 q 356 1061 314 993 q 461 1179 397 1129 l 538 1108 q 460 1015 486 1061 z "},"Ĥ":{"ha":1065,"x_min":103,"x_max":963,"o":"m 963 986 l 963 0 l 657 0 l 657 376 l 408 376 l 408 0 l 103 0 l 103 986 l 408 986 l 408 624 l 657 624 l 657 986 l 963 986 m 608 1067 l 533 1164 l 458 1067 l 233 1067 l 422 1267 l 644 1267 l 833 1067 l 608 1067 z "},"ĥ":{"ha":932,"x_min":79,"x_max":853,"o":"m 625 760 q 853 494 853 760 l 853 0 l 558 0 l 558 392 q 540 479 558 451 q 478 507 522 507 q 422 490 449 507 q 374 443 394 472 l 374 0 l 79 0 l 79 1042 l 374 1042 l 374 617 q 625 760 451 760 m 542 1122 l 467 1219 l 392 1122 l 167 1122 l 356 1322 l 578 1322 l 767 1122 l 542 1122 z "},"Ħ":{"ha":1032,"x_min":0,"x_max":1032,"o":"m 1032 683 l 946 683 l 946 0 l 640 0 l 640 293 l 392 293 l 392 0 l 86 0 l 86 683 l 0 683 l 0 881 l 86 881 l 86 986 l 392 986 l 392 881 l 640 881 l 640 986 l 946 986 l 946 881 l 1032 881 l 1032 683 m 640 683 l 392 683 l 392 540 l 640 540 l 640 683 z "},"ħ":{"ha":932,"x_min":26,"x_max":853,"o":"m 625 760 q 853 494 853 760 l 853 0 l 558 0 l 558 392 q 540 479 558 451 q 478 507 522 507 q 422 490 449 507 q 374 443 394 472 l 374 0 l 79 0 l 79 819 l 26 819 l 26 933 l 79 933 l 79 1042 l 374 1042 l 374 933 l 600 933 l 600 819 l 374 819 l 374 617 q 625 760 451 760 z "},"Ĩ":{"ha":511,"x_min":-31,"x_max":540,"o":"m 408 0 l 103 0 l 103 986 l 408 986 l 408 0 m 374 1057 q 311 1064 342 1057 q 255 1078 281 1071 q 222 1089 229 1086 q 135 1111 161 1111 q 102 1101 113 1111 q 89 1067 92 1090 l -31 1067 q 14 1221 -28 1165 q 136 1276 56 1276 q 202 1268 169 1276 q 285 1243 235 1260 q 335 1228 310 1235 q 375 1221 360 1221 q 421 1267 414 1221 l 540 1267 q 496 1112 538 1167 q 374 1057 454 1057 z "},"ĩ":{"ha":503,"x_min":-33,"x_max":538,"o":"m 399 0 l 104 0 l 104 735 l 399 735 l 399 0 m 371 819 q 302 828 336 819 q 219 853 268 836 q 132 875 158 875 q 99 864 110 875 q 86 829 89 853 l -33 829 q 11 986 -31 931 q 133 1042 53 1042 q 199 1033 167 1042 q 282 1008 232 1025 q 332 993 307 1000 q 372 986 357 986 q 418 1032 411 986 l 538 1032 q 493 875 535 931 q 371 819 451 819 z "},"Ī":{"ha":511,"x_min":47,"x_max":464,"o":"m 408 0 l 103 0 l 103 986 l 408 986 l 408 0 m 464 1085 l 47 1085 l 47 1251 l 464 1251 l 464 1085 z "},"ī":{"ha":503,"x_min":43,"x_max":460,"o":"m 399 0 l 104 0 l 104 735 l 399 735 l 399 0 m 460 819 l 43 819 l 43 986 l 460 986 l 460 819 z "},"Ĭ":{"ha":511,"x_min":0,"x_max":511,"o":"m 408 0 l 103 0 l 103 986 l 408 986 l 408 0 m 256 1060 q 69 1113 136 1060 q 0 1267 1 1165 l 178 1267 q 256 1196 183 1196 q 333 1267 329 1196 l 511 1267 q 438 1112 503 1164 q 256 1060 372 1060 z "},"ĭ":{"ha":503,"x_min":-4,"x_max":507,"o":"m 399 0 l 104 0 l 104 735 l 399 735 l 399 0 m 251 813 q 65 871 132 813 q -4 1042 -3 929 l 174 1042 q 197 981 176 1000 q 251 963 218 963 q 306 981 285 963 q 329 1042 328 1000 l 507 1042 q 433 870 499 928 q 251 813 368 813 z "},"Į":{"ha":511,"x_min":85,"x_max":457,"o":"m 408 0 l 103 0 l 103 986 l 408 986 l 408 0 z "},"į":{"ha":503,"x_min":75,"x_max":447,"o":"m 399 0 l 104 0 l 104 735 l 399 735 l 399 0 m 251 807 q 127 846 175 807 q 79 950 79 885 q 127 1056 79 1017 q 251 1096 175 1096 q 376 1056 329 1096 q 424 950 424 1017 q 376 846 424 885 q 251 807 329 807 m 274 -342 q 128 -301 182 -342 q 75 -182 75 -260 q 108 -78 75 -122 q 213 0 142 -33 l 399 0 q 301 -62 340 -26 q 261 -139 261 -99 q 276 -178 261 -165 q 317 -192 292 -192 q 356 -186 339 -192 q 394 -167 374 -181 l 447 -287 q 380 -327 417 -312 q 274 -342 343 -342 z "},"İ":{"ha":511,"x_min":103,"x_max":408,"o":"m 408 0 l 103 0 l 103 986 l 408 986 l 408 0 m 256 1054 q 149 1086 190 1054 q 108 1174 108 1118 q 149 1266 108 1231 q 256 1301 190 1301 q 362 1266 321 1301 q 403 1174 403 1231 q 363 1086 403 1118 q 256 1054 322 1054 z "},"ı":{"ha":503,"x_min":104,"x_max":399,"o":"m 399 0 l 104 0 l 104 735 l 399 735 l 399 0 z "},"Ĳ":{"ha":1163,"x_min":103,"x_max":1071,"o":"m 408 0 l 103 0 l 103 986 l 408 986 l 408 0 m 731 -12 q 531 14 644 -12 l 553 263 q 590 256 561 261 q 647 250 619 250 q 738 288 710 250 q 765 397 765 325 l 765 986 l 1071 986 l 1071 333 q 978 67 1071 147 q 731 -12 886 -12 z "},"ĳ":{"ha":1006,"x_min":79,"x_max":926,"o":"m 399 0 l 104 0 l 104 735 l 399 735 l 399 0 m 251 807 q 127 846 175 807 q 79 950 79 885 q 127 1056 79 1017 q 251 1096 175 1096 q 376 1056 329 1096 q 424 950 424 1017 q 376 846 424 885 q 251 807 329 807 m 447 -53 q 524 -57 489 -57 q 587 -34 567 -57 q 607 28 607 -11 l 607 735 l 901 735 l 901 -1 q 828 -211 901 -135 q 590 -287 754 -287 q 447 -278 496 -287 l 447 -53 m 754 807 q 630 846 678 807 q 582 950 582 885 q 630 1056 582 1017 q 754 1096 678 1096 q 879 1056 832 1096 q 926 950 926 1017 q 879 846 926 885 q 754 807 832 807 z "},"Ĵ":{"ha":651,"x_min":19,"x_max":707,"o":"m 219 -12 q 19 14 133 -12 l 42 263 q 79 256 50 261 q 136 250 108 250 q 226 288 199 250 q 254 397 254 325 l 254 986 l 560 986 l 560 333 q 467 67 560 147 q 219 -12 375 -12 m 482 1067 l 407 1164 l 332 1067 l 107 1067 l 296 1267 l 518 1267 l 707 1067 l 482 1067 z "},"ĵ":{"ha":503,"x_min":-56,"x_max":547,"o":"m -56 -53 q 21 -57 -14 -57 q 84 -34 64 -57 q 104 28 104 -11 l 104 735 l 399 735 l 399 -1 q 325 -211 399 -135 q 88 -287 251 -287 q -56 -278 -7 -287 l -56 -53 m 325 819 l 251 914 l 178 819 l -44 819 l 114 1042 l 389 1042 l 547 819 l 325 819 z "},"Ķ":{"ha":1035,"x_min":103,"x_max":1032,"o":"m 454 300 l 408 242 l 408 0 l 103 0 l 103 986 l 408 986 l 408 613 l 665 986 l 1000 986 l 669 540 l 1032 0 l 654 0 l 454 300 m 517 -82 q 597 -110 567 -82 q 628 -197 628 -139 q 587 -326 628 -258 q 482 -444 546 -393 l 406 -374 q 482 -281 454 -329 q 427 -248 449 -274 q 406 -186 406 -222 q 438 -111 406 -140 q 517 -82 469 -82 z "},"ķ":{"ha":896,"x_min":79,"x_max":924,"o":"m 418 222 l 374 172 l 374 0 l 79 0 l 79 1042 l 374 1042 l 374 497 l 561 735 l 888 735 l 613 435 l 924 0 l 574 0 l 418 222 m 449 -82 q 529 -110 499 -82 q 560 -197 560 -139 q 518 -326 560 -258 q 413 -444 476 -394 l 336 -374 q 414 -281 388 -326 q 358 -247 379 -272 q 336 -186 336 -222 q 369 -111 336 -140 q 449 -82 401 -82 z "},"ĸ":{"ha":896,"x_min":79,"x_max":924,"o":"m 418 222 l 374 172 l 374 0 l 79 0 l 79 735 l 374 735 l 374 497 l 561 735 l 888 735 l 613 435 l 924 0 l 574 0 l 418 222 z "},"Ĺ":{"ha":738,"x_min":103,"x_max":675,"o":"m 675 261 l 675 0 l 103 0 l 103 986 l 408 986 l 408 261 l 675 261 m 363 1067 l 140 1067 l 340 1267 l 604 1267 l 363 1067 z "},"ĺ":{"ha":453,"x_min":79,"x_max":579,"o":"m 374 0 l 79 0 l 79 1042 l 374 1042 l 374 0 m 338 1122 l 115 1122 l 315 1322 l 579 1322 l 338 1122 z "},"Ļ":{"ha":738,"x_min":103,"x_max":675,"o":"m 675 261 l 675 0 l 103 0 l 103 986 l 408 986 l 408 261 l 675 261 m 368 -82 q 449 -110 418 -82 q 479 -197 479 -139 q 438 -326 479 -258 q 333 -444 397 -393 l 257 -374 q 333 -281 306 -329 q 278 -248 300 -274 q 257 -186 257 -222 q 289 -111 257 -140 q 368 -82 321 -82 z "},"ļ":{"ha":453,"x_min":79,"x_max":374,"o":"m 374 0 l 79 0 l 79 1042 l 374 1042 l 374 0 m 226 -82 q 307 -110 276 -82 q 338 -197 338 -139 q 296 -326 338 -258 q 190 -444 254 -394 l 114 -374 q 192 -281 165 -326 q 135 -247 157 -272 q 114 -186 114 -222 q 147 -111 114 -140 q 226 -82 179 -82 z "},"Ľ":{"ha":738,"x_min":103,"x_max":736,"o":"m 675 261 l 675 0 l 103 0 l 103 986 l 408 986 l 408 261 l 675 261 m 671 789 l 490 789 l 514 1042 l 736 1042 l 671 789 z "},"ľ":{"ha":556,"x_min":79,"x_max":701,"o":"m 374 0 l 79 0 l 79 1042 l 374 1042 l 374 0 m 636 789 l 456 789 l 479 1042 l 701 1042 l 636 789 z "},"Ŀ":{"ha":738,"x_min":103,"x_max":801,"o":"m 675 261 l 675 0 l 103 0 l 103 986 l 408 986 l 408 261 l 675 261 m 624 367 q 496 410 544 367 q 447 528 447 453 q 497 650 447 603 q 624 697 546 697 q 752 650 703 697 q 801 528 801 603 q 753 410 801 453 q 624 367 704 367 z "},"ŀ":{"ha":760,"x_min":79,"x_max":783,"o":"m 374 0 l 79 0 l 79 1042 l 374 1042 l 374 0 m 606 339 q 478 382 526 339 q 429 500 429 425 q 478 622 429 575 q 606 669 528 669 q 734 622 685 669 q 783 500 783 575 q 735 382 783 425 q 606 339 686 339 z "},"Ł":{"ha":738,"x_min":0,"x_max":675,"o":"m 675 261 l 675 0 l 103 0 l 103 274 l 0 186 l 0 399 l 103 486 l 103 986 l 408 986 l 408 744 l 560 874 l 560 660 l 408 532 l 408 261 l 675 261 z "},"ł":{"ha":453,"x_min":0,"x_max":453,"o":"m 453 607 l 374 547 l 374 0 l 79 0 l 79 324 l 0 264 l 0 458 l 79 518 l 79 1042 l 374 1042 l 374 740 l 453 800 l 453 607 z "},"Ń":{"ha":1065,"x_min":103,"x_max":963,"o":"m 963 986 l 963 0 l 661 0 l 367 501 l 367 0 l 103 0 l 103 986 l 417 986 l 699 554 l 699 986 l 963 986 m 644 1067 l 422 1067 l 622 1267 l 886 1267 l 644 1067 z "},"ń":{"ha":932,"x_min":79,"x_max":853,"o":"m 625 760 q 853 494 853 760 l 853 0 l 558 0 l 558 392 q 540 479 558 451 q 478 507 522 507 q 422 488 449 507 q 374 436 394 469 l 374 0 l 79 0 l 79 735 l 374 735 l 374 617 q 625 760 451 760 m 774 1042 l 574 819 l 351 819 l 510 1042 l 774 1042 z "},"Ņ":{"ha":1065,"x_min":103,"x_max":963,"o":"m 963 986 l 963 0 l 661 0 l 367 501 l 367 0 l 103 0 l 103 986 l 417 986 l 699 554 l 699 986 l 963 986 m 532 -82 q 613 -110 582 -82 q 643 -197 643 -139 q 602 -326 643 -258 q 497 -444 561 -393 l 421 -374 q 497 -281 469 -329 q 442 -248 464 -274 q 421 -186 421 -222 q 453 -111 421 -140 q 532 -82 485 -82 z "},"ņ":{"ha":932,"x_min":79,"x_max":853,"o":"m 625 760 q 853 494 853 760 l 853 0 l 558 0 l 558 392 q 540 479 558 451 q 478 507 522 507 q 422 488 449 507 q 374 436 394 469 l 374 0 l 79 0 l 79 735 l 374 735 l 374 617 q 625 760 451 760 m 467 -82 q 547 -110 517 -82 q 578 -197 578 -139 q 536 -326 578 -258 q 431 -444 494 -394 l 354 -374 q 432 -281 406 -326 q 376 -247 397 -272 q 354 -186 354 -222 q 387 -111 354 -140 q 467 -82 419 -82 z "},"Ň":{"ha":1065,"x_min":103,"x_max":963,"o":"m 963 986 l 963 0 l 661 0 l 367 501 l 367 0 l 103 0 l 103 986 l 417 986 l 699 554 l 699 986 l 963 986 m 833 1267 l 644 1067 l 422 1067 l 233 1267 l 458 1267 l 533 1169 l 608 1267 l 833 1267 z "},"ň":{"ha":932,"x_min":79,"x_max":853,"o":"m 625 760 q 853 494 853 760 l 853 0 l 558 0 l 558 392 q 540 479 558 451 q 478 507 522 507 q 422 488 449 507 q 374 436 394 469 l 374 0 l 79 0 l 79 735 l 374 735 l 374 617 q 625 760 451 760 m 758 1042 l 600 819 l 325 819 l 167 1042 l 389 1042 l 463 947 l 536 1042 l 758 1042 z "},"Ŋ":{"ha":1065,"x_min":103,"x_max":963,"o":"m 963 986 l 963 -1 q 883 -228 963 -160 q 681 -296 804 -296 q 496 -274 578 -296 l 514 -60 q 549 -65 524 -61 q 596 -69 574 -69 q 667 -46 643 -69 q 697 24 690 -22 l 367 519 l 367 0 l 103 0 l 103 986 l 417 986 l 699 554 l 699 986 l 963 986 z "},"ŋ":{"ha":932,"x_min":79,"x_max":853,"o":"m 625 760 q 853 494 853 760 l 853 -1 q 779 -211 853 -135 q 542 -287 706 -287 q 451 -285 507 -287 l 451 -57 l 475 -57 q 538 -34 518 -57 q 558 28 558 -11 l 558 392 q 540 479 558 451 q 478 507 522 507 q 422 488 449 507 q 374 436 394 469 l 374 0 l 79 0 l 79 735 l 374 735 l 374 617 q 625 760 451 760 z "},"Ō":{"ha":1113,"x_min":51,"x_max":1061,"o":"m 556 -25 q 301 40 417 -25 q 119 222 186 104 q 51 493 51 340 q 119 764 51 646 q 301 947 186 882 q 556 1011 417 1011 q 810 947 694 1011 q 994 764 926 882 q 1061 493 1061 646 q 994 222 1061 340 q 810 40 926 104 q 556 -25 694 -25 m 556 261 q 686 320 633 261 q 739 493 739 379 q 686 666 739 607 q 556 725 633 725 q 426 666 478 725 q 375 493 375 607 q 426 320 375 379 q 556 261 478 261 m 765 1085 l 349 1085 l 349 1251 l 765 1251 l 765 1085 z "},"ō":{"ha":907,"x_min":35,"x_max":872,"o":"m 453 -25 q 242 22 338 -25 q 91 158 147 69 q 35 368 35 247 q 91 578 35 490 q 243 713 147 667 q 454 760 339 760 q 665 713 569 760 q 816 578 760 667 q 872 368 872 490 q 815 158 872 247 q 663 22 758 69 q 453 -25 568 -25 m 453 235 q 528 272 500 235 q 556 368 556 310 q 528 464 556 428 q 453 500 500 500 q 378 464 406 500 q 351 368 351 428 q 378 272 351 308 q 453 235 406 235 m 663 819 l 246 819 l 246 986 l 663 986 l 663 819 z "},"Ŏ":{"ha":1113,"x_min":51,"x_max":1061,"o":"m 556 -25 q 301 40 417 -25 q 119 222 186 104 q 51 493 51 340 q 119 764 51 646 q 301 947 186 882 q 556 1011 417 1011 q 810 947 694 1011 q 994 764 926 882 q 1061 493 1061 646 q 994 222 1061 340 q 810 40 926 104 q 556 -25 694 -25 m 556 261 q 686 320 633 261 q 739 493 739 379 q 686 666 739 607 q 556 725 633 725 q 426 666 478 725 q 375 493 375 607 q 426 320 375 379 q 556 261 478 261 m 557 1060 q 370 1113 438 1060 q 301 1267 303 1165 l 479 1267 q 557 1196 485 1196 q 635 1267 631 1196 l 813 1267 q 739 1112 804 1164 q 557 1060 674 1060 z "},"ŏ":{"ha":907,"x_min":35,"x_max":872,"o":"m 453 -25 q 242 22 338 -25 q 91 158 147 69 q 35 368 35 247 q 91 578 35 490 q 243 713 147 667 q 454 760 339 760 q 665 713 569 760 q 816 578 760 667 q 872 368 872 490 q 815 158 872 247 q 663 22 758 69 q 453 -25 568 -25 m 453 235 q 528 272 500 235 q 556 368 556 310 q 528 464 556 428 q 453 500 500 500 q 378 464 406 500 q 351 368 351 428 q 378 272 351 308 q 453 235 406 235 m 454 813 q 267 871 335 813 q 199 1042 200 929 l 376 1042 q 400 981 379 1000 q 454 963 421 963 q 509 981 488 963 q 532 1042 531 1000 l 710 1042 q 636 870 701 928 q 454 813 571 813 z "},"Ő":{"ha":1113,"x_min":51,"x_max":1076,"o":"m 556 -25 q 301 40 417 -25 q 119 222 186 104 q 51 493 51 340 q 119 764 51 646 q 301 947 186 882 q 556 1011 417 1011 q 810 947 694 1011 q 994 764 926 882 q 1061 493 1061 646 q 994 222 1061 340 q 810 40 926 104 q 556 -25 694 -25 m 556 261 q 686 320 633 261 q 739 493 739 379 q 686 666 739 607 q 556 725 633 725 q 426 666 478 725 q 375 493 375 607 q 426 320 375 379 q 556 261 478 261 m 501 1067 l 279 1067 l 479 1267 l 743 1267 l 501 1067 m 835 1067 l 613 1067 l 813 1267 l 1076 1267 l 835 1067 z "},"ő":{"ha":907,"x_min":35,"x_max":932,"o":"m 453 -25 q 242 22 338 -25 q 91 158 147 69 q 35 368 35 247 q 91 578 35 490 q 243 713 147 667 q 454 760 339 760 q 665 713 569 760 q 816 578 760 667 q 872 368 872 490 q 815 158 872 247 q 663 22 758 69 q 453 -25 568 -25 m 453 235 q 528 272 500 235 q 556 368 556 310 q 528 464 556 428 q 453 500 500 500 q 378 464 406 500 q 351 368 351 428 q 378 272 351 308 q 453 235 406 235 m 599 1042 l 399 819 l 176 819 l 335 1042 l 599 1042 m 932 1042 l 732 819 l 510 819 l 668 1042 l 932 1042 z "},"Œ":{"ha":1440,"x_min":51,"x_max":1360,"o":"m 1044 731 l 1044 617 l 1315 617 l 1315 392 l 1044 392 l 1044 256 l 1360 256 l 1360 0 l 704 0 q 556 -21 636 -21 q 301 43 415 -21 q 119 224 186 107 q 51 493 51 340 q 119 763 51 646 q 301 943 186 879 q 556 1007 415 1007 q 704 986 635 1007 l 1360 986 l 1360 731 l 1044 731 m 556 263 q 687 321 635 263 q 739 493 739 379 q 687 665 739 607 q 556 724 635 724 q 426 665 478 724 q 375 493 375 607 q 426 321 375 379 q 556 263 478 263 z "},"œ":{"ha":1344,"x_min":35,"x_max":1307,"o":"m 1307 315 l 846 315 q 914 243 867 261 q 1033 225 961 225 q 1207 253 1129 225 l 1272 31 q 994 -19 1165 -19 q 694 74 803 -19 q 581 3 646 28 q 439 -21 515 -21 q 238 26 331 -21 q 90 160 146 72 q 35 368 35 249 q 90 578 35 489 q 239 713 146 667 q 440 760 332 760 q 583 735 517 760 q 696 664 649 711 q 808 735 744 710 q 946 760 872 760 q 1208 668 1110 760 q 1307 414 1307 576 l 1307 315 m 929 546 q 871 520 894 546 q 839 444 847 494 l 1014 444 q 929 546 1001 546 m 453 238 q 528 274 500 238 q 556 368 556 310 q 528 465 556 428 q 453 503 500 503 q 378 465 406 503 q 351 368 351 428 q 378 274 351 310 q 453 238 406 238 z "},"Ŕ":{"ha":1014,"x_min":103,"x_max":983,"o":"m 450 308 l 408 308 l 408 0 l 103 0 l 103 986 l 563 986 q 857 901 756 986 q 958 658 958 815 q 906 462 958 544 q 753 340 854 379 l 983 0 l 632 0 l 450 308 m 408 506 l 490 506 q 635 626 635 506 q 600 706 635 682 q 490 731 565 731 l 408 731 l 408 506 m 590 1067 l 368 1067 l 568 1267 l 832 1267 l 590 1067 z "},"ŕ":{"ha":675,"x_min":79,"x_max":619,"o":"m 374 547 q 468 692 403 636 q 619 747 533 747 l 619 431 q 439 390 504 435 q 374 222 374 346 l 374 0 l 79 0 l 79 735 l 374 735 l 374 547 m 536 1042 l 336 819 l 114 819 l 272 1042 l 536 1042 z "},"Ŗ":{"ha":1014,"x_min":103,"x_max":983,"o":"m 450 308 l 408 308 l 408 0 l 103 0 l 103 986 l 563 986 q 857 901 756 986 q 958 658 958 815 q 906 462 958 544 q 753 340 854 379 l 983 0 l 632 0 l 450 308 m 408 506 l 490 506 q 635 626 635 506 q 600 706 635 682 q 490 731 565 731 l 408 731 l 408 506 m 506 -82 q 586 -110 556 -82 q 617 -197 617 -139 q 576 -326 617 -258 q 471 -444 535 -393 l 394 -374 q 471 -281 443 -329 q 416 -248 438 -274 q 394 -186 394 -222 q 426 -111 394 -140 q 506 -82 458 -82 z "},"ŗ":{"ha":675,"x_min":79,"x_max":619,"o":"m 374 547 q 468 692 403 636 q 619 747 533 747 l 619 431 q 439 390 504 435 q 374 222 374 346 l 374 0 l 79 0 l 79 735 l 374 735 l 374 547 m 225 -82 q 306 -110 275 -82 q 336 -197 336 -139 q 294 -326 336 -258 q 189 -444 253 -394 l 113 -374 q 190 -281 164 -326 q 134 -247 156 -272 q 113 -186 113 -222 q 145 -111 113 -140 q 225 -82 178 -82 z "},"Ř":{"ha":1014,"x_min":103,"x_max":983,"o":"m 450 308 l 408 308 l 408 0 l 103 0 l 103 986 l 563 986 q 857 901 756 986 q 958 658 958 815 q 906 462 958 544 q 753 340 854 379 l 983 0 l 632 0 l 450 308 m 408 506 l 490 506 q 635 626 635 506 q 600 706 635 682 q 490 731 565 731 l 408 731 l 408 506 m 779 1267 l 590 1067 l 368 1067 l 179 1267 l 404 1267 l 479 1169 l 554 1267 l 779 1267 z "},"ř":{"ha":675,"x_min":-71,"x_max":619,"o":"m 374 547 q 468 692 403 636 q 619 747 533 747 l 619 431 q 439 390 504 435 q 374 222 374 346 l 374 0 l 79 0 l 79 735 l 374 735 l 374 547 m 521 1042 l 363 819 l 88 819 l -71 1042 l 151 1042 l 225 947 l 299 1042 l 521 1042 z "},"Ś":{"ha":850,"x_min":21,"x_max":817,"o":"m 440 -25 q 194 13 293 -25 q 21 115 96 51 l 121 326 q 272 245 214 271 q 397 219 331 219 q 469 235 444 219 q 493 276 493 250 q 467 320 493 304 q 386 351 442 336 q 219 409 283 381 q 104 503 156 438 q 53 683 53 569 q 106 868 53 794 q 246 976 160 942 q 431 1011 332 1011 q 645 978 560 1011 q 792 886 731 946 l 688 688 q 558 750 608 731 q 454 769 507 769 q 385 756 411 769 q 360 717 360 742 q 387 676 360 692 q 471 644 414 661 q 646 584 582 611 q 763 494 710 557 q 817 325 817 431 q 713 64 817 153 q 440 -25 608 -25 m 536 1067 l 314 1067 l 514 1267 l 778 1267 l 536 1067 z "},"ś":{"ha":738,"x_min":21,"x_max":708,"o":"m 369 -25 q 167 1 256 -25 q 21 75 78 28 l 107 251 l 133 240 q 247 196 199 211 q 351 181 296 181 q 408 213 408 181 q 389 240 408 232 q 340 254 369 249 q 299 263 310 260 q 116 337 188 285 q 44 507 44 389 q 138 700 44 640 q 376 760 231 760 q 555 736 472 760 q 688 672 638 713 l 599 507 q 486 549 533 536 q 392 563 439 563 q 329 532 329 563 q 349 506 329 514 q 429 485 368 499 q 572 444 515 465 q 668 376 628 424 q 708 249 708 329 q 621 42 708 110 q 369 -25 533 -25 m 681 1042 l 481 819 l 258 819 l 417 1042 l 681 1042 z "},"Ŝ":{"ha":850,"x_min":21,"x_max":817,"o":"m 440 -25 q 194 13 293 -25 q 21 115 96 51 l 121 326 q 272 245 214 271 q 397 219 331 219 q 469 235 444 219 q 493 276 493 250 q 467 320 493 304 q 386 351 442 336 q 219 409 283 381 q 104 503 156 438 q 53 683 53 569 q 106 868 53 794 q 246 976 160 942 q 431 1011 332 1011 q 645 978 560 1011 q 792 886 731 946 l 688 688 q 558 750 608 731 q 454 769 507 769 q 385 756 411 769 q 360 717 360 742 q 387 676 360 692 q 471 644 414 661 q 646 584 582 611 q 763 494 710 557 q 817 325 817 431 q 713 64 817 153 q 440 -25 608 -25 m 500 1067 l 425 1164 l 350 1067 l 125 1067 l 314 1267 l 536 1267 l 725 1067 l 500 1067 z "},"ŝ":{"ha":738,"x_min":21,"x_max":708,"o":"m 369 -25 q 167 1 256 -25 q 21 75 78 28 l 107 251 l 133 240 q 247 196 199 211 q 351 181 296 181 q 408 213 408 181 q 389 240 408 232 q 340 254 369 249 q 299 263 310 260 q 116 337 188 285 q 44 507 44 389 q 138 700 44 640 q 376 760 231 760 q 555 736 472 760 q 688 672 638 713 l 599 507 q 486 549 533 536 q 392 563 439 563 q 329 532 329 563 q 349 506 329 514 q 429 485 368 499 q 572 444 515 465 q 668 376 628 424 q 708 249 708 329 q 621 42 708 110 q 369 -25 533 -25 m 443 819 l 369 914 l 296 819 l 74 819 l 232 1042 l 507 1042 l 665 819 l 443 819 z "},"Ş":{"ha":850,"x_min":21,"x_max":817,"o":"m 817 325 q 727 77 817 165 q 489 -24 638 -11 l 456 -68 q 476 -67 464 -67 q 582 -100 544 -67 q 619 -193 619 -133 q 558 -293 619 -257 q 394 -329 497 -329 q 294 -315 339 -329 q 204 -269 250 -300 l 264 -176 q 328 -210 303 -200 q 381 -219 354 -219 q 429 -187 429 -219 q 385 -156 429 -156 q 339 -162 369 -156 l 272 -122 l 350 -21 q 162 26 240 -10 q 21 115 83 63 l 121 326 q 272 245 214 271 q 397 219 331 219 q 469 235 444 219 q 493 276 493 250 q 467 320 493 304 q 386 351 442 336 q 219 409 283 381 q 104 503 156 438 q 53 683 53 569 q 106 868 53 794 q 246 976 160 942 q 431 1011 332 1011 q 645 978 560 1011 q 792 886 731 946 l 688 688 q 558 750 608 731 q 454 769 507 769 q 385 756 411 769 q 360 717 360 742 q 387 676 360 692 q 471 644 414 661 q 646 584 582 611 q 763 494 710 557 q 817 325 817 431 z "},"ş":{"ha":738,"x_min":21,"x_max":708,"o":"m 708 249 q 638 57 708 124 q 433 -22 567 -10 l 400 -68 q 421 -67 408 -67 q 526 -100 489 -67 q 564 -193 564 -133 q 503 -293 564 -257 q 339 -329 442 -329 q 239 -315 283 -329 q 149 -269 194 -300 l 208 -176 q 273 -210 247 -200 q 325 -219 299 -219 q 374 -187 374 -219 q 329 -156 374 -156 q 283 -162 314 -156 l 217 -122 l 294 -22 q 21 75 117 -6 l 107 251 l 133 240 q 247 196 199 211 q 351 181 296 181 q 408 213 408 181 q 389 240 408 232 q 340 254 369 249 q 299 263 310 260 q 116 337 188 285 q 44 507 44 389 q 138 700 44 640 q 376 760 231 760 q 555 736 472 760 q 688 672 638 713 l 599 507 q 486 549 533 536 q 392 563 439 563 q 329 532 329 563 q 349 506 329 514 q 429 485 368 499 q 572 444 515 465 q 668 376 628 424 q 708 249 708 329 z "},"Š":{"ha":850,"x_min":21,"x_max":817,"o":"m 440 -25 q 194 13 293 -25 q 21 115 96 51 l 121 326 q 272 245 214 271 q 397 219 331 219 q 469 235 444 219 q 493 276 493 250 q 467 320 493 304 q 386 351 442 336 q 219 409 283 381 q 104 503 156 438 q 53 683 53 569 q 106 868 53 794 q 246 976 160 942 q 431 1011 332 1011 q 645 978 560 1011 q 792 886 731 946 l 688 688 q 558 750 608 731 q 454 769 507 769 q 385 756 411 769 q 360 717 360 742 q 387 676 360 692 q 471 644 414 661 q 646 584 582 611 q 763 494 710 557 q 817 325 817 431 q 713 64 817 153 q 440 -25 608 -25 m 725 1267 l 536 1067 l 314 1067 l 125 1267 l 350 1267 l 425 1169 l 500 1267 l 725 1267 z "},"š":{"ha":738,"x_min":21,"x_max":708,"o":"m 369 -25 q 167 1 256 -25 q 21 75 78 28 l 107 251 l 133 240 q 247 196 199 211 q 351 181 296 181 q 408 213 408 181 q 389 240 408 232 q 340 254 369 249 q 299 263 310 260 q 116 337 188 285 q 44 507 44 389 q 138 700 44 640 q 376 760 231 760 q 555 736 472 760 q 688 672 638 713 l 599 507 q 486 549 533 536 q 392 563 439 563 q 329 532 329 563 q 349 506 329 514 q 429 485 368 499 q 572 444 515 465 q 668 376 628 424 q 708 249 708 329 q 621 42 708 110 q 369 -25 533 -25 m 665 1042 l 507 819 l 232 819 l 74 1042 l 296 1042 l 369 947 l 443 1042 l 665 1042 z "},"Ţ":{"ha":836,"x_min":40,"x_max":796,"o":"m 796 725 l 571 725 l 571 0 l 265 0 l 265 725 l 40 725 l 40 986 l 796 986 l 796 725 m 388 -329 q 288 -315 332 -329 q 197 -269 243 -300 l 257 -176 q 322 -210 296 -200 q 374 -219 347 -219 q 422 -187 422 -219 q 378 -156 422 -156 q 332 -162 363 -156 l 265 -122 l 360 0 l 499 0 l 449 -68 q 469 -67 457 -67 q 575 -100 538 -67 q 613 -193 613 -133 q 551 -293 613 -257 q 388 -329 490 -329 z "},"ţ":{"ha":674,"x_min":19,"x_max":621,"o":"m 375 -67 q 481 -100 443 -67 q 518 -193 518 -133 q 457 -293 518 -257 q 293 -329 396 -329 q 193 -315 238 -329 q 103 -269 149 -300 l 163 -176 q 227 -210 201 -200 q 279 -219 253 -219 q 328 -187 328 -219 q 283 -156 328 -156 q 238 -162 268 -156 l 171 -122 l 260 -7 q 172 49 201 11 q 132 135 142 86 q 122 260 122 185 l 122 508 l 19 508 l 19 735 l 122 735 l 122 888 l 417 938 l 417 735 l 594 735 l 594 508 l 417 508 l 417 311 q 435 244 417 263 q 500 226 453 226 q 617 235 569 226 l 621 -4 q 530 -17 597 -10 q 408 -25 463 -25 l 386 -25 l 354 -68 q 375 -67 363 -67 z "},"Ť":{"ha":836,"x_min":40,"x_max":796,"o":"m 796 725 l 571 725 l 571 0 l 265 0 l 265 725 l 40 725 l 40 986 l 796 986 l 796 725 m 718 1267 l 529 1067 l 307 1067 l 118 1267 l 343 1267 l 418 1169 l 493 1267 l 718 1267 z "},"ť":{"ha":674,"x_min":19,"x_max":711,"o":"m 621 -4 q 530 -17 597 -10 q 408 -25 463 -25 q 222 10 283 -25 q 141 103 160 44 q 122 260 122 161 l 122 508 l 19 508 l 19 735 l 122 735 l 122 888 l 417 938 l 417 735 l 594 735 l 594 508 l 417 508 l 417 311 q 435 244 417 263 q 500 226 453 226 q 617 235 569 226 l 621 -4 m 646 789 l 465 789 l 489 1042 l 711 1042 l 646 789 z "},"Ŧ":{"ha":808,"x_min":26,"x_max":782,"o":"m 557 725 l 557 506 l 724 506 l 724 308 l 557 308 l 557 0 l 251 0 l 251 308 l 57 308 l 57 506 l 251 506 l 251 725 l 26 725 l 26 986 l 782 986 l 782 725 l 557 725 z "},"ŧ":{"ha":674,"x_min":19,"x_max":621,"o":"m 621 -4 q 530 -17 597 -10 q 408 -25 463 -25 q 222 10 283 -25 q 141 103 160 44 q 122 260 122 161 l 122 307 l 26 307 l 26 421 l 122 421 l 122 508 l 19 508 l 19 735 l 122 735 l 122 888 l 417 938 l 417 735 l 594 735 l 594 508 l 417 508 l 417 421 l 600 421 l 600 307 l 417 307 q 435 244 418 261 q 500 226 453 226 q 617 235 569 226 l 621 -4 z "},"Ũ":{"ha":1026,"x_min":92,"x_max":935,"o":"m 511 -25 q 208 67 325 -25 q 92 346 92 158 l 92 986 l 397 986 l 397 400 q 422 290 396 328 q 511 253 449 253 q 601 290 574 253 q 629 400 629 328 l 629 986 l 935 986 l 935 346 q 818 67 935 158 q 511 -25 701 -25 m 632 1057 q 569 1064 600 1057 q 513 1078 539 1071 q 481 1089 488 1086 q 393 1111 419 1111 q 360 1101 371 1111 q 347 1067 350 1090 l 228 1067 q 272 1221 231 1165 q 394 1276 314 1276 q 460 1268 428 1276 q 543 1243 493 1260 q 593 1228 568 1235 q 633 1221 618 1221 q 679 1267 672 1221 l 799 1267 q 754 1112 796 1167 q 632 1057 713 1057 z "},"ũ":{"ha":875,"x_min":65,"x_max":810,"o":"m 436 -25 q 160 48 256 -25 q 65 294 65 121 l 65 735 l 360 735 l 360 292 q 378 233 360 256 q 436 211 396 211 q 497 233 478 211 q 515 292 515 256 l 515 735 l 810 735 l 810 294 q 713 48 810 121 q 436 -25 617 -25 m 556 819 q 487 828 521 819 q 404 853 453 836 q 317 875 343 875 q 284 864 294 875 q 271 829 274 853 l 151 829 q 196 986 154 931 q 318 1042 238 1042 q 384 1033 351 1042 q 467 1008 417 1025 q 517 993 492 1000 q 557 986 542 986 q 603 1032 596 986 l 722 1032 q 678 875 719 931 q 556 819 636 819 z "},"Ū":{"ha":1026,"x_min":92,"x_max":935,"o":"m 511 -25 q 208 67 325 -25 q 92 346 92 158 l 92 986 l 397 986 l 397 400 q 422 290 396 328 q 511 253 449 253 q 601 290 574 253 q 629 400 629 328 l 629 986 l 935 986 l 935 346 q 818 67 935 158 q 511 -25 701 -25 m 722 1085 l 306 1085 l 306 1251 l 722 1251 l 722 1085 z "},"ū":{"ha":875,"x_min":65,"x_max":810,"o":"m 436 -25 q 160 48 256 -25 q 65 294 65 121 l 65 735 l 360 735 l 360 292 q 378 233 360 256 q 436 211 396 211 q 497 233 478 211 q 515 292 515 256 l 515 735 l 810 735 l 810 294 q 713 48 810 121 q 436 -25 617 -25 m 644 819 l 228 819 l 228 986 l 644 986 l 644 819 z "},"Ŭ":{"ha":1026,"x_min":92,"x_max":935,"o":"m 511 -25 q 208 67 325 -25 q 92 346 92 158 l 92 986 l 397 986 l 397 400 q 422 290 396 328 q 511 253 449 253 q 601 290 574 253 q 629 400 629 328 l 629 986 l 935 986 l 935 346 q 818 67 935 158 q 511 -25 701 -25 m 514 1060 q 327 1113 394 1060 q 258 1267 260 1165 l 436 1267 q 514 1196 442 1196 q 592 1267 588 1196 l 769 1267 q 696 1112 761 1164 q 514 1060 631 1060 z "},"ŭ":{"ha":875,"x_min":65,"x_max":810,"o":"m 436 -25 q 160 48 256 -25 q 65 294 65 121 l 65 735 l 360 735 l 360 292 q 378 233 360 256 q 436 211 396 211 q 497 233 478 211 q 515 292 515 256 l 515 735 l 810 735 l 810 294 q 713 48 810 121 q 436 -25 617 -25 m 436 813 q 249 871 317 813 q 181 1042 182 929 l 358 1042 q 382 981 361 1000 q 436 963 403 963 q 491 981 469 963 q 514 1042 513 1000 l 692 1042 q 618 870 683 928 q 436 813 553 813 z "},"Ů":{"ha":1026,"x_min":92,"x_max":935,"o":"m 511 -25 q 208 67 325 -25 q 92 346 92 158 l 92 986 l 397 986 l 397 400 q 422 290 396 328 q 511 253 449 253 q 601 290 574 253 q 629 400 629 328 l 629 986 l 935 986 l 935 346 q 818 67 935 158 q 511 -25 701 -25 m 514 1069 q 402 1106 443 1069 q 361 1207 361 1143 q 402 1313 361 1274 q 514 1351 443 1351 q 626 1313 585 1351 q 667 1207 667 1274 q 626 1106 667 1143 q 514 1069 585 1069 m 514 1146 q 565 1163 546 1146 q 585 1208 585 1179 q 565 1257 585 1239 q 514 1275 546 1275 q 463 1257 482 1275 q 443 1208 443 1239 q 463 1163 443 1179 q 514 1146 482 1146 z "},"ů":{"ha":875,"x_min":65,"x_max":810,"o":"m 436 -25 q 160 48 256 -25 q 65 294 65 121 l 65 735 l 360 735 l 360 292 q 378 233 360 256 q 436 211 396 211 q 497 233 478 211 q 515 292 515 256 l 515 735 l 810 735 l 810 294 q 713 48 810 121 q 436 -25 617 -25 m 436 819 q 310 861 357 819 q 264 974 264 903 q 310 1092 264 1049 q 436 1136 357 1136 q 562 1092 515 1136 q 608 974 608 1049 q 562 861 608 903 q 436 819 515 819 m 436 915 q 486 932 468 915 q 504 976 504 949 q 485 1023 504 1006 q 436 1040 467 1040 q 387 1023 406 1040 q 368 976 368 1006 q 386 932 368 949 q 436 915 404 915 z "},"Ű":{"ha":1026,"x_min":92,"x_max":1033,"o":"m 511 -25 q 208 67 325 -25 q 92 346 92 158 l 92 986 l 397 986 l 397 400 q 422 290 396 328 q 511 253 449 253 q 601 290 574 253 q 629 400 629 328 l 629 986 l 935 986 l 935 346 q 818 67 935 158 q 511 -25 701 -25 m 458 1067 l 236 1067 l 436 1267 l 700 1267 l 458 1067 m 792 1067 l 569 1067 l 769 1267 l 1033 1267 l 792 1067 z "},"ű":{"ha":875,"x_min":65,"x_max":914,"o":"m 436 -25 q 160 48 256 -25 q 65 294 65 121 l 65 735 l 360 735 l 360 292 q 378 233 360 256 q 436 211 396 211 q 497 233 478 211 q 515 292 515 256 l 515 735 l 810 735 l 810 294 q 713 48 810 121 q 436 -25 617 -25 m 581 1042 l 381 819 l 158 819 l 317 1042 l 581 1042 m 914 1042 l 714 819 l 492 819 l 650 1042 l 914 1042 z "},"Ų":{"ha":1026,"x_min":92,"x_max":935,"o":"m 935 986 l 935 346 q 858 106 935 194 q 647 -11 782 18 q 558 -73 593 -39 q 522 -144 522 -107 q 538 -184 522 -171 q 578 -197 553 -197 q 617 -192 600 -197 q 656 -172 635 -186 l 708 -293 q 641 -333 678 -318 q 535 -347 604 -347 q 390 -306 443 -347 q 336 -187 336 -265 q 362 -94 336 -135 q 443 -22 388 -53 q 188 85 283 -6 q 92 346 92 176 l 92 986 l 397 986 l 397 400 q 422 290 396 328 q 511 253 449 253 q 601 290 574 253 q 629 400 629 328 l 629 986 l 935 986 z "},"ų":{"ha":875,"x_min":65,"x_max":810,"o":"m 810 735 l 810 294 q 741 75 810 150 q 543 -18 672 0 q 478 -72 503 -42 q 453 -132 453 -101 q 468 -172 453 -158 q 508 -185 483 -185 q 548 -179 531 -185 q 586 -160 565 -174 l 639 -281 q 572 -320 608 -306 q 465 -335 535 -335 q 320 -294 374 -335 q 267 -175 267 -253 q 354 -21 267 -79 q 140 67 214 -7 q 65 294 65 142 l 65 735 l 360 735 l 360 292 q 378 233 360 256 q 436 211 396 211 q 497 233 478 211 q 515 292 515 256 l 515 735 l 810 735 z "},"Ŵ":{"ha":1600,"x_min":7,"x_max":1593,"o":"m 1593 986 l 1258 0 l 982 0 l 800 565 l 617 0 l 340 0 l 7 986 l 343 986 l 511 429 l 685 986 l 951 986 l 1125 429 l 1293 986 l 1593 986 m 889 1067 l 814 1164 l 739 1067 l 514 1067 l 703 1267 l 925 1267 l 1114 1067 l 889 1067 z "},"ŵ":{"ha":1218,"x_min":-14,"x_max":1225,"o":"m 1225 735 l 979 0 l 715 0 l 585 411 l 469 0 l 206 0 l -14 735 l 281 735 l 375 342 l 481 735 l 733 735 l 847 331 l 954 735 l 1225 735 m 683 819 l 610 914 l 536 819 l 314 819 l 472 1042 l 747 1042 l 906 819 l 683 819 z "},"Ŷ":{"ha":915,"x_min":-21,"x_max":929,"o":"m 607 364 l 607 0 l 301 0 l 301 361 l -21 986 l 315 986 l 472 664 l 629 986 l 929 986 l 607 364 m 533 1067 l 458 1164 l 383 1067 l 158 1067 l 347 1267 l 569 1267 l 758 1067 l 533 1067 z "},"ŷ":{"ha":799,"x_min":-21,"x_max":819,"o":"m 819 735 l 494 -28 q 192 -262 394 -262 q 53 -247 124 -262 l 69 -28 q 157 -33 113 -33 q 276 13 242 -33 l -21 735 l 276 735 l 413 372 l 542 735 l 819 735 m 476 819 l 403 914 l 329 819 l 107 819 l 265 1042 l 540 1042 l 699 819 l 476 819 z "},"Ÿ":{"ha":915,"x_min":-21,"x_max":929,"o":"m 607 364 l 607 0 l 301 0 l 301 361 l -21 986 l 315 986 l 472 664 l 629 986 l 929 986 l 607 364 m 297 1056 q 209 1087 242 1056 q 176 1175 176 1118 q 210 1265 176 1231 q 297 1299 243 1299 q 387 1265 353 1299 q 421 1175 421 1232 q 388 1087 421 1118 q 297 1056 354 1056 m 621 1056 q 531 1087 565 1056 q 497 1175 497 1118 q 531 1265 497 1231 q 621 1299 565 1299 q 708 1265 675 1299 q 742 1175 742 1231 q 709 1087 742 1118 q 621 1056 676 1056 z "},"Ź":{"ha":840,"x_min":54,"x_max":800,"o":"m 75 731 l 75 986 l 776 986 l 776 731 l 396 256 l 800 256 l 800 0 l 54 0 l 54 256 l 421 731 l 75 731 m 538 1067 l 315 1067 l 515 1267 l 779 1267 l 538 1067 z "},"ź":{"ha":721,"x_min":31,"x_max":689,"o":"m 689 206 l 689 0 l 31 0 l 31 206 l 325 529 l 51 529 l 51 735 l 676 735 l 676 529 l 385 206 l 689 206 m 672 1042 l 472 819 l 250 819 l 408 1042 l 672 1042 z "},"Ż":{"ha":840,"x_min":54,"x_max":800,"o":"m 75 731 l 75 986 l 776 986 l 776 731 l 396 256 l 800 256 l 800 0 l 54 0 l 54 256 l 421 731 l 75 731 m 426 1054 q 320 1086 361 1054 q 279 1174 279 1118 q 320 1266 279 1231 q 426 1301 361 1301 q 533 1266 492 1301 q 574 1174 574 1231 q 533 1086 574 1118 q 426 1054 493 1054 z "},"ż":{"ha":721,"x_min":31,"x_max":689,"o":"m 689 206 l 689 0 l 31 0 l 31 206 l 325 529 l 51 529 l 51 735 l 676 735 l 676 529 l 385 206 l 689 206 m 361 807 q 237 846 285 807 q 189 950 189 885 q 237 1056 189 1017 q 361 1096 285 1096 q 486 1056 439 1096 q 533 950 533 1017 q 486 846 533 885 q 361 807 439 807 z "},"Ž":{"ha":840,"x_min":54,"x_max":800,"o":"m 75 731 l 75 986 l 776 986 l 776 731 l 396 256 l 800 256 l 800 0 l 54 0 l 54 256 l 421 731 l 75 731 m 726 1267 l 538 1067 l 315 1067 l 126 1267 l 351 1267 l 426 1169 l 501 1267 l 726 1267 z "},"ž":{"ha":721,"x_min":31,"x_max":689,"o":"m 689 206 l 689 0 l 31 0 l 31 206 l 325 529 l 51 529 l 51 735 l 676 735 l 676 529 l 385 206 l 689 206 m 657 1042 l 499 819 l 224 819 l 65 1042 l 288 1042 l 361 947 l 435 1042 l 657 1042 z "},"ƒ":{"ha":615,"x_min":-129,"x_max":646,"o":"m 533 836 q 475 823 494 836 q 451 779 456 810 l 446 735 l 590 735 l 560 481 l 415 481 l 356 0 q 259 -194 339 -129 q 13 -258 179 -258 q -129 -249 -81 -258 l -101 -24 q -17 -28 -60 -28 q 42 -15 22 -28 q 65 29 61 -1 l 121 481 l 28 481 l 58 735 l 151 735 l 161 808 q 258 1002 178 938 q 504 1067 338 1067 q 646 1057 597 1067 l 618 832 q 533 836 576 836 z "},"Ǽ":{"ha":1376,"x_min":0,"x_max":1296,"o":"m 981 731 l 981 617 l 1251 617 l 1251 392 l 981 392 l 981 256 l 1296 256 l 1296 0 l 675 0 l 675 175 l 386 175 l 297 0 l 0 0 l 501 986 l 1296 986 l 1296 731 l 981 731 m 675 363 l 675 744 l 482 363 l 675 363 m 871 1067 l 649 1067 l 849 1267 l 1113 1267 l 871 1067 z "},"ǽ":{"ha":1301,"x_min":35,"x_max":1264,"o":"m 1264 315 l 803 315 q 871 243 824 261 q 990 225 918 225 q 1164 253 1086 225 l 1229 31 q 1099 -8 1169 3 q 938 -19 1028 -19 q 563 115 676 -19 q 439 14 517 49 q 267 -21 361 -21 q 98 35 161 -21 q 35 194 35 92 q 140 384 35 324 q 485 446 244 444 l 485 457 q 456 514 485 497 q 371 531 426 531 q 174 482 263 531 l 79 665 q 433 761 201 761 q 671 704 588 761 q 889 760 767 760 q 1163 669 1063 760 q 1264 414 1264 578 l 1264 315 m 886 546 q 828 520 851 546 q 796 444 804 494 l 971 444 q 886 546 958 546 m 417 183 q 506 219 472 183 q 486 325 490 263 q 379 300 410 321 q 349 240 349 279 q 366 199 349 214 q 417 183 383 183 m 963 1042 l 763 819 l 540 819 l 699 1042 l 963 1042 z "},"Ǿ":{"ha":1113,"x_min":51,"x_max":1061,"o":"m 968 803 q 1061 493 1061 672 q 994 224 1061 340 q 811 43 926 107 q 556 -21 696 -21 q 393 3 471 -21 q 253 74 315 28 l 160 -21 l 51 88 l 144 182 q 51 493 51 315 q 119 763 51 646 q 301 943 186 879 q 556 1007 415 1007 q 718 983 640 1007 q 860 913 796 958 l 953 1007 l 1061 899 l 968 803 m 357 493 q 365 408 357 446 l 665 714 q 556 747 617 747 q 413 683 469 747 q 357 493 357 618 m 757 493 q 749 579 757 542 l 447 272 q 556 239 496 239 q 699 303 642 239 q 757 493 757 368 m 668 1067 l 446 1067 l 646 1267 l 910 1267 l 668 1067 z "},"ǿ":{"ha":907,"x_min":35,"x_max":872,"o":"m 788 617 q 872 368 872 517 q 816 160 872 247 q 664 26 760 72 q 453 -21 568 -21 q 188 57 299 -21 l 104 -21 l 35 43 l 118 121 q 35 368 35 225 q 91 578 35 490 q 243 713 147 667 q 454 760 339 760 q 597 740 529 760 q 718 682 664 721 l 803 760 l 872 696 l 788 617 m 317 368 q 322 311 317 335 l 539 514 q 453 547 503 547 q 353 497 390 547 q 317 368 317 447 m 590 368 q 585 426 590 390 l 368 225 q 453 193 400 193 q 553 242 515 193 q 590 368 590 290 m 765 1042 l 565 819 l 343 819 l 501 1042 l 765 1042 z "},"Ș":{"ha":850,"x_min":21,"x_max":817,"o":"m 440 -25 q 194 13 293 -25 q 21 115 96 51 l 121 326 q 272 245 214 271 q 397 219 331 219 q 469 235 444 219 q 493 276 493 250 q 467 320 493 304 q 386 351 442 336 q 219 409 283 381 q 104 503 156 438 q 53 683 53 569 q 106 868 53 794 q 246 976 160 942 q 431 1011 332 1011 q 645 978 560 1011 q 792 886 731 946 l 688 688 q 558 750 608 731 q 454 769 507 769 q 385 756 411 769 q 360 717 360 742 q 387 676 360 692 q 471 644 414 661 q 646 584 582 611 q 763 494 710 557 q 817 325 817 431 q 713 64 817 153 q 440 -25 608 -25 m 424 -82 q 504 -110 474 -82 q 535 -197 535 -139 q 494 -326 535 -258 q 389 -444 453 -393 l 313 -374 q 389 -281 361 -329 q 334 -248 356 -274 q 313 -186 313 -222 q 344 -111 313 -140 q 424 -82 376 -82 z "},"ș":{"ha":738,"x_min":21,"x_max":708,"o":"m 369 -25 q 167 1 256 -25 q 21 75 78 28 l 107 251 l 133 240 q 247 196 199 211 q 351 181 296 181 q 408 213 408 181 q 389 240 408 232 q 340 254 369 249 q 299 263 310 260 q 116 337 188 285 q 44 507 44 389 q 138 700 44 640 q 376 760 231 760 q 555 736 472 760 q 688 672 638 713 l 599 507 q 486 549 533 536 q 392 563 439 563 q 329 532 329 563 q 349 506 329 514 q 429 485 368 499 q 572 444 515 465 q 668 376 628 424 q 708 249 708 329 q 621 42 708 110 q 369 -25 533 -25 m 369 -82 q 450 -110 419 -82 q 481 -197 481 -139 q 439 -326 481 -258 q 333 -444 397 -394 l 257 -374 q 335 -281 308 -326 q 278 -247 300 -272 q 257 -186 257 -222 q 290 -111 257 -140 q 369 -82 322 -82 z "},"Ț":{"ha":836,"x_min":40,"x_max":796,"o":"m 796 725 l 571 725 l 571 0 l 265 0 l 265 725 l 40 725 l 40 986 l 796 986 l 796 725 m 417 -82 q 497 -110 467 -82 q 528 -197 528 -139 q 487 -326 528 -258 q 382 -444 446 -393 l 306 -374 q 382 -281 354 -329 q 327 -248 349 -274 q 306 -186 306 -222 q 338 -111 306 -140 q 417 -82 369 -82 z "},"ț":{"ha":674,"x_min":19,"x_max":621,"o":"m 621 -4 q 530 -17 597 -10 q 408 -25 463 -25 q 222 10 283 -25 q 141 103 160 44 q 122 260 122 161 l 122 508 l 19 508 l 19 735 l 122 735 l 122 888 l 417 938 l 417 735 l 594 735 l 594 508 l 417 508 l 417 311 q 435 244 417 263 q 500 226 453 226 q 617 235 569 226 l 621 -4 m 324 -82 q 404 -110 374 -82 q 435 -197 435 -139 q 393 -326 435 -258 q 288 -444 351 -394 l 211 -374 q 289 -281 263 -326 q 233 -247 254 -272 q 211 -186 211 -222 q 244 -111 211 -140 q 324 -82 276 -82 z "},"ȷ":{"ha":503,"x_min":-56,"x_max":399,"o":"m -56 -53 q 21 -57 -14 -57 q 84 -34 64 -57 q 104 28 104 -11 l 104 735 l 399 735 l 399 -1 q 325 -211 399 -135 q 88 -287 251 -287 q -56 -278 -7 -287 l -56 -53 z "},"ˆ":{"ha":833,"x_min":69,"x_max":661,"o":"m 439 819 l 365 914 l 292 819 l 69 819 l 228 1042 l 503 1042 l 661 819 l 439 819 z "},"ˇ":{"ha":833,"x_min":69,"x_max":661,"o":"m 661 1042 l 503 819 l 228 819 l 69 1042 l 292 1042 l 365 947 l 439 1042 l 661 1042 z "},"˘":{"ha":833,"x_min":69,"x_max":581,"o":"m 325 813 q 138 871 206 813 q 69 1042 71 929 l 247 1042 q 271 981 250 1000 q 325 963 292 963 q 380 981 358 963 q 403 1042 401 1000 l 581 1042 q 507 870 572 928 q 325 813 442 813 z "},"˙":{"ha":833,"x_min":69,"x_max":414,"o":"m 242 807 q 117 846 165 807 q 69 950 69 885 q 117 1056 69 1017 q 242 1096 165 1096 q 367 1056 319 1096 q 414 950 414 1017 q 367 846 414 885 q 242 807 319 807 z "},"˚":{"ha":833,"x_min":69,"x_max":414,"o":"m 242 819 q 116 861 163 819 q 69 974 69 903 q 116 1092 69 1049 q 242 1136 163 1136 q 367 1092 321 1136 q 414 974 414 1049 q 367 861 414 903 q 242 819 321 819 m 242 915 q 292 932 274 915 q 310 976 310 949 q 291 1023 310 1006 q 242 1040 272 1040 q 192 1023 211 1040 q 174 976 174 1006 q 192 932 174 949 q 242 915 210 915 z "},"˛":{"ha":833,"x_min":69,"x_max":442,"o":"m 268 -342 q 123 -301 176 -342 q 69 -182 69 -260 q 103 -78 69 -122 q 207 0 136 -33 l 393 0 q 295 -62 335 -26 q 256 -139 256 -99 q 271 -178 256 -165 q 311 -192 286 -192 q 351 -186 333 -192 q 389 -167 368 -181 l 442 -287 q 374 -327 411 -312 q 268 -342 338 -342 z "},"˜":{"ha":833,"x_min":69,"x_max":640,"o":"m 474 819 q 405 828 439 819 q 322 853 371 836 q 235 875 261 875 q 202 864 213 875 q 189 829 192 853 l 69 829 q 114 986 72 931 q 236 1042 156 1042 q 302 1033 269 1042 q 385 1008 335 1025 q 435 993 410 1000 q 475 986 460 986 q 521 1032 514 986 l 640 1032 q 596 875 638 931 q 474 819 554 819 z "},"˝":{"ha":833,"x_min":69,"x_max":825,"o":"m 492 1042 l 292 819 l 69 819 l 228 1042 l 492 1042 m 825 1042 l 625 819 l 403 819 l 561 1042 l 825 1042 z "},"̀":{"ha":0,"x_min":-492,"x_max":-69,"o":"m -69 819 l -292 819 l -492 1042 l -228 1042 l -69 819 z "},"́":{"ha":0,"x_min":-492,"x_max":-69,"o":"m -69 1042 l -269 819 l -492 819 l -333 1042 l -69 1042 z "},"̂":{"ha":0,"x_min":-661,"x_max":-69,"o":"m -292 819 l -365 914 l -439 819 l -661 819 l -503 1042 l -228 1042 l -69 819 l -292 819 z "},"̃":{"ha":0,"x_min":-640,"x_max":-69,"o":"m -236 819 q -305 828 -271 819 q -387 853 -339 836 q -475 875 -449 875 q -508 864 -497 875 q -521 829 -518 853 l -640 829 q -596 986 -637 931 q -474 1042 -554 1042 q -408 1033 -440 1042 q -325 1008 -375 1025 q -275 993 -300 1000 q -235 986 -250 986 q -189 1032 -196 986 l -69 1032 q -114 875 -72 931 q -236 819 -156 819 z "},"̄":{"ha":0,"x_min":-486,"x_max":-69,"o":"m -69 819 l -486 819 l -486 986 l -69 986 l -69 819 z "},"̆":{"ha":0,"x_min":-581,"x_max":-69,"o":"m -325 813 q -512 871 -444 813 q -581 1042 -579 929 l -403 1042 q -379 981 -400 1000 q -325 963 -358 963 q -270 981 -292 963 q -247 1042 -249 1000 l -69 1042 q -143 870 -78 928 q -325 813 -208 813 z "},"̇":{"ha":0,"x_min":-414,"x_max":-69,"o":"m -242 807 q -366 846 -318 807 q -414 950 -414 885 q -366 1056 -414 1017 q -242 1096 -318 1096 q -117 1056 -164 1096 q -69 950 -69 1017 q -117 846 -69 885 q -242 807 -164 807 z "},"̈":{"ha":0,"x_min":-696,"x_max":-69,"o":"m -557 811 q -658 847 -619 811 q -696 944 -696 883 q -657 1047 -696 1008 q -557 1086 -618 1086 q -456 1047 -494 1086 q -418 944 -418 1008 q -456 847 -418 882 q -557 811 -494 811 m -208 811 q -309 847 -271 811 q -347 944 -347 883 q -308 1047 -347 1008 q -208 1086 -269 1086 q -108 1047 -146 1086 q -69 944 -69 1008 q -108 847 -69 882 q -208 811 -146 811 z "},"̊":{"ha":0,"x_min":-414,"x_max":-69,"o":"m -242 819 q -367 861 -321 819 q -414 974 -414 903 q -367 1092 -414 1049 q -242 1136 -321 1136 q -116 1092 -162 1136 q -69 974 -69 1049 q -116 861 -69 903 q -242 819 -162 819 m -242 915 q -192 932 -210 915 q -174 976 -174 949 q -192 1023 -174 1006 q -242 1040 -211 1040 q -291 1023 -272 1040 q -310 976 -310 1006 q -292 932 -310 949 q -242 915 -274 915 z "},"̋":{"ha":0,"x_min":-825,"x_max":-69,"o":"m -403 1042 l -603 819 l -825 819 l -667 1042 l -403 1042 m -69 1042 l -269 819 l -492 819 l -333 1042 l -69 1042 z "},"̌":{"ha":0,"x_min":-661,"x_max":-69,"o":"m -69 1042 l -228 819 l -503 819 l -661 1042 l -439 1042 l -365 947 l -292 1042 l -69 1042 z "},"̒":{"ha":0,"x_min":-293,"x_max":-69,"o":"m -147 1015 q -91 982 -112 1007 q -69 921 -69 957 q -102 846 -69 875 q -182 817 -135 817 q -262 845 -232 817 q -293 932 -293 874 q -251 1061 -293 993 q -146 1179 -210 1129 l -69 1108 q -147 1015 -121 1061 z "},"̦":{"ha":0,"x_min":-293,"x_max":-69,"o":"m -181 -82 q -100 -110 -131 -82 q -69 -197 -69 -139 q -111 -326 -69 -258 q -217 -444 -153 -394 l -293 -374 q -215 -281 -242 -326 q -272 -247 -250 -272 q -293 -186 -293 -222 q -260 -111 -293 -140 q -181 -82 -228 -82 z "},"̧":{"ha":0,"x_min":-485,"x_max":-69,"o":"m -294 -329 q -394 -315 -350 -329 q -485 -269 -439 -300 l -425 -176 q -360 -210 -386 -200 q -308 -219 -335 -219 q -260 -187 -260 -219 q -304 -156 -260 -156 q -350 -162 -319 -156 l -417 -122 l -322 0 l -183 0 l -233 -68 q -212 -67 -225 -67 q -107 -100 -144 -67 q -69 -193 -69 -133 q -131 -293 -69 -257 q -294 -329 -192 -329 z "},"̨":{"ha":0,"x_min":-442,"x_max":-69,"o":"m -243 -342 q -388 -301 -335 -342 q -442 -182 -442 -260 q -408 -78 -442 -122 q -304 0 -375 -33 l -118 0 q -216 -62 -176 -26 q -256 -139 -256 -99 q -240 -178 -256 -165 q -200 -192 -225 -192 q -160 -186 -178 -192 q -122 -167 -143 -181 l -69 -287 q -137 -327 -100 -312 q -243 -342 -174 -342 z "},"Ẁ":{"ha":1600,"x_min":7,"x_max":1593,"o":"m 1593 986 l 1258 0 l 982 0 l 800 565 l 617 0 l 340 0 l 7 986 l 343 986 l 511 429 l 685 986 l 951 986 l 1125 429 l 1293 986 l 1593 986 m 725 1267 l 925 1067 l 703 1067 l 461 1267 l 725 1267 z "},"ẁ":{"ha":1218,"x_min":-14,"x_max":1225,"o":"m 1225 735 l 979 0 l 715 0 l 585 411 l 469 0 l 206 0 l -14 735 l 281 735 l 375 342 l 481 735 l 733 735 l 847 331 l 954 735 l 1225 735 m 721 819 l 499 819 l 299 1042 l 563 1042 l 721 819 z "},"Ẃ":{"ha":1600,"x_min":7,"x_max":1593,"o":"m 1593 986 l 1258 0 l 982 0 l 800 565 l 617 0 l 340 0 l 7 986 l 343 986 l 511 429 l 685 986 l 951 986 l 1125 429 l 1293 986 l 1593 986 m 925 1067 l 703 1067 l 903 1267 l 1167 1267 l 925 1067 z "},"ẃ":{"ha":1218,"x_min":-14,"x_max":1225,"o":"m 1225 735 l 979 0 l 715 0 l 585 411 l 469 0 l 206 0 l -14 735 l 281 735 l 375 342 l 481 735 l 733 735 l 847 331 l 954 735 l 1225 735 m 921 1042 l 721 819 l 499 819 l 657 1042 l 921 1042 z "},"Ẅ":{"ha":1600,"x_min":7,"x_max":1593,"o":"m 1593 986 l 1258 0 l 982 0 l 800 565 l 617 0 l 340 0 l 7 986 l 343 986 l 511 429 l 685 986 l 951 986 l 1125 429 l 1293 986 l 1593 986 m 653 1056 q 565 1087 597 1056 q 532 1175 532 1118 q 565 1265 532 1231 q 653 1299 599 1299 q 742 1265 708 1299 q 776 1175 776 1232 q 743 1087 776 1118 q 653 1056 710 1056 m 976 1056 q 887 1087 921 1056 q 853 1175 853 1118 q 887 1265 853 1231 q 976 1299 921 1299 q 1064 1265 1031 1299 q 1097 1175 1097 1231 q 1065 1087 1097 1118 q 976 1056 1032 1056 z "},"ẅ":{"ha":1218,"x_min":-14,"x_max":1225,"o":"m 1225 735 l 979 0 l 715 0 l 585 411 l 469 0 l 206 0 l -14 735 l 281 735 l 375 342 l 481 735 l 733 735 l 847 331 l 954 735 l 1225 735 m 435 811 q 334 847 372 811 q 296 944 296 883 q 335 1047 296 1008 q 435 1086 374 1086 q 535 1047 497 1086 q 574 944 574 1008 q 535 847 574 882 q 435 811 497 811 m 783 811 q 683 847 721 811 q 644 944 644 883 q 683 1047 644 1008 q 783 1086 722 1086 q 884 1047 846 1086 q 922 944 922 1008 q 884 847 922 882 q 783 811 846 811 z "},"ẞ":{"ha":1700,"x_min":21,"x_max":1667,"o":"m 440 -25 q 194 13 293 -25 q 21 115 96 51 l 121 326 q 272 245 214 271 q 397 219 331 219 q 469 235 444 219 q 493 276 493 250 q 467 320 493 304 q 386 351 442 336 q 219 409 283 381 q 104 503 156 438 q 53 683 53 569 q 106 868 53 794 q 246 976 160 942 q 431 1011 332 1011 q 645 978 560 1011 q 792 886 731 946 l 688 688 q 558 750 608 731 q 454 769 507 769 q 385 756 411 769 q 360 717 360 742 q 387 676 360 692 q 471 644 414 661 q 646 584 582 611 q 763 494 710 557 q 817 325 817 431 q 713 64 817 153 q 440 -25 608 -25 m 1290 -25 q 1044 13 1143 -25 q 871 115 946 51 l 971 326 q 1122 245 1064 271 q 1247 219 1181 219 q 1319 235 1294 219 q 1343 276 1343 250 q 1317 320 1343 304 q 1236 351 1292 336 q 1069 409 1133 381 q 954 503 1006 438 q 903 683 903 569 q 956 868 903 794 q 1096 976 1010 942 q 1281 1011 1182 1011 q 1495 978 1410 1011 q 1642 886 1581 946 l 1538 688 q 1408 750 1458 731 q 1304 769 1357 769 q 1235 756 1261 769 q 1210 717 1210 742 q 1237 676 1210 692 q 1321 644 1264 661 q 1496 584 1432 611 q 1613 494 1560 557 q 1667 325 1667 431 q 1563 64 1667 153 q 1290 -25 1458 -25 z "},"Ỳ":{"ha":915,"x_min":-21,"x_max":929,"o":"m 607 364 l 607 0 l 301 0 l 301 361 l -21 986 l 315 986 l 472 664 l 629 986 l 929 986 l 607 364 m 369 1267 l 569 1067 l 347 1067 l 106 1267 l 369 1267 z "},"ỳ":{"ha":799,"x_min":-21,"x_max":819,"o":"m 819 735 l 494 -28 q 192 -262 394 -262 q 53 -247 124 -262 l 69 -28 q 157 -33 113 -33 q 276 13 242 -33 l -21 735 l 276 735 l 413 372 l 542 735 l 819 735 m 514 819 l 292 819 l 92 1042 l 356 1042 l 514 819 z "}," ":{"ha":58,"x_min":0,"x_max":0,"o":""},"–":{"ha":979,"x_min":103,"x_max":876,"o":"m 876 531 l 876 283 l 103 283 l 103 531 l 876 531 z "},"—":{"ha":1436,"x_min":103,"x_max":1333,"o":"m 1333 531 l 1333 283 l 103 283 l 103 531 l 1333 531 z "},"‘":{"ha":488,"x_min":53,"x_max":435,"o":"m 254 725 q 344 681 310 718 q 379 585 379 643 q 332 474 379 517 q 213 432 285 432 q 98 474 143 432 q 53 596 53 517 q 97 754 53 674 q 210 902 142 835 q 353 1011 279 969 l 435 910 q 334 822 385 871 q 254 725 283 772 z "},"’":{"ha":488,"x_min":53,"x_max":435,"o":"m 275 1011 q 390 969 344 1011 q 435 847 435 926 q 390 689 435 769 q 277 541 346 608 q 135 432 208 474 l 53 533 q 153 622 103 572 q 233 718 204 671 q 143 763 178 725 q 108 858 108 800 q 156 969 108 926 q 275 1011 203 1011 z "},"‚":{"ha":488,"x_min":53,"x_max":435,"o":"m 275 289 q 390 247 344 289 q 435 125 435 204 q 390 -33 435 47 q 277 -181 346 -114 q 135 -290 208 -249 l 53 -189 q 153 -101 103 -150 q 233 -4 204 -51 q 143 40 178 3 q 108 136 108 78 q 156 247 108 204 q 275 289 203 289 z "},"“":{"ha":876,"x_min":53,"x_max":824,"o":"m 435 911 q 334 823 385 872 q 254 726 283 774 q 344 682 310 719 q 379 586 379 644 q 332 476 379 518 q 213 433 285 433 q 98 476 143 433 q 53 597 53 518 q 97 756 53 675 q 210 903 142 836 q 353 1013 279 971 l 435 911 m 643 726 q 733 682 699 719 q 768 586 768 644 q 721 476 768 518 q 601 433 674 433 q 487 476 532 433 q 442 597 442 518 q 486 756 442 675 q 599 903 531 836 q 742 1013 668 971 l 824 911 q 723 823 774 872 q 643 726 672 774 z "},"”":{"ha":876,"x_min":53,"x_max":824,"o":"m 275 1011 q 390 969 344 1011 q 435 847 435 926 q 390 689 435 769 q 277 541 346 608 q 135 432 208 474 l 53 533 q 153 622 103 572 q 233 718 204 671 q 143 763 178 725 q 108 858 108 800 q 156 969 108 926 q 275 1011 203 1011 m 664 1011 q 778 969 733 1011 q 824 847 824 926 q 779 689 824 769 q 666 541 735 608 q 524 432 597 474 l 442 533 q 542 622 492 572 q 622 718 593 671 q 532 763 567 725 q 497 858 497 800 q 544 969 497 926 q 664 1011 592 1011 z "},"„":{"ha":876,"x_min":53,"x_max":824,"o":"m 275 289 q 390 247 344 289 q 435 125 435 204 q 390 -33 435 47 q 277 -181 346 -114 q 135 -290 208 -249 l 53 -189 q 153 -101 103 -150 q 233 -4 204 -51 q 143 40 178 3 q 108 136 108 78 q 156 247 108 204 q 275 289 203 289 m 664 289 q 778 247 733 289 q 824 125 824 204 q 779 -33 824 47 q 666 -181 735 -114 q 524 -290 597 -249 l 442 -189 q 542 -101 492 -150 q 622 -4 593 -51 q 532 40 567 3 q 497 136 497 78 q 544 247 497 204 q 664 289 592 289 z "},"†":{"ha":754,"x_min":0,"x_max":728,"o":"m 728 488 l 517 488 l 517 267 l 476 -153 l 251 -153 l 211 267 l 211 488 l 0 488 l 0 735 l 211 735 l 211 986 l 517 986 l 517 735 l 728 735 l 728 488 z "},"‡":{"ha":933,"x_min":103,"x_max":831,"o":"m 589 417 l 596 346 l 831 346 l 831 99 l 619 99 l 619 -153 l 314 -153 l 314 99 l 103 99 l 103 346 l 338 346 l 344 417 l 338 488 l 103 488 l 103 735 l 314 735 l 314 986 l 619 986 l 619 735 l 831 735 l 831 488 l 596 488 l 589 417 z "},"•":{"ha":631,"x_min":81,"x_max":549,"o":"m 314 286 q 145 343 210 286 q 81 500 81 400 q 146 661 81 599 q 314 724 211 724 q 483 661 418 724 q 549 500 549 599 q 484 343 549 400 q 314 286 419 286 z "},"…":{"ha":1379,"x_min":53,"x_max":1326,"o":"m 229 -11 q 101 32 150 -11 q 53 150 53 75 q 102 272 53 225 q 229 319 151 319 q 358 272 308 319 q 407 150 407 225 q 358 32 407 75 q 229 -11 310 -11 m 689 -11 q 561 32 610 -11 q 513 150 513 75 q 562 272 513 225 q 689 319 611 319 q 817 272 768 319 q 867 150 867 225 q 818 32 867 75 q 689 -11 769 -11 m 1149 -11 q 1021 32 1069 -11 q 972 150 972 75 q 1022 272 972 225 q 1149 319 1071 319 q 1277 272 1228 319 q 1326 150 1326 225 q 1278 32 1326 75 q 1149 -11 1229 -11 z "},"‰":{"ha":2121,"x_min":28,"x_max":2092,"o":"m 438 0 l 261 0 l 971 1007 l 1147 1007 l 438 0 m 301 447 q 160 481 222 447 q 63 578 97 515 q 28 722 28 640 q 63 867 28 804 q 159 963 97 929 q 300 997 221 997 q 441 963 379 997 q 538 867 503 929 q 572 722 572 804 q 538 578 572 640 q 441 481 503 515 q 301 447 379 447 m 300 585 q 358 619 340 585 q 375 722 375 654 q 358 825 375 790 q 300 860 340 860 q 243 825 260 860 q 226 722 226 790 q 243 619 226 654 q 300 585 260 585 m 1150 -11 q 1008 23 1071 -11 q 911 119 946 57 q 876 264 876 182 q 911 408 876 346 q 1008 505 946 471 q 1149 539 1069 539 q 1290 505 1228 539 q 1386 408 1351 471 q 1421 264 1421 346 q 1386 119 1421 182 q 1290 23 1351 57 q 1150 -11 1228 -11 m 1821 -11 q 1679 23 1742 -11 q 1582 119 1617 57 q 1547 264 1547 182 q 1582 408 1547 346 q 1678 505 1617 471 q 1819 539 1740 539 q 1960 505 1899 539 q 2057 408 2022 471 q 2092 264 2092 346 q 2057 119 2092 182 q 1960 23 2022 57 q 1821 -11 1899 -11 m 1149 126 q 1206 161 1189 126 q 1224 264 1224 196 q 1206 367 1224 332 q 1149 401 1189 401 q 1092 367 1108 401 q 1075 264 1075 332 q 1092 161 1075 196 q 1149 126 1108 126 m 1819 126 q 1877 161 1860 126 q 1894 264 1894 196 q 1877 367 1894 332 q 1819 401 1860 401 q 1763 367 1779 401 q 1746 264 1746 332 q 1763 161 1746 196 q 1819 126 1779 126 z "},"′":{"ha":417,"x_min":53,"x_max":364,"o":"m 306 461 l 53 461 l 53 986 l 364 986 l 306 461 z "},"″":{"ha":822,"x_min":53,"x_max":769,"o":"m 306 461 l 53 461 l 53 986 l 364 986 l 306 461 m 711 461 l 458 461 l 458 986 l 769 986 l 711 461 z "},"‹":{"ha":622,"x_min":51,"x_max":571,"o":"m 571 735 l 346 368 l 571 0 l 276 0 l 51 368 l 276 735 l 571 735 z "},"›":{"ha":619,"x_min":49,"x_max":568,"o":"m 343 0 l 49 0 l 274 368 l 49 735 l 343 735 l 568 368 l 343 0 z "},"⁄":{"ha":317,"x_min":-285,"x_max":601,"o":"m -108 0 l -285 0 l 425 1007 l 601 1007 l -108 0 z "},"₡":{"ha":885,"x_min":51,"x_max":839,"o":"m 839 42 q 724 0 783 17 q 589 -21 665 -17 l 571 -144 l 460 -144 l 479 -17 q 357 11 408 -8 l 333 -144 l 222 -144 l 253 61 q 103 237 154 126 q 51 493 51 347 q 140 811 51 682 q 390 985 229 940 l 411 1126 l 522 1126 l 504 1004 q 560 1007 540 1007 q 631 1003 594 1007 l 649 1126 l 760 1126 l 738 981 q 825 949 783 967 l 774 676 q 697 704 743 692 l 635 282 q 705 294 675 285 q 757 312 735 303 q 786 324 779 321 l 839 42 m 375 500 q 413 360 375 414 q 524 289 451 306 l 588 717 q 435 657 496 714 q 375 500 375 600 z "},"₩":{"ha":1586,"x_min":-18,"x_max":1604,"o":"m 1456 600 l 1374 361 l 1556 361 l 1556 263 l 1340 263 l 1251 0 l 975 0 l 893 263 l 692 263 l 610 0 l 333 0 l 244 263 l 31 263 l 31 361 l 211 361 l 131 600 l -18 600 l -18 699 l 97 699 l 0 986 l 322 986 l 410 699 l 603 699 l 692 986 l 931 986 l 1019 699 l 1213 699 l 1300 986 l 1586 986 l 1489 699 l 1604 699 l 1604 600 l 1456 600 m 439 600 l 504 383 l 572 600 l 439 600 m 1183 600 l 1050 600 l 1118 383 l 1183 600 m 863 361 l 793 583 l 724 361 l 863 361 z "},"€":{"ha":1039,"x_min":51,"x_max":958,"o":"m 958 31 q 679 -25 839 -25 q 345 78 474 -25 q 183 361 217 181 l 51 361 l 79 453 l 172 453 q 171 493 171 467 q 172 538 171 524 l 92 538 l 119 629 l 185 629 q 351 909 222 807 q 679 1011 481 1011 q 825 997 756 1011 q 944 960 894 983 l 893 715 q 715 742 836 742 q 601 713 651 742 q 522 629 550 685 l 801 629 l 774 538 l 496 538 q 494 500 494 525 q 497 453 494 483 l 761 453 l 733 361 l 522 361 q 717 256 574 256 q 824 263 781 256 q 906 285 868 271 l 958 31 z "},"№":{"ha":1864,"x_min":86,"x_max":1863,"o":"m 1443 240 q 1233 285 1328 240 q 1081 415 1138 329 q 1025 622 1025 501 q 1081 831 1025 743 q 1233 963 1138 918 q 1444 1007 1329 1007 q 1655 963 1560 1007 q 1806 831 1750 918 q 1863 622 1863 743 q 1806 416 1863 503 q 1654 285 1750 329 q 1443 240 1558 240 m 682 986 l 946 986 l 946 0 l 644 0 l 350 501 l 350 0 l 86 0 l 86 986 l 400 986 l 682 554 l 682 986 m 1443 757 q 1369 719 1396 757 q 1342 622 1342 682 q 1369 528 1342 564 q 1443 492 1396 492 q 1518 528 1490 492 q 1546 622 1546 564 q 1518 719 1546 682 q 1443 757 1490 757 m 1083 213 l 1803 213 l 1803 0 l 1083 0 l 1083 213 z "},"℗":{"ha":1115,"x_min":0,"x_max":1024,"o":"m 511 1007 q 761 945 643 1007 q 951 766 879 883 q 1024 493 1024 649 q 951 220 1024 338 q 761 41 879 103 q 511 -21 643 -21 q 262 41 379 -21 q 72 220 144 103 q 0 493 0 338 q 72 766 0 649 q 262 945 144 883 q 511 1007 379 1007 m 511 35 q 728 88 625 35 q 894 244 831 140 q 958 493 958 347 q 894 742 958 639 q 728 899 831 846 q 511 951 625 951 q 295 899 397 951 q 129 742 193 846 q 65 493 65 639 q 129 244 65 347 q 295 88 193 140 q 511 35 397 35 m 521 739 q 650 701 603 739 q 697 589 697 664 q 648 467 697 511 q 519 422 599 422 l 431 422 l 431 246 l 357 246 l 357 739 l 521 739 m 506 476 q 586 502 556 475 q 617 581 617 529 q 589 653 617 631 q 507 675 561 675 l 431 675 l 431 476 l 506 476 z "},"™":{"ha":914,"x_min":67,"x_max":847,"o":"m 346 911 l 251 911 l 251 604 l 163 604 l 163 911 l 67 911 l 67 986 l 346 986 l 346 911 m 764 604 l 731 871 l 638 604 l 578 604 l 486 869 l 456 604 l 378 604 l 421 986 l 519 986 l 611 728 l 703 986 l 804 986 l 847 604 l 764 604 z "},"⅓":{"ha":1147,"x_min":32,"x_max":1114,"o":"m 307 986 l 307 458 l 119 458 l 119 818 l 32 789 l 32 925 l 193 986 l 307 986 m 275 0 l 99 0 l 808 1007 l 985 1007 l 275 0 z "},"⅔":{"ha":1268,"x_min":28,"x_max":1235,"o":"m 458 601 l 458 458 l 43 458 l 43 601 q 143 675 78 628 q 242 752 214 724 q 271 813 271 781 q 260 842 271 831 q 231 853 250 853 q 197 838 208 853 q 174 788 185 824 l 28 832 q 103 958 44 917 q 250 1000 163 1000 q 394 956 339 1000 q 450 831 450 913 q 417 722 450 767 q 343 653 383 678 q 244 601 303 628 l 458 601 m 396 0 l 219 0 l 929 1007 l 1106 1007 l 396 0 z "},"⅛":{"ha":1147,"x_min":32,"x_max":1139,"o":"m 307 986 l 307 458 l 119 458 l 119 818 l 32 789 l 32 925 l 193 986 l 307 986 m 275 0 l 99 0 l 808 1007 l 985 1007 l 275 0 z "},"⅜":{"ha":1211,"x_min":10,"x_max":1203,"o":"m 307 733 q 428 607 428 714 q 364 488 428 529 q 201 447 300 447 q 89 458 142 447 q 10 483 36 469 l 44 621 q 176 593 133 593 q 217 603 204 593 q 229 628 229 614 q 203 661 229 650 q 136 672 178 672 l 103 672 l 103 779 l 124 779 q 203 790 179 779 q 228 824 228 801 q 215 848 228 839 q 178 857 201 857 q 121 849 156 857 q 60 831 86 842 l 29 964 q 108 990 53 979 q 218 1001 163 1001 q 358 967 307 1001 q 410 864 410 932 q 382 782 410 815 q 307 733 354 749 m 339 0 l 163 0 l 872 1007 l 1049 1007 l 339 0 z "},"⅝":{"ha":1246,"x_min":22,"x_max":1238,"o":"m 304 807 q 433 765 389 807 q 478 642 478 724 q 410 494 478 542 q 240 447 342 447 q 122 463 174 447 q 22 499 69 478 l 72 625 q 151 599 114 607 q 213 590 189 590 q 262 605 243 590 q 281 649 281 619 q 264 690 281 676 q 224 703 247 703 q 190 693 206 703 q 154 667 175 683 l 50 704 l 78 989 l 440 989 l 440 851 l 207 851 l 199 779 q 249 802 222 797 q 304 807 275 807 m 374 0 l 197 0 l 907 1007 l 1083 1007 l 374 0 z "},"⅞":{"ha":1119,"x_min":18,"x_max":1111,"o":"m 429 986 l 429 878 q 275 458 296 686 l 68 458 q 236 847 107 671 l 18 847 l 18 986 l 429 986 m 247 0 l 71 0 l 781 1007 l 957 1007 l 247 0 z "},"−":{"ha":925,"x_min":103,"x_max":822,"o":"m 822 339 l 103 339 l 103 551 l 822 551 l 822 339 z "},"≈":{"ha":892,"x_min":86,"x_max":806,"o":"m 622 471 q 531 483 575 471 q 428 517 488 494 q 341 545 375 536 q 274 554 307 554 q 172 542 222 554 q 86 513 122 531 l 86 725 q 125 746 88 725 q 274 767 163 767 q 359 756 318 767 q 467 722 400 744 q 553 693 517 703 q 622 683 590 683 q 721 695 672 683 q 806 725 769 707 l 806 513 q 735 483 782 494 q 622 471 688 471 m 622 125 q 531 137 575 125 q 428 171 488 149 q 341 199 375 190 q 274 208 307 208 q 172 197 222 208 q 86 167 122 185 l 86 379 q 125 400 88 379 q 274 421 163 421 q 359 410 318 421 q 467 376 400 399 q 553 347 517 357 q 622 338 590 338 q 721 349 672 338 q 806 379 769 361 l 806 167 q 735 137 782 149 q 622 125 688 125 z "},"≠":{"ha":892,"x_min":86,"x_max":806,"o":"m 596 513 l 533 379 l 806 379 l 806 167 l 433 167 l 363 14 l 129 14 l 200 167 l 86 167 l 86 379 l 300 379 l 361 513 l 86 513 l 86 725 l 461 725 l 532 878 l 767 878 l 696 725 l 806 725 l 806 513 l 596 513 z "},"≤":{"ha":875,"x_min":86,"x_max":806,"o":"m 806 728 l 299 600 l 806 472 l 806 253 l 86 469 l 86 731 l 806 947 l 806 728 m 86 213 l 806 213 l 806 0 l 86 0 l 86 213 z "},"≥":{"ha":875,"x_min":69,"x_max":789,"o":"m 789 731 l 789 469 l 69 253 l 69 472 l 576 600 l 69 728 l 69 947 l 789 731 m 69 213 l 789 213 l 789 0 l 69 0 l 69 213 z "}}}
